SplineFontDB: 3.0
FontName: AbhayaLibre-Regular
FullName: AbhayaLibre
FamilyName: AbhayaLibre
Weight: Regular
Copyright: Copyright (c) 1997-2015 Pushpananda Ekanayake (http://isiwara.lk), Copyright (c) 2015 mooniak (http://mooniak.com)\n
UComments: "2015-2-15: Created with FontForge (http://fontforge.org) The  Free Font Editor"
Version: 1.0
ItalicAngle: 0
UnderlinePosition: -102
UnderlineWidth: 51
Ascent: 819
Descent: 205
InvalidEm: 0
UFOAscent: 819
UFODescent: -205
LayerCount: 4
Layer: 0 0 "Back" 1
Layer: 1 0 "Fore" 0
Layer: 2 0 "Back 2" 1
Layer: 3 0 "Back 3" 1
PreferredKerning: 4
FSType: 0
OS2Version: 0
OS2_WeightWidthSlopeOnly: 0
OS2_UseTypoMetrics: 0
CreationTime: 1429518268
ModificationTime: 1438688565
PfmFamily: 16
TTFWeight: 400
TTFWidth: 5
LineGap: 94
VLineGap: 0
OS2TypoAscent: 819
OS2TypoAOffset: 0
OS2TypoDescent: -205
OS2TypoDOffset: 0
OS2TypoLinegap: 94
OS2WinAscent: 918
OS2WinAOffset: 0
OS2WinDescent: 205
OS2WinDOffset: 0
HheadAscent: 918
HheadAOffset: 0
HheadDescent: -205
HheadDOffset: 0
OS2CapHeight: 0
OS2XHeight: 0
OS2Vendor: 'PfEd'
OS2UnicodeRanges: 00000002.00000000.00000000.00000000
Lookup: 4 0 0 "'abvs' Above Base Substitutions in Sinhala lookup 2" { "'abvs' Above Base Substitutions in Sinhala lookup 2-1"  } ['abvs' ('sinh' <'dflt' > ) ]
Lookup: 1 0 0 "'ordn' Ordinals lookup 1" { "'ordn' Ordinals lookup 1-1"  } ['ordn' ('DFLT' <'dflt' > 'hani' <'dflt' > 'latn' <'dflt' > 'sinh' <'dflt' > ) ]
Lookup: 4 0 1 "'liga' Standard Ligatures lookup 1" { "'liga' Standard Ligatures lookup 1-1"  } ['liga' ('DFLT' <'dflt' > 'hani' <'dflt' > 'latn' <'dflt' > ) ]
Lookup: 258 0 0 "'kern' Horizontal Kerning lookup 0" { "'kern' Horizontal Kerning lookup 0-1" [153,15,0] } ['kern' ('DFLT' <'dflt' > 'hani' <'dflt' > 'latn' <'dflt' > ) ]
MarkAttachClasses: 1
DEI: 91125
KernClass2: 7 7 "'kern' Horizontal Kerning lookup 0-1"
 1 A
 7 T Y P F
 9 f r v w y
 1 L
 3 W V
 0 
 7 W V T Y
 12 period comma
 17 a e s o q d c g u
 1 A
 5 w v t
 15 semicolon colon

StartChar: anusvara
Encoding: 65536 -1 0
Width: 1024
VWidth: 893
Flags: M
LayerCount: 4
Back
SplineSet
1220.97070312 486 m 0
 1161.97070312 486 l 0
 1161.97070312 564 l 0
 1161.97070312 732 l 0
 1220.97070312 718 l 0
 1220.97070312 574 l 0
 1220.97070312 486 l 0
EndSplineSet
Fore
Layer: 2
Layer: 3
EndChar

StartChar: si_NnI
Encoding: 237 -1 1
Width: 963
VWidth: 1000
Flags: W
HStem: -0.787109 29.7871<755.533 826.522> 0 73<266.723 452.891> 36.4297 31.0986<607.676 683.579> 156 37.2305<280.606 381.066> 163.396 18.6035<307.827 405> 181 27<115 131.172> 256.472 29.0986<609.444 685.012> 310 37.7871<761.965 827.371> 408 25<285.843 436.361> 470 57<722.506 861.77>
VStem: 170 29<257.186 338.603> 267.396 28.834<215.713 292.271> 417.77 28.834<215.713 292.271> 548.841 28.5488<107.031 305.895> 713 19<61.6533 202.671> 720 21.1592<86 273.498> 852 63.3633<61.3873 287.684>
LayerCount: 4
Back
SplineSet
1055.97070312 498 m 0
 951.970703125 498 l 0
 964.41796875 517.34375 967.970703125 553.9375 967.970703125 576 c 0
 967.970703125 628 988.633789062 704 913.970703125 704 c 0
 836.62890625 704 776.970703125 671.231445312 776.970703125 636 c 0
 776.970703125 577.78125 785.970703125 568 785.970703125 568 c 1
 683.970703125 568 l 1
 667.970703125 588 662.970703125 619.814453125 662.970703125 646 c 0
 662.970703125 769.171875 783.970703125 808 913.970703125 808 c 0
 1038.17285156 808 1079.97070312 711 1079.97070312 586 c 0
 1079.97070312 548.223632812 1066.54589844 507.360351562 1055.97070312 498 c 0
EndSplineSet
Fore
SplineSet
624 471 m 5
 610.5822337 465.814753645 608.102539062 458.3984375 575 454 c 133
 597.608398438 468.721679688 609 487.530273438 609 511 c 4
 609 554.43359375 549.455078125 573 474 573 c 4
 383.841796875 573 240 557.794921875 240 486.75 c 4
 240 453.946289062 270.610351562 432.844726562 316 429 c 5
 286.1171875 422.8671875 286.836840724 419.094662214 270 416 c 5
 235.96861041 423.249969482 203.25 453.854492188 203.25 500 c 4
 203.25 595.465620213 335.782008941 640 452 640 c 4
 545.62752846 640 644 603.414062506 644 524.5 c 4
 644 503.737860504 636.54876709 483.973739624 624 471 c 5
737 169 m 0x83fe80
 737 144.10279328 734 125.806640625 734 105 c 0
 734 44 769 34 792 34 c 0
 843 34 852 95 852 169 c 0
 852 245 836 309 799 309 c 0
 748 309 737 245 737 169 c 0x83fe80
718 239 m 0x83fd80
 718 292 749 347.787109375 815 347.787109375 c 0
 881 347.787109375 915.36328125 264.7578125 915.36328125 168 c 0
 915.36328125 73 883 -0.787109375 800 -0.787109375 c 0
 742.994565687 -0.787109375 713 40 713 78 c 0x83fe80
 713 101.819335938 718 208.262695312 718 239 c 0x83fd80
577.389648438 162 m 0
 577.389648438 109.791992188 606.911132812 67.5283203125 644 67.5283203125 c 0x23fc80
 686.255859375 67.5283203125 710.610351562 105.122070312 710.610351562 162 c 0
 710.610351562 221.91015625 689.026367188 256.471679688 644 256.471679688 c 0
 606.911132812 256.471679688 577.389648438 214.208007812 577.389648438 162 c 0
548.840820312 161 m 0
 548.840820312 229.840820312 591.45703125 285.5703125 645 285.5703125 c 0
 710 285.5703125 741.159179688 240 741.159179688 161 c 0x23fd80
 741.159179688 86 706 36.4296875 645 36.4296875 c 0
 591.45703125 36.4296875 548.840820312 92.1591796875 548.840820312 161 c 0
296.23046875 254 m 0
 296.23046875 220.009765625 323.009765625 193.23046875 357 193.23046875 c 0x13fc80
 390.990234375 193.23046875 417.76953125 220.009765625 417.76953125 254 c 0
 417.76953125 287.990234375 390.990234375 314.76953125 357 314.76953125 c 0
 323.009765625 314.76953125 296.23046875 287.990234375 296.23046875 254 c 0
267.396484375 253 m 0
 267.396484375 302.172851562 307.827148438 342.603515625 357 342.603515625 c 0
 406.172851562 342.603515625 446.603515625 302.172851562 446.603515625 253 c 0
 446.603515625 203.827148438 406.172851562 163.396484375 357 163.396484375 c 0x0bfc80
 307.827148438 163.396484375 267.396484375 203.827148438 267.396484375 253 c 0
350 73 m 0x47fc80
 456.877214768 73 549 133 549 237 c 0
 549 330 481.552734375 408 357 408 c 0
 269.047851562 408 199 360 199 288 c 0
 199 213 264 182 322 182 c 1x4bfc80
 405 178 l 1
 384 164 362 156 321 156 c 0x13fc80
 232 156 170 207.99333363 170 283 c 0
 170 382 258.142578125 433 359 433 c 0
 440 433 584 390 584 213 c 0
 584 114 520 0 365 0 c 0
 167 0 180 181 99 181 c 0
 71 181 54 168 33 154 c 1
 22 178 l 1
 213 306 426.094726562 401.813476562 653 483 c 0
 725.666992188 509 796 527 828 527 c 0
 851.333333333 527 863 518 863 500 c 0
 863 484.666666667 851.333333333 474.666666667 828 470 c 0
 798.666666667 465.333333333 750.516558006 455.372144137 683 443 c 0
 492 408 278 301 115 208 c 1
 176 208 194 73 350 73 c 0x47fc80
EndSplineSet
Layer: 2
Layer: 3
EndChar

StartChar: uni0D85
Encoding: 2 3461 2
Width: 573
VWidth: 1000
Flags: W
HStem: -4 27<205.486 385.383> 200 29<388.393 447.237> 287 22<189.916 252> 393 40<196.956 288.512>
VStem: 33 80<87.6526 236.615> 316 31.023<309 357.673> 359 29<313 377.002> 384 4<207 235> 421.451 23.549<381.434 405.995> 464 62<238.559 338.87>
LayerCount: 4
Back
Fore
SplineSet
428 200 m 0xfdc0
 479.320433706 200 526 228.79640641 526 281 c 0
 526 354 445 369 445 403 c 0
 445 414 450 418 457 422 c 1
 438 418 l 0
 422 404 l 1
 421.681802112 401.93171373 421.450986646 399.934865834 421.450986646 398 c 0
 421.450986646 371 437.325961395 361.900561124 448 345 c 0
 460 326 464 311 464 287 c 0
 464 249 440.170365761 229 411 229 c 0
 403.666666667 229 393 230 384 235 c 9
 384 207 l 17
 400 202 414.666666667 200 428 200 c 0xfdc0
462 424 m 1
 439 435 l 1
 419 429.666666667 401.333333333 418.333333333 386 401 c 0
 368 379.666666667 359 350 359 313 c 0
 359 137 359 -39 359 -215 c 1xfec0
 388 -215 l 1xfdc0
 388 315 l 2xfec0
 388 352 392 393 462 424 c 1
523 51 m 1
 523 83 l 1
 480 50 410 23 297 23 c 0
 161 23 113 88 113 164 c 0
 113 200 130 287 252 287 c 2
 347 287 l 1
 347.014753113 288.003211652 347.022958637 289.003232324 347.022958637 289.999996282 c 0
 347.022958637 382 295 433 211 433 c 0
 154 433 106 410 106 369 c 0
 106 344.66015625 125 331 147 331 c 0
 172 331 183 347 188 358 c 0
 196.04296875 375.694335938 205 393 241 393 c 0
 287 393 314.512785982 352.872813538 316 309 c 1
 202 309 l 2
 94 309 33 248 33 160 c 0
 33 62 118 -4 282 -4 c 0
 386 -4 472 17 523 51 c 1
EndSplineSet
Layer: 2
SplineSet
430 198 m 4
 481 198 529 225 529 281 c 4
 529 359 445 369 445 403 c 4
 445 414 451 418 457 421 c 5
 438 418 l 4
 420 403 l 5
 419.681640625 400.931640625 419.451171875 394.934570312 419.451171875 393 c 4
 419.451171875 376 424 362 435 346 c 4
 446.78870115 328.852798327 452 314 452 291 c 4
 452 256 434 231 407 231 c 4
 396 231 391 232 384 235 c 13
 384 203 l 21
 397 200 411 198 430 198 c 4
464 424 m 5
 439 435 l 5
 419 429.666666667 398.125818599 417.514105747 383 400 c 4
 364 378 356 350 356 313 c 4
 356 137 356 -39 356 -215 c 5
 388 -215 l 5
 388 311 l 6
 388 350 393 394 464 424 c 5
523 51 m 5
 523 85 l 5
 480 52 418 35 335 35 c 4
 242 35 187 88 187 164 c 4
 187 200 201 285 309 285 c 6
 344 285 l 5
 344.014648438 286.002929688 344.0234375 289.002929688 344.0234375 290 c 4
 344.0234375 382 295 433 211 433 c 4
 154 433 106 410 106 369 c 4
 106 344.66015625 126 328 148 328 c 4
 176 328 190.188476562 344.376953125 197 358 c 4
 203 370 211 387 244 387 c 4
 284 387 310 348 311 309 c 5
 202 309 l 6
 94 309 33 248 33 160 c 4
 33 62 118 -4 282 -4 c 4
 386 -4 472 17 523 51 c 5
EndSplineSet
Layer: 3
EndChar

StartChar: uni0DA0
Encoding: 26 3488 3
Width: 597
VWidth: 1000
Flags: W
HStem: 0 71<167.243 416.427> 277 25<14 287> 395 36.5<169.289 260.238> 553 24<221.6 374.599>
VStem: 64 37<127.613 229.669> 83 74.5<326.244 386.562> 287.086 32.0605<302 363.922> 541 34<206.865 380.435>
LayerCount: 4
Back
Fore
SplineSet
319 277 m 5xf7
 250 277 l 6
 205.559570312 277 166.1171875 264.814453125 141 249 c 4
 114 232 101 206.05078125 101 180 c 4
 101 94 208 71 298 71 c 4
 451 71 541 158 541 300 c 4
 541 442 437.498046875 553 303 553 c 4
 223.666992188 553 160.666992188 524.666992188 116 470 c 5
 84 470 l 5
 132.666992188 540 205 577 303 577 c 4
 463.151367188 577 575 443 575 274 c 4
 575 114 478 0 295 0 c 4
 174 0 64 46 64 165 c 4xfb
 64 195.720703125 73.775390625 227.831054688 97 248 c 4
 113.126953125 262.004882812 132 273 158 278 c 5
 191.760742188 290.19921875 232.875 302 270 302 c 6
 287 302 l 5
 287.08203125 304.041015625 287.0859375 306.041015625 287.0859375 308 c 4
 287.0859375 362 253 395 216 395 c 4
 171 395 163 371 157.5 355 c 4
 150.951171875 335.948242188 140.87109375 323 119 323 c 4
 103 323 83 333.368164062 83 359 c 4
 83 406 133 431.5 188 431.5 c 4
 276 431.5 319.146484375 376 319.146484375 290 c 4
 319.146484375 286.721679688 319.100585938 280.387695312 319 277 c 5xf7
148 277 m 6
 77 276 30 272.666992188 14 270 c 5
 14 302 l 5
 285 302 l 5
 315 277 l 5
 148 277 l 6
EndSplineSet
Layer: 2
SplineSet
319 274 m 5
 271 274 l 6
 216 274 184 266 161 254 c 4
 132.712890625 239.241210938 128 220 128 207 c 4
 128 158 208 140 298 140 c 4
 451 140 517 218 517 329 c 4
 517 442 437.498046875 551 303 551 c 4
 223.666992188 551 163 522 119 470 c 5
 84 470 l 5
 132.666992188 540 205 577 303 577 c 4
 463.151367188 577 575 443 575 274 c 4
 575 114 478 0 295 0 c 4
 174 0 64 46 64 165 c 4
 64 195.720344964 73.7752888432 227.83117189 97 248 c 4
 113.127026077 262.005048961 132 273 158 278 c 5
 191.760742188 290.19921875 232.875230528 302 270 302 c 6
 284 302 l 5
 284.08203125 304.041015625 284.0859375 306.041015625 284.0859375 308 c 4
 284.0859375 358 252 389 220 389 c 132
 186 389 173 371 167.5 355 c 132
 160.951171875 335.948242188 150 320 121 320 c 4
 101 320 83 333.368164062 83 359 c 4
 83 406 133 431.5 188 431.5 c 4
 276 431.5 319.146484375 376 319.146484375 290 c 4
 319.146484375 286.721679688 319.100585938 277.387695312 319 274 c 5
148 274 m 6
 77 273 29 269.666992188 13 267 c 5
 13 302 l 5
 282 302 l 5
 315 274 l 5
 148 274 l 6
EndSplineSet
Layer: 3
EndChar

StartChar: uni0D89
Encoding: 6 3465 4
Width: 593
VWidth: 1000
Flags: HW
HStem: -160.272 22.8648<248.913 348.919> -14.6465 28.0713<249 337.071> 54 26.9805<153.59 299.028> 104.979 27.0361<254.041 322.127> 231.985 27.6982<253.68 322.654> 357.365 74.8647<168.676 398.34>
VStem: 32.7693 40.651<140.699 275.285> 172.568 62.4322<-128.639 -40.6885> 208 28.9951<148.006 216.404> 339.005 36.9951<125.995 219.63> 375.053 63.9665<-123.226 -38.1457> 506 38.0727<109.529 253.779>
LayerCount: 4
Back
Fore
SplineSet
273.107421875 13.4248046875 m 4xff30
 289.881835938 13.4248046875 306.879979999 11.3077791959 324.407906495 11.3077791959 c 4
 423.445479405 11.3077791959 506 72.2427249302 506 179 c 4
 506 292.451180536 404.848523881 357.365080788 285.138234493 357.365080788 c 4
 174.761412308 357.365080788 73.420326121 308.982448025 73.420326121 204.134968762 c 4
 73.420326121 133.530159124 136.393554688 80.98046875 222.573242188 80.98046875 c 4
 276 80.98046875 317 96 333 120 c 5
 318 108 299.454101562 104.978515625 285.064453125 104.978515625 c 4
 244 104.978515625 208 138.5703125 208 179 c 4
 208 225.263671875 242 259.68359375 286.35546875 259.68359375 c 4
 343.78515625 259.68359375 376 221.615234375 376 170 c 4xfed0
 376 90 310 54 220 54 c 4
 113 54 32.769301342 116.842503605 32.769301342 220.978179218 c 4
 32.769301342 356.900041772 148 432.229789777 284.186584566 432.229789777 c 4
 436 432.229789777 544.072655356 353.230064025 544.072655356 198.289822617 c 4
 544.072655356 92.3992805878 472.804973932 9.9053684654 384 -6 c 5
 417.360050834 -12.0654637881 439.019305478 -35.5646106219 439.019305478 -74.6171329825 c 4
 439.019305478 -134.43844808 364.215441002 -160.272357038 298.362581423 -160.272357038 c 4
 236.041211731 -160.272357038 172.567829085 -139.055521608 172.567829085 -75.6591555653 c 4
 172.567829085 -50.1902726369 190.396707259 -38.4572252022 206.999999554 -38.4572252022 c 4
 222 -38.4572252022 235 -47.772668172 235 -65 c 4
 235 -70.548340286 231.33117885 -81.8987817032 231.33117885 -93.9999994603 c 4
 231.33117885 -114 242.210661318 -137.40759163 300.488905387 -137.40759163 c 4
 339.383175946 -137.40759163 375.052783758 -120.936614414 375.052783758 -83.377550246 c 4
 375.052783758 -40.6169352357 334.405273438 -14.646484375 267.46875 -14.646484375 c 4
 258.713867188 -14.646484375 258.543945312 -15.0908203125 249 -16 c 5
 249 12 l 5
 260.678710938 12.9736328125 262.404296875 13.4248046875 273.107421875 13.4248046875 c 4xff30
288 231.985351562 m 4
 259.854492188 231.985351562 236.995117188 209.190429688 236.995117188 182 c 4
 236.995117188 153.790039062 260.796875 132.014648438 288 132.014648438 c 4
 316.145507812 132.014648438 339.004882812 154.809570312 339.004882812 182 c 4
 339.004882812 210.209960938 315.203125 231.985351562 288 231.985351562 c 4
EndSplineSet
Layer: 2
Layer: 3
EndChar

StartChar: uni0DC0
Encoding: 54 3520 5
Width: 597
VWidth: 1000
Flags: W
HStem: 0 71<139.375 388.612> 280 24<135.303 260> 395 36.5<142.289 233.238> 553 24<194.6 347.599>
VStem: 33 35<128.968 231.998> 56 74.5<326.244 386.562> 260.086 32.0601<304 363.922> 514 34<206.865 380.435>
LayerCount: 4
Back
Fore
SplineSet
292 280 m 5xf7
 202 280 l 6
 128 280 68 245.215820312 68 180 c 4
 68 94 180 71 270 71 c 4
 423 71 514 158 514 300 c 4
 514 442 410.498046875 553 276 553 c 4
 196.666992188 553 133.666992188 524.666992188 89 470 c 5
 57 470 l 5
 105.666666667 540 178 577 276 577 c 4
 436.151392369 577 548 443 548 274 c 4
 548 114 450 0 267 0 c 4
 146 0 33 46 33 165 c 4xfb
 33 250 98 304 199 304 c 6
 260 304 l 5
 260.08203125 306.041015625 260.0859375 306.041015625 260.0859375 308 c 4
 260.0859375 362 226 395 189 395 c 4
 144 395 136 371 130.5 355 c 4
 123.950844566 335.947911466 113.871196443 323 92 323 c 4
 76 323 56 333.368164062 56 359 c 4
 56 406 106 431.5 161 431.5 c 4
 249 431.5 292.146076529 376 292.146076529 290.0000267 c 4
 292.146076529 286.721575577 292.100390271 283.38817163 292 280 c 5xf7
EndSplineSet
Layer: 2
SplineSet
292 277 m 5
 211 277 l 6
 137 277 101 250 101 213 c 4
 101 151 196 140 270 140 c 4
 423 140 491 211 491 317 c 4
 491 436 410.498046875 551 276 551 c 4
 196.666992188 551 136 522 92 470 c 5
 57 470 l 5
 105.666666667 540 178 577 276 577 c 4
 436.151392369 577 548 443 548 274 c 4
 548 114 450 0 267 0 c 4
 146 0 33 46 33 165 c 4
 33 250 98 304 199 304 c 6
 256 304 l 5
 256.08203125 306.041015625 256.0859375 306.041015625 256.0859375 308 c 4
 256.0859375 358 224 387 191 387 c 132
 157 387 146 371 140.5 355 c 132
 133.951171875 335.948242188 122 319 96 319 c 4
 73 319 56 333.368164062 56 359 c 4
 56 406 106 431.5 161 431.5 c 4
 249 431.5 292.146076529 376 292.146076529 290.0000267 c 4
 292.146076529 286.721575577 292.100585938 280.387695312 292 277 c 5
EndSplineSet
Layer: 3
EndChar

StartChar: uni0D8A
Encoding: 7 3466 6
Width: 528
VWidth: 1000
Flags: W
HStem: 0 73<147.727 330.785> 403.653 26.6934<419.34 475.966> 414 23<248.774 329.114> 473.653 26.6934<154.34 210.966> 506.341 26.0059<419.643 475.664> 576.341 26.0059<154.643 210.664>
VStem: 31 35<162.048 300.64> 118.307 26.3496<509.859 566.485> 220.65 26.3496<509.859 566.485> 383.307 26.3496<439.859 496.485> 430 52<169.286 322.527> 485.65 26.3496<439.859 496.485>
LayerCount: 4
Back
Fore
SplineSet
409.65625 468.34375 m 4xdff0
 409.65625 447.361328125 426.670898438 430.346679688 447.653320312 430.346679688 c 4
 468.635742188 430.346679688 485.650390625 447.361328125 485.650390625 468.34375 c 4
 485.650390625 489.326171875 468.635742188 506.340820312 447.653320312 506.340820312 c 4
 426.670898438 506.340820312 409.65625 489.326171875 409.65625 468.34375 c 4xdff0
383.306640625 468 m 4
 383.306640625 503.534179688 412.119140625 532.346679688 447.653320312 532.346679688 c 4
 483.1875 532.346679688 512 503.534179688 512 468 c 4
 512 432.465820312 483.1875 403.653320312 447.653320312 403.653320312 c 4
 412.119140625 403.653320312 383.306640625 432.465820312 383.306640625 468 c 4
144.65625 538.34375 m 4
 144.65625 517.361328125 161.670898438 500.346679688 182.653320312 500.346679688 c 4
 203.635742188 500.346679688 220.650390625 517.361328125 220.650390625 538.34375 c 4
 220.650390625 559.326171875 203.635742188 576.340820312 182.653320312 576.340820312 c 4
 161.670898438 576.340820312 144.65625 559.326171875 144.65625 538.34375 c 4
118.306640625 538 m 4
 118.306640625 573.534179688 147.119140625 602.346679688 182.653320312 602.346679688 c 4
 218.1875 602.346679688 247 573.534179688 247 538 c 4
 247 502.465820312 218.1875 473.653320312 182.653320312 473.653320312 c 4
 147.119140625 473.653320312 118.306640625 502.465820312 118.306640625 538 c 4
170 422 m 4
 223.263083971 449.696803665 250.105838186 465.264791571 308 517 c 4
 355 559 374 623 409 623 c 4
 425 623 432 616.333007812 432 605 c 4
 432 585 408.666666667 555.666666667 360 515 c 4
 327.333333333 487.666666667 289.666666667 461.333333333 247 436 c 5
 252 437 253.262695312 437 262 437 c 4xbff0
 333 437 388 413 429.5 366.5 c 4
 465.350590935 326.33006076 482 281.003971989 482 225 c 4
 482 102 383.523302632 0 248 0 c 4
 123.953919804 0 31 89.1821923439 31 213 c 4
 31 322.52211473 95.4624211491 380.154341698 170 422 c 4
66 237 m 4
 66 143.671016059 131.981483069 73 240 73 c 4
 345 73 430 149 430 254 c 4
 430 356 355.594726562 414 264 414 c 4
 166.78125 414 66 339.359738008 66 237 c 4
EndSplineSet
Layer: 2
SplineSet
410.416015625 468.34375 m 4
 410.416015625 447.78125 427.090820312 431.106445312 447.653320312 431.106445312 c 4
 468.215820312 431.106445312 484.890625 447.78125 484.890625 468.34375 c 4
 484.890625 488.90625 468.215820312 505.581054688 447.653320312 505.581054688 c 4
 427.090820312 505.581054688 410.416015625 488.90625 410.416015625 468.34375 c 4
382.01953125 468 m 4
 382.01953125 504.245117188 411.408203125 533.633789062 447.653320312 533.633789062 c 4
 483.8984375 533.633789062 513.287109375 504.245117188 513.287109375 468 c 4
 513.287109375 431.754882812 483.8984375 402.366210938 447.653320312 402.366210938 c 4
 411.408203125 402.366210938 382.01953125 431.754882812 382.01953125 468 c 4
145.416015625 538.34375 m 4
 145.416015625 517.78125 162.090820312 501.106445312 182.653320312 501.106445312 c 4
 203.215820312 501.106445312 219.890625 517.78125 219.890625 538.34375 c 4
 219.890625 558.90625 203.215820312 575.581054688 182.653320312 575.581054688 c 4
 162.090820312 575.581054688 145.416015625 558.90625 145.416015625 538.34375 c 4
117.01953125 538 m 4
 117.01953125 574.245117188 146.408203125 603.633789062 182.653320312 603.633789062 c 4
 218.8984375 603.633789062 248.287109375 574.245117188 248.287109375 538 c 4
 248.287109375 501.754882812 218.8984375 472.366210938 182.653320312 472.366210938 c 4
 146.408203125 472.366210938 117.01953125 501.754882812 117.01953125 538 c 4
170 422 m 4
 223.263083971 449.696803665 256 482 285 518 c 4
 316.623205551 557.256742977 338 629 388 629 c 4
 414 629 430 611 430 594 c 4
 430 574 407.640543289 549.698339844 359 509 c 4
 326.333007812 481.666992188 294 462 247 436 c 5
 252 437 253.262695312 437 262 437 c 4
 333 437 388 413 429.5 366.5 c 132
 465.350590935 326.33006076 482 281.003971989 482 225 c 4
 482 102 383.523302632 0 248 0 c 4
 123.953919804 0 31 89.1821923439 31 213 c 4
 31 322.52211473 94.1602958814 382.563353858 170 422 c 4
79 256 m 4
 79 198 119.981445312 138 228 138 c 4
 333 138 406 191 406 291 c 4
 406 362 351.594726562 411 260 411 c 4
 182 411 79 352 79 256 c 4
EndSplineSet
Layer: 3
EndChar

StartChar: uni0D8B
Encoding: 8 3467 7
Width: 651
VWidth: 1000
Flags: W
HStem: -161 33<257.705 429.935> 271 25<219.062 298> 390 41.5<358.585 461.761>
VStem: 32 77<8.6261 187.1> 574 29<3.92202 69>
LayerCount: 4
Back
Fore
SplineSet
539 271 m 5
 539.048557478 272.675233006 539.074783684 274.341975608 539.074783684 275.999995706 c 4
 539.074783684 370 468.871700649 431.5 376 431.5 c 4
 313 431.5 267 410 267 365 c 4
 267 345.182366328 283 328 305 328 c 4
 330 328 339.454261497 342.04953147 347 354.5 c 4
 360.699662251 377.104442714 380.302185915 390 408 390 c 4
 460.752569308 390 504 346 507 296 c 5
 264 296 l 6
 121 296 32 210 32 99 c 4
 32 -62 177 -161 328 -161 c 4
 480 -161 603 -64 603 69 c 5
 574 69 l 5
 574 -40 468 -128 341 -128 c 4
 216 -128 109 -30 109 110 c 4
 109 203.63883956 174 271 298 271 c 6
 539 271 l 5
EndSplineSet
Layer: 2
SplineSet
539 268 m 5
 539.048828125 269.674804688 539.074783684 274.341975608 539.074783684 275.999995706 c 4
 539.074783684 370 468.871700649 431.5 376 431.5 c 4
 313 431.5 267 410 267 365 c 4
 267 345.182366328 281 324 313 324 c 4
 340 324 354.454101562 342.049804688 362 354.5 c 132
 375.69921875 377.104492188 396 383 416 383 c 4
 456 383 501 346 504 296 c 5
 264 296 l 6
 121 296 32 210 32 99 c 4
 32 -62 177 -161 328 -161 c 4
 480 -161 603 -64 603 69 c 5
 571 69 l 5
 571 -34 476 -98 394 -98 c 4
 279 -98 187 -23 187 117 c 4
 187 210.638671875 231 268 355 268 c 6
 539 268 l 5
EndSplineSet
Layer: 3
EndChar

StartChar: uni0DA7
Encoding: 33 3495 8
Width: 603
VWidth: 1000
Flags: W
HStem: -1.15399 71.9065<162.868 393.609> 365.352 26.0267<164.677 305.633> 553.085 23.9947<193.045 346.963>
VStem: 31.596 34.308<156.163 284.916> 523.085 33.9212<205.852 374.742>
LayerCount: 4
Back
Fore
SplineSet
65.9040652651 217.756690347 m 4
 65.9040652651 314.122642713 148.491642868 365.351950183 233.999997455 365.351950183 c 4
 266 365.351950183 293.88667132 358.911108895 321 346 c 13
 321 375 l 21
 291.655125054 386.085841646 259 391.378618529 232.000003444 391.378618529 c 4
 126.170095138 391.378618529 31.5960301257 322.618280415 31.5960301257 207.869486361 c 4
 31.5960301257 80.6392374287 132.917850402 -1.15398720145 285.242387952 -1.15398720145 c 4
 447.244413075 -1.15398720145 557.006697374 115.25051458 557.006697374 271.182978806 c 4
 557.006697374 433.236971394 446.243363388 577.079858394 273.087127664 577.079858394 c 4
 176.649876667 577.079858394 103.927953012 539.371756626 57 470 c 13
 90 470 l 21
 132.781765602 525.005127203 194.707908634 553.085177402 275.440057829 553.085177402 c 4
 415.576556737 553.085177402 523.085468421 431.780189984 523.085468421 295.660472353 c 4
 523.085468421 148.526365796 418.412454023 70.7524940739 276.179776643 70.7524940739 c 4
 175.908160921 70.7524940739 65.9040652651 115.897355797 65.9040652651 217.756690347 c 4
EndSplineSet
Layer: 2
SplineSet
97.904296875 261.756835938 m 4
 97.904296875 321 154 362.3515625 234 362.3515625 c 4
 266 362.3515625 293.88671875 355.911132812 321 343 c 13
 321 375 l 21
 291.655125054 386.085841646 259 391.378618529 232.000003444 391.378618529 c 4
 126.170095138 391.378618529 31.5960301257 322.618280415 31.5960301257 207.869486361 c 4
 31.5960301257 80.6392374287 132.917850402 -1.15398720145 285.242387952 -1.15398720145 c 4
 447.244413075 -1.15398720145 557.006697374 115.25051458 557.006697374 271.182978806 c 4
 557.006697374 433.236971394 446.243363388 577.079858394 273.087127664 577.079858394 c 4
 176.649876667 577.079858394 103.927953012 539.371756626 57 470 c 13
 93 470 l 21
 135 523 194.708007812 551.084960938 275.440429688 551.084960938 c 4
 418 551.084960938 489.0859375 430 489.0859375 325.66015625 c 4
 489.0859375 201 401 140 278 140 c 4
 188 140 97.904296875 174 97.904296875 261.756835938 c 4
EndSplineSet
Layer: 3
EndChar

StartChar: uni0D91
Encoding: 14 3473 9
Width: 595
VWidth: 1000
Flags: HW
HStem: 0 71<148.243 395.614> 277 25<16 263> 359 36<338.075 436.162> 395 36.5<150.639 234.669>
VStem: 45 37<127.613 229.669> 263.086 32.0605<302 361.086> 283 30<424.683 549.228> 513 32<186.191 352.059>
LayerCount: 4
Back
Fore
SplineSet
513 267 m 4xde80
 513 323.666666667 496 376 471 412 c 5
 456.333007812 379.333007812 426 359 383 359 c 4
 319.844284656 359 283 414 283 480 c 4xed80
 283 530 298 566 325 597 c 5
 386 564 456.96484375 492.2421875 493 430 c 4
 531.783203125 363.01171875 545 315 545 245 c 4
 545 117 459 0 276 0 c 4
 155 0 45 46 45 165 c 4
 45 195.720703125 54.775390625 227.831054688 78 248 c 4
 94.126953125 262.004882812 113 273 139 278 c 5
 172.760742188 290.19921875 213.875 302 251 302 c 6
 263 302 l 5
 263.08203125 304.041015625 263.0859375 306.041015625 263.0859375 308 c 4
 263.0859375 356 228 395 191 395 c 4xde80
 152 395 143 374 138.5 356 c 4
 133.614257812 336.456054688 122.87109375 323 101 323 c 4
 85 323 64 333 64 360 c 4xee80
 64 403 107 431.5 165 431.5 c 4
 253 431.5 295.146484375 363 295.146484375 290 c 4
 295.146484375 286.721679688 295.100585938 280.387695312 295 277 c 5
 231 277 l 6
 186.559570312 277 147.1171875 264.814453125 122 249 c 4
 95 232 82 206.05078125 82 180 c 4
 82 94 189 71 279 71 c 4
 432 71 513 148 513 267 c 4xde80
129 277 m 6
 58 276 32 272.666992188 16 270 c 5
 16 302 l 5
 261 302 l 5
 291 277 l 5
 129 277 l 6
452 440 m 5
 422 486 372 532 334 560 c 5
 322 542 313 518.666666667 313 484 c 4
 313 434.666666667 333 395 390 395 c 4
 414 395 441.763671875 406.140625 452 440 c 5
EndSplineSet
Layer: 2
SplineSet
496 301 m 4
 496 351 484 387 471 410 c 5
 456 379 426 359 383 359 c 4
 319.844284656 359 283 414 283 480 c 4
 283 530 298 566 325 597 c 5
 386 564 456.96484375 492.2421875 493 430 c 4
 531.783203125 363.01171875 545 315 545 245 c 4
 545 117 459 0 276 0 c 4
 155 0 45 46 45 165 c 4
 45 195.720703125 54.775390625 227.831054688 78 248 c 4
 94.126953125 262.004882812 113 273 139 278 c 5
 172.760742188 290.19921875 213.875 302 251 302 c 6
 261 302 l 5
 261.08203125 304.041015625 261.0859375 306.041015625 261.0859375 308 c 4
 261.0859375 356 230 389 193 389 c 132
 170 389 152.745215065 371.085326199 147.5 355 c 132
 140 332 128 321 102 321 c 4
 84 321 64 333.368164062 64 359 c 4
 64 406 114 431.5 169 431.5 c 4
 257 431.5 295.146484375 363 295.146484375 290 c 4
 295.146484375 286.721679688 295.100585938 278.387695312 295 275 c 5
 233 275 l 6
 188.559570312 275 158.28515625 267.553710938 135 253 c 4
 119 243 108 227 108 207 c 4
 108 149 199 140 279 140 c 4
 432 140 496 210 496 301 c 4
129 275 m 6
 58 274 32 270.666992188 16 268 c 5
 16 302 l 5
 259 302 l 5
 291 275 l 5
 129 275 l 6
449 441 m 5
 419 485 372 529 334 557 c 5
 326 540 317 518 317 488 c 4
 317 438.666992188 350 406 394 406 c 4
 413 406 439 416 449 441 c 5
EndSplineSet
Layer: 3
EndChar

StartChar: uni0D94
Encoding: 17 3476 10
Width: 636
VWidth: 1000
Flags: W
HStem: 0 70<131.394 272.429 339.136 475.002> 224 29<238.559 353.314> 289 27<288.575 353.616> 410 24<118.455 166.158 290.605 351.086> 555 23<208.36 374.739>
VStem: 30 31<166.2 328.311> 172 27<290.656 402.998> 245 29<329.438 396.012> 293 24<103.887 167> 389 29<285.479 359.953> 554 36<182.11 371.953>
LayerCount: 4
Back
Fore
SplineSet
274 363 m 4
 274 337 295 316 321 316 c 4
 347 316 368 337 368 363 c 4
 368 389 347 410 321 410 c 4
 295 410 274 389 274 363 c 4
388 331 m 5
 382 318 358.65625 289 318 289 c 4
 271.278320312 289 245 324.079101562 245 360 c 260
 245 402 277 434 322 434 c 4
 381 434 418 389 418 330 c 4
 418 268 367 224 296 224 c 4
 225.25445084 224 172 267 172 339 c 4
 172 344.219726562 172.27544052 362.934877611 172.27544052 371.999999557 c 4
 172.27544052 392 168.197801988 406 145 406 c 4
 94 406 61 327 61 254 c 4
 61 149.666457941 116 70 199 70 c 4
 273 70 293 107.666992188 293 141 c 6
 293 167 l 5
 317 167 l 5
 317 140 l 6
 317 95.748046875 356 71 410 71 c 4
 505.558649722 71 554 181.873239616 554 286 c 4
 554 433.479491635 458 555 298 555 c 4
 199 555 139 525 92 466 c 5
 62 466 l 5
 107 531 175 578 302 578 c 4
 486 578 590 431.114542606 590 254 c 4
 590 126.500578052 543 0 406 0 c 4
 365 0 321 16 305 55 c 5
 283 15 246 0 196 0 c 4
 78 0 30 127 30 224 c 4
 30 332 74 431.5 148 431.5 c 4
 167.006835938 431.5 173 428 180 423 c 4
 190.609375 415.421875 198.873046875 401 198.873046875 371 c 4
 198.873046875 357 199 340.014648438 199 337 c 4
 199 284 240 253 295 253 c 4
 348 253 389 281 389 326 c 4
 389 327 389 329 388 331 c 5
EndSplineSet
Layer: 2
SplineSet
274.940429688 361 m 4
 274.940429688 335.51953125 295.51953125 314.940429688 321 314.940429688 c 4
 346.48046875 314.940429688 367.059570312 335.51953125 367.059570312 361 c 4
 367.059570312 386.48046875 346.48046875 407.059570312 321 407.059570312 c 4
 295.51953125 407.059570312 274.940429688 386.48046875 274.940429688 361 c 4
388 331 m 5
 383 316 362 285 318 285 c 4
 271.34375 285 243 322 243 360 c 260
 243 402 274 434 322 434 c 4
 384 434 420 389 420 330 c 4
 420 265 367 225 296 225 c 4
 222 225 170 264 170 339 c 4
 170 344.219726562 170.275390625 362.934570312 170.275390625 372 c 4
 170.275390625 392 164 403 145 403 c 4
 98 403 74 329 74 279 c 4
 74 198 126 138 204 138 c 4
 273 138 291 171.666992188 291 205 c 6
 291 208 l 5
 319 208 l 5
 319 204 l 6
 319 171 342 139 403 139 c 4
 498.55859375 139 531 230 531 323 c 4
 531 437 458 553 298 553 c 4
 199 553 142 522 96 466 c 5
 62 466 l 5
 107 531 173 579 300 579 c 4
 488 579 590 431.114542606 590 254 c 4
 590 126.500578052 543 0 406 0 c 4
 365 0 321 16 305 55 c 5
 283 15 246 0 196 0 c 4
 78 0 30 127 30 224 c 4
 30 332 74 431.5 148 431.5 c 4
 167.006835938 431.5 175 428 182 423 c 4
 192.609375 415.421875 200.873046875 401 200.873046875 371 c 4
 200.873046875 357 201 340.014648438 201 337 c 4
 201 284 240 256 295 256 c 4
 348 256 389 281 389 326 c 4
 389 327 389 329 388 331 c 5
EndSplineSet
Layer: 3
EndChar

StartChar: uni0D9A
Encoding: 20 3482 11
Width: 746
VWidth: 1000
Flags: HW
HStem: -1 72<139.59 257.82 329.334 448.361> -1 27<505.666 596.496> 73 27<70.1748 107.875> 288 25<214.989 383.323> 368 66<331.446 512.513> 392 41<120.163 188.978>
VStem: 21 26<18.9674 55.9456> 29 77<300.927 381.512> 194.895 30.1055<346 383.641> 281 26<106.78 163> 474 41<98.2673 214.703> 649 52<90.9757 241.445>
LayerCount: 4
Back
Fore
SplineSet
106 323 m 0xb5f0
 99 305 84 297 69 297 c 0
 35 297 29 328 29 340 c 0
 29 394.098632812 79.3632281498 433 136 433 c 0xb5f0
 185.711963719 433 220.079101562 402 220.079101562 356 c 0
 220.079101562 351.467773438 219.723632812 345.794921875 219 341 c 1
 281 401 366 434 453 434 c 0
 603 434 701.000000002 328 701 192 c 0
 700.999999999 109.999777824 659 -1 556 -1 c 0
 540 -1 518 2 506 11 c 1
 506 38 l 1
 516 31 533 26 557 26 c 0x79f0
 607 26 649 80 649 153 c 0
 649 285 534.341514142 368 400 368 c 0
 326.666666667 368 266 348 219 308 c 1
 243 314 274.666992188 316 302 316 c 0
 422 316 515 251 515 126 c 0
 515 67.8472233203 482 -1 397 -1 c 0
 351 -1 317.333333333 20.3333333333 296 63 c 1
 278.666666667 21.6666666667 246.021148364 -1 204 -1 c 0
 117 -1 120 73 87 73 c 0
 64.6748046875 73 50 51 47 11 c 1
 21 22 l 1xbaf0
 28.6966338402 91.2697045622 74.4524773728 184.16496867 109 232 c 0
 135 268 150 282 168 301 c 1
 180 314 193 330 193 352 c 0
 193 374 183.407917035 392 158 392 c 0
 144 392 122.478515625 384.287109375 116 363 c 0
 109 340 112.653628896 340.109331446 106 323 c 0xb5f0
182 273 m 1
 164.666992188 258.333007812 145 234.666992188 129 212 c 0
 100.333007812 171.333007812 80.6666666667 131.666666667 70 95 c 1
 76 98.3333333333 82.3333333333 100 89 100 c 0
 118 100 142 71 199 71 c 0
 250.182680149 71 281 101.864211954 281 162 c 0
 281 164.208984375 281.041015625 161.3046875 281 163 c 1
 307 163 l 1
 306.963867188 161.6640625 307 163.330078125 307 162 c 0
 307 96.92631064 334 71 392 71 c 0
 454.088867188 71 474 123 474 159 c 0
 474 242 400.87890625 291 298 291 c 0
 241.333007812 291 203 282 182 273 c 1
EndSplineSet
Layer: 2
Layer: 3
EndChar

StartChar: uni0DB1
Encoding: 43 3505 12
Width: 806
VWidth: 1000
Flags: HW
HStem: -1.22122 27.5682<559.984 654.223> -1.12219 73.5756<140.034 386.52> 284 24.102<271.739 394.102> 370.322 62.4564<392.293 559.272> 384.552 46.4482<138.839 212.636>
VStem: 55.1416 78.6055<307.696 379.695> 222.818 30.2031<317.164 368.129> 453.645 44.5226<127.762 240.069> 704 56<81.731 238.251>
LayerCount: 4
Back
Fore
SplineSet
266 295 m 5xb780
 291.868777723 304.341503066 317.103110119 308.102003375 345.043984241 308.102003375 c 4
 428.954738746 308.102003375 498.167706599 248.943565796 498.167706599 168.852729339 c 4
 498.167706599 52.8253283098 398.034743185 -1.12218963832 276.065197429 -1.12218963832 c 4
 150.102540557 -1.12218963832 67.0808080808 40.5852069078 27 124 c 5
 40.7929072222 117.80318661 52.6277304998 115.127928182 63 115.127928182 c 4
 124 115.127928182 130 201 207 278 c 5
 222 293 225.818359375 314.123046875 225.818359375 327 c 4
 225.818359375 365 210 388.551757812 176.461914062 388.551757812 c 4
 147 388.551757812 135 367 133.747070312 345 c 4
 132.665910467 326.016080293 124.893554688 297 93 297 c 4
 69 297 55.1416015625 315 55.1416015625 341 c 4
 55.1416015625 383 89.0173697483 431 154 431 c 4x6f80
 224 431 253.021484375 380 253.021484375 333 c 4
 253.021484375 331.984375 253 322 251 315 c 5
 302 375 400.63630409 432.778158251 505.999705561 432.778158251 c 4
 646 432.778158251 760 335.012578119 760 183 c 4
 760 62.6098238798 687 -1.2212249427 613.000002085 -1.2212249427 c 4
 581 -1.2212249427 555 10 542 21 c 5
 542 52 l 5
 566 30 592.007025006 26.3469673742 609.999998276 26.3469673742 c 4
 661 26.3469673742 704 70.1055097822 704 149 c 4
 704 293 570 370.321757521 448.000003924 370.321757521 c 4
 375 370.321757521 309.728660757 344.88762706 266 295 c 5xb780
338 284 m 4
 160 284 180 144 107 102 c 5
 153.257237239 81.9872621893 205.412698335 72.4533905482 263.508417596 72.4533905482 c 4
 374 72.4533905482 453.645120832 110 453.645120832 189.999995741 c 4
 453.645120832 246 399.033203125 284 338 284 c 4
EndSplineSet
Layer: 2
Layer: 3
EndChar

StartChar: uni0D9B
Encoding: 21 3483 13
Width: 630
VWidth: 1000
Flags: W
HStem: -1 29.7402<104.766 168.093> 0 67<391.61 477.557> 54 62<308.611 369.5> 115.26 29.7402<104.101 167.851> 320 76<145.394 333.047> 576 25<211.047 372.744>
VStem: 32 31<102.523 226.439> 179.26 30.7402<39.4584 104.134> 367 46<173.267 288.495> 546 38<182.817 404.042>
LayerCount: 4
Back
Fore
SplineSet
92.740234375 72 m 4x9fc0
 92.740234375 48.3095703125 112.309570312 28.740234375 136 28.740234375 c 4
 159.690429688 28.740234375 179.259765625 48.3095703125 179.259765625 72 c 4
 179.259765625 95.6904296875 159.690429688 115.259765625 136 115.259765625 c 4
 112.309570312 115.259765625 92.740234375 95.6904296875 92.740234375 72 c 4x9fc0
72 101 m 5
 80 129 108 145 135 145 c 4x1fc0
 180.808201089 145 210 116 210 72 c 4
 210 37 180 -1 141 -1 c 4
 56 -1 32 108 32 183 c 4
 32 322 123.838867188 396 240 396 c 4
 333 396 413 343.14453125 413 258 c 4
 413 201 385 153 346 115 c 5
 349.333333333 115.666666667 352.333333333 116 355 116 c 4xafc0
 384 116 390 67 434 67 c 4
 500 67 546 198 546 301 c 4
 546 467 445 576 294 576 c 4
 205 576 139 542.666992188 97 470 c 5
 64 470 l 5
 108.666666667 553.333333333 186 601 298 601 c 4
 464 601 584 473 584 286 c 4
 584 150 524 0 416 0 c 4x4fc0
 352 0 348 54 321 54 c 260x2fc0
 308 54 282 34 240 -21 c 5
 204 -18 l 5
 217.333007812 -4.6669921875 246.086001436 34.0256170965 288 84 c 4
 340 146 367 194 367 232 c 4
 367 286 328 320 236 320 c 4
 155.867967399 320 63 272 63 156 c 4
 63 144 66 118 72 101 c 5
EndSplineSet
Layer: 2
SplineSet
93.333984375 73 m 4
 93.333984375 49.0869140625 113.086914062 29.333984375 137 29.333984375 c 4
 160.913085938 29.333984375 180.666015625 49.0869140625 180.666015625 73 c 4
 180.666015625 96.9130859375 160.913085938 116.666015625 137 116.666015625 c 4
 113.086914062 116.666015625 93.333984375 96.9130859375 93.333984375 73 c 4
73 106 m 5
 82 132 107 148 137 148 c 4
 179 148 212 120 212 74 c 4
 212 37 182 -1 141 -1 c 4
 56 -1 32 108 32 183 c 4
 32 322 123.838867188 396 240 396 c 4
 333 396 413 343.14453125 413 258 c 4
 413 201 388 172 381 161 c 5
 384.333007812 161.666992188 387.333007812 162 390 162 c 4
 419 162 410 136 444 136 c 4
 504 136 532 215 532 318 c 4
 532 455 445 574 294 574 c 4
 205 574 140 540 99 470 c 5
 64 470 l 5
 108.666666667 553.333333333 186 601 298 601 c 4
 464 601 584 473 584 286 c 4
 584 150 524 0 416 0 c 4
 352 0 348 54 321 54 c 260
 308 54 284 34 242 -21 c 5
 202 -18 l 5
 215.333007812 -4.6669921875 244.0859375 34.025390625 286 84 c 4
 338 146 347 180 347 200 c 4
 347 235 328 275 236 275 c 4
 149 275 70 225 70 140 c 4
 70 128 70 118 73 106 c 5
EndSplineSet
Layer: 3
EndChar

StartChar: uni0DB4
Encoding: 45 3508 14
Width: 616
VWidth: 1000
Flags: W
HStem: 0 71<165.76 441.489> 301.718 25.2104<137.183 244.682 353.184 480.514> 395.274 38.3514<146.88 231.541> 404.638 28.4804<381.892 483.336>
VStem: 31.3314 37.6686<145.617 254.663> 55.3252 83.3285<332.747 389.37> 244.682 30.1876<325.316 378.086> 321.143 32.0411<325 379.229> 505.479 35.54<315.441 386.529> 540 34.0059<151.063 258.063>
LayerCount: 4
Back
Fore
SplineSet
438.844851469 433.118522656 m 4xdb40
 505 433.118522656 541.018818118 392.966132064 541.018818118 354.00000109 c 4xd380
 541.018818118 334 532.547911667 316.666882281 514 303 c 5
 554.33230994 279.472819202 574.005875264 240.742748716 574.005875264 186.451529958 c 4
 574.005875264 55.5619188946 447.644682871 -7.1054273576e-15 307 0 c 4
 158.589562849 0 31.3313942639 45.9203100819 31.3313942639 183.554236057 c 4xdb40
 31.3313942639 274.623686336 99.2296726839 326.928127469 206.999992832 326.928127469 c 4
 220 326.928127469 231.208483236 326.289067581 244 325 c 5
 244.46074454 328.824179686 244.682006201 332.490731105 244.682006201 336.000018199 c 4
 244.682006201 375 219.122578671 395.274253688 188.000000927 395.274253688 c 4
 155.970149562 395.274253688 143.560777761 378.802322884 138.653731877 360.000000482 c 4
 135 346 122.345703125 328.073242188 94 328.073242188 c 4
 75 328.073242188 55.3251953125 340 55.3251953125 365 c 4
 55.3251953125 409 103 433.625654084 158.189212207 433.625654084 c 4xe7
 230.547628845 433.625654084 274.869626667 401 274.869626667 334.000351519 c 4
 274.869626667 322.637138529 273.631835938 311.303710938 271 298 c 5
 253.180664062 300.375976562 218.23046875 301.717773438 217 301.717773438 c 4
 139.720703125 301.717773438 69 275.738098097 69 201 c 4
 69 106.583973361 193 71 307 71 c 4
 413.550560931 71 540 110 540 205 c 4
 540 277.999460492 472 303.612307156 394.000002487 303.612307156 c 4
 370.819078063 303.612307156 346.926878013 301.168523275 324 297 c 5
 322.072237276 307.92398877 321.143157328 318.266754681 321.143157328 327.99999265 c 4
 321.143157328 397 365.956884184 433.118522656 438.844851469 433.118522656 c 4xdb40
489 315 m 5
 500.332281081 325.70270991 505.478854717 338.485512262 505.478854717 350.99999917 c 4
 505.478854717 380 479 404.638085784 432.00000156 404.638085784 c 4
 388.777760128 404.638085784 353.184269997 381 353.184269997 336 c 4
 353.184269997 332.227818093 353.463260313 328.864525744 354 325 c 5
 370.954790497 327.055126121 387.344972512 328.097600692 402.999995377 328.097600692 c 4
 436 328.097600692 464.459880481 323.7643284 489 315 c 5
EndSplineSet
Layer: 2
SplineSet
438.844851469 433.118522656 m 1052
438.844851469 433.118522656 m 1052
438.844851469 433.118522656 m 4,0,1
 505 433.118522656 541.018818118 392.966132064 541.018818118 354.00000109 c 4,0,0
 541.018818118 334 532.547911667 316.666882281 514 303 c 5,2,3
 554.33230994 279.472819202 574.005875264 240.742748716 574.005875264 186.451529958 c 4,4,5
 574.005875264 55.5619188946 447.644682871 -7.1054273576e-15 307 0 c 4,6,7
 158.589562849 0 31.3313942639 45.9203100819 31.3313942639 183.554236057 c 4,8,9
 31.3313942639 274.623686336 99.2296726839 326.928127469 206.999992832 326.928127469 c 4,0,0
 220 326.928127469 229.208007812 326.2890625 242 325 c 5,10,11
 242.4609375 328.82421875 242.681640625 332.491210938 242.681640625 336 c 4,0,0
 242.681640625 376 217 390.274414062 194 390.274414062 c 4,0,0
 166 390.274414062 151.787512786 376.43949242 145.653320312 358 c 4,0,0
 139 338 122 326.073242188 97 326.073242188 c 4,0,0
 76 326.073242188 55.3251953125 337 55.3251953125 367 c 4,0,0
 55.3251953125 408 103 433.625654084 158.189212207 433.625654084 c 4,16,17
 230.547628845 433.625654084 274.869626667 401 274.869626667 334.000351519 c 4,0,0
 274.869626667 322.637138529 273.631835938 309.303710938 271 296 c 5,18,19
 253.180664062 298.375976562 218.23046875 299.717773438 217 299.717773438 c 4,0,0
 144 299.717773438 96 274 96 231 c 4,20,21
 96 158 206 140 307 140 c 4,22,23
 404 140 507 166 507 239 c 4,24,25
 507 276 468 301.612304688 394 301.612304688 c 4,0,0
 370.819335938 301.612304688 346.926757812 299.168945312 324 295 c 5,26,27
 322.072265625 305.923828125 321.143157328 318.266754681 321.143157328 327.99999265 c 4,0,0
 321.143157328 397 365.956884184 433.118522656 438.844851469 433.118522656 c 4,0,1
487 315 m 5,28,29
 498.33203125 325.703125 502.478515625 338.485351562 502.478515625 351 c 4,0,0
 502.478515625 380 479 402.637695312 432 402.637695312 c 4,0,0
 390 402.637695312 355.184570312 381 355.184570312 336 c 4,0,0
 355.184570312 332.227539062 355.462890625 328.864257812 356 325 c 5,32,33
 372.955078125 327.0546875 387.344972512 328.097600692 402.999995377 328.097600692 c 4,0,0
 436 328.097600692 462.459960938 323.764648438 487 315 c 5,28,29
EndSplineSet
Layer: 3
EndChar

StartChar: uni0D9C
Encoding: 22 3484 15
Width: 636
VWidth: 1000
Flags: W
HStem: -2 73<133.001 283.561> -1 25<338 431.819> 217 24<247.281 300.043> 371 60.5<325.466 471.731> 408.45 23.0498<169.773 233>
VStem: 34 35<150.52 304.409> 216 25<192 209.717> 318 34<109.226 204.325> 543 43<120.217 292.903>
LayerCount: 4
Back
Fore
SplineSet
233 408 m 5xaf80
 233 431 l 5
 228.954101562 431.25 223.953128016 431.5 220 431.5 c 4
 109 431.5 34 330 34 207 c 4
 34 96 97 -2 208 -2 c 4xaf80
 295 -2 352 56 352 136 c 4
 352 202 318 241 270 241 c 4
 263.333333333 241 255 240 247 236 c 5
 263 313 316.349609375 371 393 371 c 4
 484 371 543 301 543 200 c 4
 543 100 469 24 362 24 c 4
 354 24 346 25 338 26 c 5
 338 1 l 5
 348.666666667 -0.333333333333 359 -1 369 -1 c 4
 500.052817527 -1 586 95 586 217 c 4
 586 332 522 431.5 410 431.5 c 4x7780
 288 431.5 226.196066844 316.90181884 216 192 c 5
 241 192 l 5
 241 195.333333333 242 204 243 210 c 5
 250 215 259.666666667 217 267 217 c 4
 298.453333284 217 318 196 318 158 c 4
 318 98.6416015625 265 71 206 71 c 4
 117.309455467 71 69 147 69 230 c 4
 69 332 136 408.450195312 222 408.450195312 c 4
 225.310546875 408.450195312 229.64453125 408.284179688 233 408 c 5xaf80
EndSplineSet
Layer: 2
SplineSet
233 405 m 5
 233 431 l 5
 228.954101562 431.25 223.953128016 431.5 220 431.5 c 4
 109 431.5 34 330 34 207 c 4
 34 96 97 -2 208 -2 c 4
 295 -2 352 56 352 136 c 4
 352 202 320 246 270 246 c 4
 263.333007812 246 256 244 250 241 c 5
 257 277 292 320 363 320 c 4
 461 320 498 255 498 175 c 4
 498 110 466 27 362 27 c 4
 354 27 346 28 338 29 c 5
 338 1 l 5
 348.666666667 -0.333333333333 359 -1 369 -1 c 4
 500.052817527 -1 586 95 586 217 c 4
 586 332 522 431.5 410 431.5 c 4
 288 431.5 225 321 216 194 c 5
 244 194 l 5
 244 197.333007812 245 208 246 214 c 5
 251 217 258 220 269 220 c 4
 276 220 294 216 294 191 c 4
 294 164 270 140 211 140 c 4
 142 140 88 186 88 258 c 4
 88 329 138 405.450195312 222 405.450195312 c 4
 225.310546875 405.450195312 229.64453125 405.284179688 233 405 c 5
EndSplineSet
Layer: 3
EndChar

StartChar: uni0D9D
Encoding: 23 3485 16
Width: 677
VWidth: 1000
Flags: W
HStem: -1 72<136.372 244.886 417.471 546.621> 171 29<293.104 369.252> 276 32<5 143.684> 283 25<5.77848 281 382 443.783> 291 25<382.511 523.194> 393 39<166.151 257.965 411.245 528.279>
VStem: 51 38<119.848 227.584> 242 30<74.1548 149.615> 281.086 32.0605<308 364.157> 391 29<76.5521 149.082> 540 39<306.344 379.751> 593 35<121.66 234.924>
LayerCount: 4
Back
Fore
SplineSet
452 71 m 4
 521 71 593 108.442151114 593 178 c 4
 593 248 541 291 448 291 c 4xcff0
 412 291 386 289 353 282 c 5
 352.814453125 285.706054688 352.717070236 287.374324769 352.717070236 290.99999647 c 4
 352.717070236 375 400.57421875 432 476 432 c 4
 530 432 579 408 579 350 c 4
 579 328.666992188 565 306 550 297 c 5
 597.333333333 273.666666667 628 221.08203125 628 166 c 4
 628 58 556.928710938 -1 465 -1 c 4
 446.333007812 -1 418 2 387 11 c 5
 384 17 383 27.6669921875 383 35 c 260
 383 69 392 71 392 106 c 4
 392 153 358 171 332 171 c 4
 306 171 272 153 272 106 c 4
 272 71 281 69 281 35 c 260
 281 27.6669921875 280 17 277 11 c 5
 246 2 217.666666667 -1 199 -1 c 4
 108.173759358 -1 51 76 51 154 c 4
 51 226 92 269 144 285 c 5
 177.760742188 297.19921875 231.875 308 269 308 c 6
 281 308 l 5
 281.08203125 310.041015625 281.0859375 310.041015625 281.0859375 312 c 4
 281.0859375 360 249 395 212 395 c 4
 173 395 162 371 156.5 355 c 4
 149.951171875 335.948242188 139.87109375 323 118 323 c 4
 102 323 82 333.368164062 82 359 c 4
 82 406 132 431.5 187 431.5 c 4
 275 431.5 313.146484375 369 313.146484375 296 c 4
 313.146484375 292.721679688 313.100585938 286.387695312 313 283 c 5
 216 283 l 6xd7f0
 163 283 89 248 89 175 c 4
 89 116.176395544 142 71 212 71 c 4
 228 71 241.666992188 72.6669921875 245 76 c 5
 243 86 242 98 242 106 c 4
 242 180 295 200 332 200 c 4
 369 200 422 180 422 106 c 4
 422 98 421 86 419 76 c 5
 422.333007812 72.6669921875 436 71 452 71 c 4
147 283 m 6xd7f0
 76 282 21 278.666992188 5 276 c 5
 5 308 l 5xe7f0
 279 308 l 5
 309 283 l 5
 147 283 l 6xd7f0
382 310 m 5
 395 314 419 316 445 316 c 4xcff0
 479 316 511.998046875 310.734375 525 306 c 5
 537 319 540 334 540 346 c 260
 540 379 506.477539062 393 470 393 c 4
 418 393 386.666666667 364.666666667 382 310 c 5
EndSplineSet
Layer: 2
SplineSet
224 280 m 6
 164 280 112 245 112 201 c 4
 112 157 152 138 193 138 c 4
 211 138 233 140 240 146 c 5
 241 153 241.244968215 159.182471262 243.574758027 167.9999928 c 4
 254.551624215 209.543978242 289.609881952 232 332 232 c 4
 373.967786676 232 407.467808359 211.807637325 418.831859094 173.000012663 c 4
 421.548385036 163.723222056 423 156 423 149 c 5
 431 142 450.705078125 138 482 138 c 4
 526 138 569 164 569 214 c 4
 569 251 535 288 448 288 c 4
 412 288 386 286 353 279 c 5
 352.814453125 282.706054688 352.717070236 287.374324769 352.717070236 290.99999647 c 4
 352.717070236 375 400 432 478 432 c 4
 532 432 579 405 579 351 c 4
 579 329.666992188 569 308 550 297 c 5
 597.333333333 273.666666667 628 221.08203125 628 166 c 4
 628 58 555.929102634 0 464 0 c 4
 440 0 411.666992188 4 381 12 c 5
 378 16 377 40.3330078125 377 47 c 4
 377 84 392 95 392 134 c 4
 392 171 376 200 332 200 c 4
 288 200 271 177 271 134 c 132
 271 96 282 95 282 47 c 260
 282 39.6669921875 281 17 278 11 c 5
 247 2 217.666666667 -1 199 -1 c 4
 108.173759358 -1 51 76 51 154 c 4
 51 226 92 267 144 283 c 5
 177.760742188 295.19921875 232 308 269 308 c 6
 278 308 l 5
 278.08203125 310.041015625 278.0859375 310.041015625 278.0859375 312 c 4
 278.0859375 355 250 387 213 387 c 132
 190 387 175.573242188 374.8046875 168.5 355 c 132
 161 334 147 320 121 320 c 4
 98 320 82 333.368164062 82 359 c 4
 82 406 132 431.5 187 431.5 c 4
 275 431.5 313.146484375 369 313.146484375 293 c 4
 313.146484375 289.721679688 313.100585938 283.387695312 313 280 c 5
 224 280 l 6
147 280 m 6
 76 279 21 275.666992188 5 273 c 5
 5 308 l 5
 276 308 l 5
 309 280 l 5
 147 280 l 6
385 310 m 5
 398 314 419 316 445 316 c 4
 479 316 507 312 521 307 c 5
 530 314 537 326 537 344 c 260
 537 376 500 390 471 390 c 4
 419 390 389.666992188 364.666992188 385 310 c 5
EndSplineSet
Layer: 3
EndChar

StartChar: uni0DA2
Encoding: 28 3490 17
Width: 598
VWidth: 1000
Flags: HW
HStem: 0 71<149.45 433.664> 289 22<150.212 236.589 323.798 432.118> 391 41<144.207 224.986> 406 28<405.232 472.598>
VStem: 33 37<135.01 237.733> 237 29<311.179 373.541> 293 30<309.328 378.087> 359 29<323.775 392.145> 489 31<321.26 389.97> 514 35<134.382 236.345>
LayerCount: 4
Back
Fore
SplineSet
415 407 m 4
 344 407 323 374 323 334 c 4
 323 326.666666667 324 318.333333333 326 309 c 5
 334 310 343 311 356 311 c 4
 447 311 549 283 549 168 c 4
 549 45 423.685369974 0 298 0 c 4
 160.148102377 0 33 44 33 170 c 4
 33 249.202148438 96 312 208 312 c 4
 226.110770276 312 227 312 235 311 c 5
 236.333333333 317.666666667 237 324.333333333 237 331 c 4
 237 362 220 391 183 391 c 4
 160.990234375 391 144.896484375 378.047851562 138 363 c 4
 127 339 118.029296875 322 91 322 c 4
 72 322 55 335.666992188 55 361 c 4
 55 409.774414062 106.897999968 432 154 432 c 4
 220.892617187 432 266 393.392270225 266 326 c 4
 266 314 264.666666667 301.333333333 262 288 c 5xefa0
 250 289 238 290 229 290 c 4
 110 290 70 233 70 186 c 4
 70 97 189.23046875 71 292 71 c 4
 398 71 514 97 514 186 c 4xefa0
 514 237 470 289 355 289 c 4
 333 289 314 286 300 285 c 5
 295.333333333 301 293 316.333333333 293 331 c 4
 293 409 350 434 419 434 c 4
 460 434 520 412 520 353 c 4xdfc0
 520 324.446289062 503 285 438 285 c 4
 384 285 363 332 363 375 c 4
 363 462 412.06640625 530.62890625 456 571 c 4
 493 605 524 617 544 617 c 4
 560 617 568 606 568 596 c 4
 568 569 498 561 449 511 c 4
 426.342773438 487.880859375 391 444 391 374 c 4
 391 339 407 311 440 311 c 4
 469 311 489 328.515699661 489 355 c 260
 489 387.990914009 459 407 415 407 c 4
EndSplineSet
Layer: 2
Layer: 3
EndChar

StartChar: uni0DA1
Encoding: 27 3489 18
Width: 598
VWidth: 1000
Flags: W
HStem: 0 71<152.089 433.664> 160 27<378.963 449.977> 290 22<150.212 236.67 314 432.469> 391 41<144.207 224.986> 410 25<374.18 463.693> 597 20G<531 552>
VStem: 33 37<135.01 237.733> 237 29<311.179 373.541> 287 27<310.11 374.515> 330.515 28.0029<207.45 359.883> 503 28<247.291 374.712> 514 35<134.382 236.008>
LayerCount: 4
Back
Fore
SplineSet
473 291 m 0xefe0
 516.536132812 270.959960938 549 228 549 168 c 0
 549 45 423.685369974 0 298 0 c 0
 160.148102377 0 33 44 33 170 c 0
 33 249.202148438 96 312 208 312 c 0
 212.687824287 312 222.031734411 311.804530396 227 311.25 c 1
 228.333007812 317.916992188 229 324.333007812 229 331 c 0
 229 362 214 391 177 391 c 0
 154.990234375 391 143.896484375 378.047851562 137 363 c 0
 126 339 118.029296875 322 91 322 c 0
 72 322 53 334.666992188 53 360 c 0
 53 408.774414062 100.8984375 432 148 432 c 0
 214.892578125 432 258 393.392578125 258 326 c 0
 258 314 256.666992188 301.333007812 254 288 c 5
 247.47129019 289.195069551 238 290 229 290 c 0
 110 290 70 233 70 186 c 0
 70 97 189.23046875 71 292 71 c 0
 398 71 514 97 514 186 c 0xf7d0
 514 239 470 289 355 289 c 0
 333 289 298 286 284 285 c 1
 282 292 279 308 279 319 c 0
 279 401 336 435 406 435 c 0
 478 435 532 392 532 297 c 0
 532 240 506 160 433 160 c 0
 373 160 348.514648438 223 348.514648438 293 c 0
 348.514648438 396.658203125 389.831054688 495.583984375 430 545.5 c 0
 462.834960938 586.301757812 505.044921875 617 541.75 617 c 0
 557.75 617 568 606 568 596 c 0
 568 555.893710905 519.950979925 589.361178467 451.75 516 c 0
 411.392136061 472.588593562 376.517578125 391 376.517578125 292 c 0
 376.517578125 245 388 187 435 187 c 0
 478 187 504 244 504 295 c 0
 504 378 464 410 402 410 c 0
 358 410 306 389 306 324 c 0
 306 319 306 314 307 310 c 1
 314 311 334 312.319335938 350 312.319335938 c 0
 388 312.319335938 433.868164062 309.013671875 473 291 c 0xefe0
EndSplineSet
Layer: 2
Layer: 3
EndChar

StartChar: uni0DAA
Encoding: 36 3498 19
Width: 647
VWidth: 1000
Flags: W
HStem: 0 71<124.979 272.289 351.147 494.626> 288 27<15 125 153.105 258> 363 30<375.549 464.092> 391.268 40.8994<153.839 234.617>
VStem: 45.8805 37.511<116.693 232.546> 299 27<106.668 178> 318 29<423.929 545.374> 561.144 36.8438<156.816 352.394>
LayerCount: 4
Back
Fore
SplineSet
359 603 m 1xeb
 473 558 597.987304688 407 597.987304688 249.221679688 c 0
 597.987304688 123 553.344729094 0 426 0 c 0
 364 0 334.630436238 28.5207489381 313 59 c 1
 283.406198924 21.686076905 250 0 199 0 c 0
 97.9838045205 0 45.8804869702 81.1902905721 45.8804869702 161.999997835 c 0
 45.8804869702 212 71.0486818679 264.197947883 125 288 c 1
 15 288 l 1
 15 315 l 1
 258 315 l 1
 255.1640625 357.533203125 225 391.267578125 195 391.267578125 c 0xdb
 177.364257812 391.267578125 162.118164062 387.385742188 148 363 c 0xeb
 137 344 123.646484375 339.263671875 110 339.263671875 c 0
 90 339.263671875 73.2109375 353 73.2109375 374.122070312 c 0
 73.2109375 414 120.100585938 432.166992188 162.279296875 432.166992188 c 0
 246.407226562 432.166992188 290.626953125 373.979492188 292 288 c 1
 220 288 l 2
 126.957367049 288 83.3915037787 230 83.3915037787 174.000001556 c 0
 83.3915037787 121.64183372 123.262203778 71 198 71 c 0
 247.046364159 71 299 95.1647551294 299 143 c 2
 299 178 l 1
 326 178 l 1
 326 143 l 2xdd
 326 97.0862774658 373.775105866 71 424 71 c 0
 520.489182971 71 561.143554688 159 561.143554688 263.217773438 c 0
 561.143554688 323.443906398 541.893936181 378.101185861 514.781311907 424.172354314 c 1
 498.322078305 395.420690655 470.675857802 363.000000112 422 363 c 0
 356 363 318 411 318 477 c 0
 318 541 348 586 359 603 c 1xeb
497.29199099 451.286521432 m 1
 456.522516153 509.25509357 405.419747342 550.055861963 373 566 c 1
 361 552 347 515.234375 347 481 c 0
 347 422.5 376 393 424 393 c 0xeb
 460.039107667 393 484.713564121 424.252790834 497.29199099 451.286521432 c 1
EndSplineSet
Layer: 2
SplineSet
537.143554688 293.217773438 m 0
 537.143554688 200 489 140 414 140 c 0
 353 140 328 164 328 200 c 2
 328 221 l 1
 297 221 l 1
 297 200 l 2
 297 161 267 140 203 140 c 0
 149.990234375 140 109.391601562 164 109.391601562 210 c 0
 109.391601562 234 130.95703125 285 224 285 c 2
 293 285 l 1
 293 382 242 432.166992188 163.279296875 432.166992188 c 0
 121.100585938 432.166992188 73.2109375 413 73.2109375 373.122070312 c 0
 73.2109375 351 89 335.263671875 113 335.263671875 c 0
 129 335.263671875 144 342 154 360 c 0
 169.203125 387.365234375 188 388.267578125 197 388.267578125 c 0
 229 388.267578125 255 354 256 315 c 1
 15 315 l 1
 15 285 l 1
 125 285 l 1
 71.048828125 261.198242188 45.8804869702 212 45.8804869702 161.999997835 c 0
 45.8804869702 81.1902905721 97.9838045205 0 199 0 c 0
 250 0 283.406198924 21.686076905 313 59 c 1
 334.630436238 28.5207489381 363.027670828 -0.0251311659364 427.655553183 -0.0251311659364 c 0
 547.007371766 -0.0251311659364 597.987304688 110 597.987304688 256.221679688 c 0
 597.987304688 402 473 558 359 603 c 1
 348 586 318 541 318 477 c 0
 318 411 356 363 422 363 c 0
 464.798528494 363 491.339240053 388.06413444 508.312621615 413.660617889 c 1
 525.755101251 377.126501552 537.143554688 336.219195791 537.143554688 293.217773438 c 0
491.289546094 445.027555455 m 5
 477.872955309 420.14279595 454.905156443 396.000000003 424 396 c 0
 378 396 350 424 350 481 c 0
 350 510 361 547 374 562 c 1
 408.575753914 544.995530862 456.370107738 502.288664331 491.289546094 445.027555455 c 5
EndSplineSet
Layer: 3
EndChar

StartChar: uni0DAB
Encoding: 37 3499 20
Width: 963
VWidth: 1000
Flags: W
HStem: -0.787109 34.7871<750.671 828.651> 0 73<263.85 454.929> 36.4297 31.0986<607.676 683.906> 156 37.2305<280.606 381.066> 163.396 18.6035<307.827 405> 181 27<115 131.172> 256.472 29.0986<609.444 684.828> 309 38.7871<760.549 827.91> 408 25<285.843 436.361> 470 57<719.343 861.77>
VStem: 170 29<257.186 338.603> 267.396 28.834<215.713 292.271> 417.77 28.834<215.713 292.271> 548.841 28.5488<107.031 305.895> 710.61 23.3896<103.456 221.334> 852 63.3633<56.1119 287.247>
LayerCount: 4
Back
Fore
SplineSet
350 73 m 4x47ff
 456.877214768 73 549 133 549 237 c 4
 549 330 481.552734375 408 357 408 c 4
 269.047851562 408 199 360 199 288 c 4
 199 213 264 182 322 182 c 5x4bff
 405 178 l 5
 384 164 362 156 321 156 c 4x13ff
 232 156 170 207.99333363 170 283 c 4
 170 382 258.142578125 433 359 433 c 4
 440 433 584 390 584 213 c 4
 584 114 520 0 365 0 c 4
 167 0 180 181 99 181 c 4
 71 181 54 168 33 154 c 5
 22 178 l 5
 213 306 426.094726562 401.813476562 653 483 c 4
 725.666992188 509 796 527 828 527 c 4
 851.333333333 527 863 518 863 500 c 4
 863 484.666666667 851.333333333 474.666666667 828 470 c 4
 798.666666667 465.333333333 750.516558006 455.372144137 683 443 c 4
 492 408 278 301 115 208 c 5
 176 208 194 73 350 73 c 4x47ff
267.396484375 253 m 4
 267.396484375 302.172851562 307.827148438 342.603515625 357 342.603515625 c 4
 406.172851562 342.603515625 446.603515625 302.172851562 446.603515625 253 c 4
 446.603515625 203.827148438 406.172851562 163.396484375 357 163.396484375 c 4
 307.827148438 163.396484375 267.396484375 203.827148438 267.396484375 253 c 4
296.23046875 254 m 4
 296.23046875 220.009765625 323.009765625 193.23046875 357 193.23046875 c 4x13ff
 390.990234375 193.23046875 417.76953125 220.009765625 417.76953125 254 c 4
 417.76953125 287.990234375 390.990234375 314.76953125 357 314.76953125 c 4
 323.009765625 314.76953125 296.23046875 287.990234375 296.23046875 254 c 4
548.840820312 161 m 4
 548.840820312 229.840820312 591.45703125 285.5703125 645 285.5703125 c 4
 678.264852937 285.5703125 702.666611286 273.635200218 718.564707547 251.392238845 c 5
 723.035031048 300.342165552 754.134390615 347.787109366 815 347.787109375 c 4
 881 347.787109375 915.36328125 264.7578125 915.36328125 168 c 4
 915.36328125 73 883 -0.787109375 800 -0.787109375 c 4
 748.10533203 -0.787109375 718.595375908 33.0143837606 713.721124729 67.7436353538 c 5
 697.390407373 47.7453010704 674.144597409 36.4296875 645 36.4296875 c 4xa3ff
 591.45703125 36.4296875 548.840820312 92.1591796875 548.840820312 161 c 4
577.389648438 162 m 4
 577.389648438 109.791992188 606.911132812 67.5283203125 644 67.5283203125 c 4
 686.255859375 67.5283203125 710.610351562 105.122070312 710.610351562 162 c 4
 710.610351562 221.91015625 689.026367188 256.471679688 644 256.471679688 c 4
 606.911132812 256.471679688 577.389648438 214.208007812 577.389648438 162 c 4
737.827713757 201.985301446 m 4
 740.054656677 189.562558877 741.159179567 175.873783075 741.159179688 161 c 4
 741.159179688 141.248416123 738.720694837 123.260522647 734.013925874 107.477250439 c 4
 734.004768711 106.655105922 734.000000004 105.829548258 734 105 c 4
 734 44 769 34 792 34 c 4
 843 34 852 95 852 169 c 4
 852 245 836 309 799 309 c 4
 755.595314955 309 741.163589292 262.643264987 737.827713757 201.985301446 c 4
EndSplineSet
Layer: 2
SplineSet
350 73 m 0
 456.877214768 73 549 133 549 237 c 0
 549 296.397968631 521.486766378 349.677105008 469.154698302 380.423709494 c 1
 437.294895766 368.194375267 405.536091742 354.909634221 374.186845519 340.928082814 c 1
 415.2517917 332.823468364 446.60351578 296.301273318 446.603515625 253 c 0
 446.603515625 217.718064406 425.789067895 186.936767348 395.865468676 172.361403248 c 0
 377.310680435 161.873156038 356.12971126 156.000001225 321 156 c 0
 249.143249026 156 194.886750777 189.892437478 176.650977246 242.425161154 c 1
 155.43408199 230.846085964 134.839280275 219.319343961 115 208 c 1
 176 208 194 73 350 73 c 0
296.23046875 254 m 0
 296.23046875 220.009765625 323.009765625 193.23046875 357 193.23046875 c 0
 390.990234375 193.23046875 417.76953125 220.009765625 417.76953125 254 c 0
 417.76953125 287.990234375 390.990234375 314.76953125 357 314.76953125 c 0
 323.009765625 314.76953125 296.23046875 287.990234375 296.23046875 254 c 0
464.749714348 410.528865231 m 1
 526.280894209 436.107739773 589.092683894 460.134013951 653 483 c 0
 725.666992188 509 796 527 828 527 c 0
 851.333333333 527 863 518 863 500 c 0
 863 484.666666667 851.333333333 474.666666667 828 470 c 0
 784.788471875 463.125438707 656.450736118 439.634397266 595.000009212 422.471822382 c 0
 563.152635179 413.577168579 530.99439971 403.129248914 498.841474835 391.495506555 c 1
 538.684074828 364.18190581 571.524259533 320.844888048 581.14253069 254.354142431 c 1
 598.062239741 273.783060346 620.375569675 285.570312496 645 285.5703125 c 0
 678.23261322 285.5703125 702.61930344 273.658323614 718.51845908 251.456882252 c 1
 722.611564195 300.383927548 751.161184096 347.787109386 812 347.787109375 c 0
 882 347.787109375 915.36328125 264.7578125 915.36328125 168 c 0
 915.36328125 73 883 -0.787109375 800 -0.787109375 c 0
 748.10533203 -0.787109375 718.595375908 33.0143837606 713.721124729 67.7436353538 c 1
 697.390407373 47.7453010704 674.144597409 36.4296875 645 36.4296875 c 0
 606.510462726 36.4296875 573.667327548 65.2279025706 558.242193809 106.993073331 c 1
 526.628783301 47.0744461114 464.602876721 -1.42108547152e-14 365 0 c 0
 167 0 180 181 99 181 c 0
 71 181 54 168 33 154 c 1
 22 178 l 1
 70.2144791566 210.31127399 119.836874675 240.571563875 170.733932066 269.063322676 c 1
 170.247588132 273.612105885 170 278.260102716 170 283 c 0
 170 382 258.142578125 433 359 433 c 0
 389.09261823 433 427.880654436 427.065032176 464.749714348 410.528865231 c 1
199.043507313 284.659410069 m 1
 274.264559476 325.443628363 352.166703935 362.546582651 432.331389491 396.855455429 c 1
 410.194867009 404.045418618 385.045050322 408 357 408 c 0
 269.047851562 408 199 360 199 288 c 0
 199 286.876612946 199.014583093 285.763097524 199.043507313 284.659410069 c 1
203.255975816 256.791943387 m 1
 216.424667291 211.751637636 258.193148297 188.946751142 300.849438707 183.373731944 c 1
 280.495361183 199.8543775 267.396484374 225.011025547 267.396484375 253 c 0
 267.396484375 268.359288231 271.341077989 282.865650154 278.26457327 295.553394894 c 1
 252.673787175 282.793607875 227.60813437 269.800155004 203.255975816 256.791943387 c 1
644 67.5283203125 m 0
 686.255859375 67.5283203125 710.610351562 105.122070312 710.610351562 162 c 0
 710.610351562 221.91015625 689.026367188 256.471679688 644 256.471679688 c 0
 617.222257929 256.471679688 594.389147688 234.440994915 583.763080885 202.542986023 c 1
 583.097026904 187.818046015 581.019763339 172.865394359 577.44480912 158.09821855 c 0
 578.872495242 107.702389959 607.839629641 67.5283203132 644 67.5283203125 c 0
737.827713757 201.985301446 m 0
 740.054656677 189.562558877 741.159179567 175.873783075 741.159179688 161 c 0
 741.159179688 141.248416123 738.720694837 123.260522647 734.013925874 107.477250439 c 0
 734.004768711 106.655105922 734.000000004 105.829548258 734 105 c 0
 734 44 769 34 792 34 c 0
 843 34 852 95 852 169 c 0
 852 245 836 309 799 309 c 0
 755.595314955 309 741.163589292 262.643264987 737.827713757 201.985301446 c 0
EndSplineSet
Layer: 3
EndChar

StartChar: uni0DAC
Encoding: 38 3500 21
Width: 731
VWidth: 1000
Flags: W
HStem: 0 71<211.979 359.289 438.877 579.381> 288 27<102 212 240.105 348> 391.268 41.7324<185.865 308.216> 427 6<272 291.968> 556.09 25.9307<302.136 468.468>
VStem: 27 29<126.656 304.889> 132.881 37.5107<116.693 232.546> 386 27<106.668 178> 649.144 35.8438<167.396 374.341>
LayerCount: 4
Back
Fore
SplineSet
163.2109375 374.122070312 m 0xef80
 163.2109375 414 210.100585938 432.166992188 252.279296875 432.166992188 c 0
 336.407226562 432.166992188 380.626953125 373.979492188 382 288 c 1
 307 288 l 2
 213.95703125 288 170.391601562 230 170.391601562 174 c 0
 170.391601562 121.641601562 210.26171875 71 285 71 c 0
 334.045898438 71 386 95.1650390625 386 143 c 2
 386 178 l 1
 413 178 l 1
 413 143 l 2
 413 97.0859375 460.775390625 71 511 71 c 0
 607.489257812 71 649.143554688 167.485351562 649.143554688 273.217773438 c 0
 649.143554688 428 543 556.08984375 385.46484375 556.08984375 c 0
 304.965820312 556.08984375 240.203125 524.90234375 193 468 c 1
 160 468 l 1
 214.2578125 545.93359375 296.737304688 582.020507812 391.119140625 582.020507812 c 0
 565.635742188 582.020507812 684.987304688 444 684.987304688 258.221679688 c 0
 684.987304688 126.286132812 634.0078125 -0.025390625 514.655273438 -0.025390625 c 0
 450.02734375 -0.025390625 421.630859375 28.5205078125 400 59 c 1
 370.40625 21.6865234375 337 0 286 0 c 0
 184.983398438 0 132.880859375 81.1904296875 132.880859375 162 c 0
 132.880859375 212 158.048828125 264.198242188 212 288 c 1
 102 288 l 1
 102 315 l 1
 348 315 l 1
 345.1640625 357.533203125 315 391.267578125 285 391.267578125 c 0
 267.364257812 391.267578125 252.118164062 387.385742188 238 363 c 0
 227 344 213.646484375 339.263671875 200 339.263671875 c 0
 180 339.263671875 163.2109375 353 163.2109375 374.122070312 c 0xef80
293 427 m 1xdf80
 272 416 194 406 177 400 c 1
 102 382 56 319.267578125 56 218 c 0
 56 137.333007812 83 75.3330078125 135 30 c 1
 135 0 l 1
 68.5828449348 33.2085775326 27 120.069879655 27 221 c 0
 27 352.699751668 99.7561968728 433 239 433 c 0xef80
 248 433 271 433 293 427 c 1xdf80
EndSplineSet
Layer: 2
SplineSet
160.2109375 373.122070312 m 0
 160.2109375 413 208.100585938 432.166992188 250.279296875 432.166992188 c 0
 329 432.166992188 382 384 382 285 c 1
 311 285 l 2
 217.95703125 285 196.391601562 234 196.391601562 210 c 0
 196.391601562 164 243.990234375 140 297 140 c 0
 357 140 384 161 384 200 c 2
 384 221 l 1
 415 221 l 1
 415 200 l 2
 415 164 440 140 501 140 c 0
 576 140 626.143554688 200 626.143554688 293.217773438 c 0
 626.143554688 422 547 555.08984375 385.46484375 555.08984375 c 0
 304.965820312 555.08984375 241 522 196 468 c 1
 160 468 l 1
 214.2578125 545.93359375 296.737304688 582.020507812 391.119140625 582.020507812 c 0
 565.635742188 582.020507812 684.987304688 444 684.987304688 258.221679688 c 0
 684.987304688 110 634.0078125 -0.025390625 514.655273438 -0.025390625 c 0
 450.02734375 -0.025390625 421.630859375 28.5205078125 400 59 c 1
 370.40625 21.6865234375 337 0 286 0 c 0
 184.983398438 0 132.880859375 81.1904296875 132.880859375 162 c 0
 132.880859375 212 158.048828125 261.198242188 212 285 c 1
 102 285 l 1
 102 315 l 1
 345 315 l 1
 343 350 318 388.267578125 284 388.267578125 c 0
 275 388.267578125 256.203125 387.365234375 241 360 c 0
 231 342 216 335.263671875 200 335.263671875 c 0
 176 335.263671875 160.2109375 351 160.2109375 373.122070312 c 0
293 427 m 1
 272 416 195 404 178 398 c 1
 106 381 59 319.267578125 59 218 c 0
 59 137.333007812 86 78 135 34 c 1
 135 0 l 1
 68.5828449348 33.2085775326 27 120.069879655 27 221 c 0
 27 352.699751668 99.7561968728 433 239 433 c 0
 248 433 271 433 293 427 c 1
EndSplineSet
Layer: 3
EndChar

StartChar: uni0DAD
Encoding: 39 3501 22
Width: 704
VWidth: 1000
Flags: HW
HStem: -2 75<176.123 361.223> -1 28<462.421 560.049> 79 30<71.3822 121.869> 296 24<206.622 344.934> 379 56<300.28 471.687> 388 45<121.608 176.223>
VStem: 22 22<19.7869 44.8699> 37 82<300.781 385.262> 178.96 27.1396<348.181 383.386> 417 42<124.155 245.189> 610 54<81.3438 243.694>
LayerCount: 4
Back
Fore
SplineSet
159 306 m 1
 167 315 178.960354973 330 178.960354973 348.999999236 c 0
 178.960354973 371 169.701300131 388 151 388 c 0
 134.319335938 388 119.702084404 376.211489924 119 355.5 c 128
 118 326 111 295 76 295 c 0
 50.4970703125 295 37 316.58246164 37 342 c 0
 37 392 78 433 127 433 c 0
 177.34375 433 206.099609375 399 206.099609375 356 c 0
 206.099609375 351 206 352 205 347 c 1
 271 420 359 435 423 435 c 0
 562 435 664 334 664 185 c 0
 664 85.001953125 613 -1 521 -1 c 0
 494 -1 472 5 455 14 c 1
 455 44 l 1
 468 36 490 27 511 27 c 0
 578 27 610 85.4251099599 610 151 c 0
 610 271.552627534 508.436980455 379 367 379 c 0
 296.333333333 379 241 354.666666667 201 306 c 1
 222.333333333 315.333333333 249 320 281 320 c 0
 382 320 459 268 459 162 c 0
 459 70 392 -2 282 -2 c 0
 134 -2 140 79 89 79 c 0
 65 79 52.6666666667 53 44 9 c 1
 22 25 l 1
 35 130 103 242 159 306 c 1
157 260 m 1
 125.500976562 221.500976562 92 165 71 100 c 1
 80 107 91.6666666667 109 103 109 c 0
 140 109 176 73 254 73 c 0
 340.858332255 73 417 103.291024103 417 188 c 0
 417 259.56850938 350 296 283 296 c 0
 233.648986133 296 188 284 157 260 c 1
EndSplineSet
Layer: 2
Layer: 3
EndChar

StartChar: uni0DA9
Encoding: 35 3497 23
Width: 647
VWidth: 1000
Flags: W
HStem: 0 71<124.979 272.289 351.877 492.381> 288 27<153.105 220> 391.268 40.8998<156.839 237.617> 556.09 25.9301<215.136 381.468>
VStem: 45.8805 37.511<116.693 232.546> 299 27<106.668 143> 562.143 35.8443<167.396 374.342>
LayerCount: 4
Back
Fore
SplineSet
76.2109375 374.122070312 m 0
 76.2109375 353 93 339.263671875 113 339.263671875 c 0
 126.646484375 339.263671875 140 344 151 363 c 0
 165.118202841 387.385986725 180.364257812 391.267578125 198 391.267578125 c 0
 228 391.267578125 258.164478188 357.532827182 261 315 c 1
 15 315 l 1
 15 288 l 1
 125 288 l 1
 71.0486818679 264.197947883 45.8804869702 212 45.8804869702 161.999997835 c 0
 45.8804869702 81.1902905721 97.9838045205 0 199 0 c 0
 250 0 283.406198924 21.686076905 313 59 c 1
 334.630436238 28.5207489381 363.027670828 -0.0251311659364 427.655553183 -0.0251311659364 c 0
 547.007371766 -0.0251311659364 597.987383913 126.285711076 597.987383913 258.221926564 c 0
 597.987383913 444 478.635692634 582.020255488 304.118964686 582.020255488 c 0
 209.737496069 582.020255488 127.257569341 545.9335996 73 468 c 1
 106 468 l 1
 153.202703235 524.901888832 217.965924033 556.09016266 298.464776119 556.09016266 c 0
 456 556.09016266 562.143099583 428 562.143099583 273.218225728 c 0
 562.143099583 167.485004935 520.489182971 71 424 71 c 0
 373.775105866 71 326 97.0862774658 326 143 c 2
 326 178 l 1
 299 178 l 1
 299 143 l 2
 299 95.1647551294 247.046364159 71 198 71 c 0
 123.262203778 71 83.3915037787 121.64183372 83.3915037787 174.000001556 c 0
 83.3915037787 230 126.957367049 288 220 288 c 2
 295 288 l 1
 293.626701618 373.979249619 249.407348514 432.167358968 165.27885421 432.167358968 c 0
 123.100792732 432.167358968 76.2109375 414 76.2109375 374.122070312 c 0
EndSplineSet
Layer: 2
SplineSet
73.2109375 373.122070312 m 0
 73.2109375 413 121.100585938 432.166992188 163.279296875 432.166992188 c 0
 242 432.166992188 295 384 295 285 c 1
 224 285 l 2
 130.95703125 285 109.391601562 234 109.391601562 210 c 0
 109.391601562 164 156.990234375 140 210 140 c 0
 270 140 297 161 297 200 c 2
 297 221 l 1
 328 221 l 1
 328 200 l 2
 328 164 353 140 414 140 c 0
 489 140 539.143554688 200 539.143554688 293.217773438 c 0
 539.143554688 422 460 555.08984375 298.46484375 555.08984375 c 0
 217.965820312 555.08984375 154 522 109 468 c 1
 73 468 l 1
 127.257569341 545.9335996 209.737496069 582.020255488 304.118964686 582.020255488 c 0
 478.635692634 582.020255488 597.987304688 444 597.987304688 258.221679688 c 0
 597.987304688 110 547.007371766 -0.0251311659364 427.655553183 -0.0251311659364 c 0
 363.027670828 -0.0251311659364 334.630436238 28.5207489381 313 59 c 1
 283.406198924 21.686076905 250 0 199 0 c 0
 97.9838045205 0 45.8804869702 81.1902905721 45.8804869702 161.999997835 c 0
 45.8804869702 212 71.048828125 261.198242188 125 285 c 1
 15 285 l 1
 15 315 l 1
 258 315 l 1
 256 350 231 388.267578125 197 388.267578125 c 0
 188 388.267578125 169.203125 387.365234375 154 360 c 0
 144 342 129 335.263671875 113 335.263671875 c 0
 89 335.263671875 73.2109375 351 73.2109375 373.122070312 c 0
EndSplineSet
Layer: 3
EndChar

StartChar: uni0DAE
Encoding: 40 3502 24
Width: 614
VWidth: 1000
Flags: W
HStem: -1 72<181.432 409.053> 367 36<360.075 458.162> 405 25<179.36 245>
VStem: 33 34<170.29 307.22> 305 30<432.683 557.228> 531 35<196.503 365.864>
LayerCount: 4
Back
Fore
SplineSet
531 281 m 4
 531 337.666992188 514 388 493 420 c 5
 478.333007812 387.333007812 448 367 405 367 c 4
 341.844726562 367 305 422 305 488 c 4
 305 538 320 574 347 605 c 5
 408 572 478.964640054 500.242069569 515 438 c 4
 553.783203125 371.01171875 566 322 566 252 c 4
 566 102.630859375 450 -1 295 -1 c 4
 150.697265625 -1 33 92.060546875 33 235 c 4
 33 344.829101562 134 430 245 430 c 5
 245 405 l 5
 148 405 67 335.844726562 67 242 c 4
 67 122 172.859375 71 305 71 c 4
 433 71 531 154.362304688 531 281 c 4
474 448 m 5
 444 494 394 540 356 568 c 5
 344 550 335 526.666992188 335 492 c 4
 335 442.666992188 355 403 412 403 c 4
 436 403 463.763671875 414.140625 474 448 c 5
EndSplineSet
Layer: 2
SplineSet
514 317 m 4
 514 351 509 380 492 417 c 5
 477.333007812 384.333007812 448 367 405 367 c 4
 341.844726562 367 305 422 305 488 c 4
 305 538 320 574 347 605 c 5
 408 572 478.964640054 500.242069569 515 438 c 4
 553.783203125 371.01171875 566 322 566 252 c 4
 566 102.630859375 450 -1 295 -1 c 4
 150.697265625 -1 33 92.060546875 33 235 c 4
 33 344.829101562 134 430 245 430 c 5
 245 403 l 5
 162 403 87 347 87 265 c 4
 87 169 191 140 305 140 c 4
 427 140 514 213 514 317 c 4
471 448 m 5
 441 494 395 536 357 564 c 5
 345 546 337 526.666992188 337 492 c 4
 337 442.666992188 355 405 412 405 c 4
 436 405 460.763671875 414.140625 471 448 c 5
EndSplineSet
Layer: 3
EndChar

StartChar: uni0DC4
Encoding: 58 3524 25
Width: 653
VWidth: 1000
Flags: W
HStem: -1.30331 27.5084<352 459.125> -0.762226 72.7622<117.333 292.726> 212.412 24.7581<271.316 319.044> 280.021 23.332<136.602 205.514> 362 70.0093<355.177 489.218> 383.056 48.9775<108.131 184.376>
VStem: 32.9551 36.7952<120.972 227.466> 206 33<303 356.706> 239 22<188.742 197.852> 330.111 36.0512<111.65 206.799> 557.148 47.8706<113.64 289.228>
LayerCount: 4
Back
Fore
SplineSet
261 182 m 1xbae0
 267.753468094 203.010789627 281.517899979 212.412279499 294.999999474 212.412279499 c 0
 315 212.412279499 330.111487969 194.870510204 330.111487969 164.323187208 c 0
 330.111487969 100.488408082 274.436769939 72 208 72 c 0
 133.657431312 72 69.7502819416 105.728297678 69.7502819416 175.35945891 c 0
 69.7502819416 245.325077118 125 280.020701546 204.99999651 280.020701546 c 0
 215.953374632 280.020701546 227.31985131 279.352438269 239 278 c 1x7ae0
 237.805156657 360.444190658 197.349468601 432.033407495 118.454977226 432.033407495 c 0
 61.7023205405 432.033407495 33.0236931219 394.207779183 33.0236931219 364.000000718 c 0
 33.0236931219 341 46 327.240234375 65.802734375 327.240234375 c 0
 86.6728515625 327.240234375 100 340 106 355.69271051 c 0
 111.797734694 370.856405871 123.504556884 383.05591496 144.456595979 383.05591496 c 0
 182 383.05591496 206 345.316862256 206 303 c 1
 201.958859853 303.223164665 197.957701716 303.35267071 194.00000399 303.35267071 c 0
 100 303.35267071 32.955072243 246 32.955072243 155.113004833 c 0
 32.955072243 61.0614182824 103.482897226 -0.762226007727 201.033156494 -0.762226007727 c 0x7760
 295.501309239 -0.762226007727 366.162675468 52.9926813027 366.162675468 145.349815118 c 0
 366.162675468 199.139276778 338 237.170373002 300.000001328 237.170373002 c 0
 290.634007167 237.170373002 280.834632615 234.531980846 271 229 c 1
 293 317.666666667 340.666666667 362 414 362 c 0
 504.79384916 362 557.147781594 288.168710145 557.147781594 192.821331899 c 0
 557.147781594 93.4058364165 487 26.2051161814 388.000004424 26.2051161814 c 0
 376.35311101 26.2051161814 364.328223026 27.0869998752 352 29 c 1
 352 2 l 1
 365.993045889 -0.266479263683 379.685193513 -1.30330825989 392.999994701 -1.30330825989 c 0
 516 -1.30330825989 605.018348624 92.0044933398 605.018348624 210.961535223 c 0
 605.018348624 328.650705644 542.17352523 432.009345794 430.301685736 432.009345794 c 0
 329.087366383 432.009345794 248 317 239 192 c 1
 261 182 l 1xbae0
EndSplineSet
Layer: 2
SplineSet
264 186 m 5
 270.75390625 207.010742188 282 215.412109375 296 215.412109375 c 4
 307 215.412109375 318 208 318 190 c 4
 318 152 250 138.86328125 212 138.86328125 c 4
 158 138.86328125 94 158 94 211 c 4
 94 243 125 278.020507812 205 278.020507812 c 4
 215.953125 278.020507812 227.3203125 277.352539062 239 276 c 5
 239 360.299987793 197.349468601 432.033407495 118.454977226 432.033407495 c 4
 61.7023205405 432.033407495 33.0236931219 394.207779183 33.0236931219 364.000000718 c 4
 33.0236931219 336 52 323 74 323 c 4
 90 323 105.84375 332.063476562 114 352 c 4
 123 374 137 378 152 378 c 4
 180 378 204 342 204 303 c 5
 199.958984375 303.223632812 197.957701716 303.35267071 194.00000399 303.35267071 c 4
 100 303.35267071 32.955072243 246 32.955072243 155.113004833 c 4
 32.955072243 61.0614182824 103.482897226 -0.762226007727 201.033156494 -0.762226007727 c 4
 295.501309239 -0.762226007727 366.162675468 52.9926813027 366.162675468 145.349815118 c 4
 366.162675468 199.139276778 342 242.169921875 301 242.169921875 c 4
 291.633789062 242.169921875 282.834960938 240.532226562 273 235 c 5
 282 264 299 314 374 314 c 4
 464 314 497 230 497 166 c 4
 497 112 477 28.205078125 388 28.205078125 c 4
 376.353515625 28.205078125 364.328125 29.0869140625 352 31 c 5
 352 2 l 5
 365.993045889 -0.266479263683 379.685193513 -1.30330825989 392.999994701 -1.30330825989 c 4
 516 -1.30330825989 605.018348624 92.0044933398 605.018348624 210.961535223 c 4
 605.018348624 328.650705644 542.17352523 432.009345794 430.301685736 432.009345794 c 4
 329.087366383 432.009345794 248 320 239 195 c 5
 264 186 l 5
EndSplineSet
Layer: 3
EndChar

StartChar: si_DdI
Encoding: 223 -1 26
Width: 647
VWidth: 1000
Flags: HW
LayerCount: 4
Back
Fore
SplineSet
598 255 m 5
 562 268 l 5
 562 326.617757797 546.813531616 383.562550307 519 414 c 4
 466 472 395.268554688 472.325195312 294.25 478 c 4
 205.25 483 79.25 476 79.25 562 c 4
 79.25 652 215.25 670 315.25 670 c 4
 451.25 670 566 639 566 554 c 4
 566 502 512 480 478 474 c 5
 428 490 l 5
 464 491 519 506 519 544 c 4
 519 600.2734375 423.25 611 315.25 611 c 4
 239.59375 611 121.25 605.885742188 121.25 554 c 4
 121.25 508 191.25 508 293.25 504 c 4
 358.119140625 501.456054688 457.000141778 499.000194944 512 459 c 4
 561.146484375 423.256835938 598 343.803343773 598 255 c 5
76.2109375 374.122070312 m 4
 76.2109375 414 123.100792732 432.167358968 165.27885421 432.167358968 c 4
 249.407348514 432.167358968 293.626701618 373.979249619 295 288 c 5
 220 288 l 6
 126.957367049 288 83.3915037787 230 83.3915037787 174.000001556 c 4
 83.3915037787 121.64183372 123.262203778 71 198 71 c 4
 247.046364159 71 299 95.1647551294 299 143 c 6
 299 178 l 5
 326 178 l 5
 326 143 l 6
 326 97.0862774658 373.775105866 71 424 71 c 4
 520.489182971 71 561.893554688 167.485351562 561.893554688 273.217773438 c 5
 577.31640625 269.888671875 591.31386711 262.436035303 597.987383913 258.221926564 c 5
 597.987383913 126.285711076 547.007371766 -0.0251311659364 427.655553183 -0.0251311659364 c 4
 363.027670828 -0.0251311659364 334.630436238 28.5207489381 313 59 c 5
 283.406198924 21.686076905 250 0 199 0 c 4
 97.9838045205 0 45.8804869702 81.1902905721 45.8804869702 161.999997835 c 4
 45.8804869702 212 71.0486818679 264.197947883 125 288 c 5
 15 288 l 5
 15 315 l 5
 261 315 l 5
 258.164478188 357.532827182 228 391.267578125 198 391.267578125 c 4
 180.364257812 391.267578125 165.118202841 387.385986725 151 363 c 4
 140 344 126.646484375 339.263671875 113 339.263671875 c 4
 93 339.263671875 76.2109375 353 76.2109375 374.122070312 c 4
EndSplineSet
Layer: 2
Layer: 3
EndChar

StartChar: si_DdIi
Encoding: 224 -1 27
Width: 647
VWidth: 1000
Flags: HW
LayerCount: 4
Back
Fore
SplineSet
414.447265625 555 m 4
 414.447265625 524.818359375 441.6171875 500.54296875 474.75 500.54296875 c 4
 507.8828125 500.54296875 535.052734375 524.818359375 535.052734375 555 c 4
 535.052734375 585.181640625 507.8828125 609.45703125 474.75 609.45703125 c 4
 441.6171875 609.45703125 414.447265625 585.181640625 414.447265625 555 c 4
598 254 m 5
 562 270 l 5
 562 332.978780184 547.563531616 383.562550307 519.75 414 c 4
 466.75 472 395.018554688 472.325195312 294 478 c 4
 205 483 79.5 476 79.5 562 c 4
 79.5 652 215 670 315 670 c 4
 451 670 566.75 642.977783203 566.75 558 c 4
 566.75 505 518.75 474 474.75 474 c 4
 430.75 474 382.75 505 382.75 558 c 4
 382.75 583 395.75 600 401.75 608 c 5
 394.75 609 357.211914062 611 315 611 c 4
 239.34375 611 121.5 605.885742188 121.5 554 c 4
 121.5 508 191 508 293 504 c 4
 357.869140625 501.456054688 457.750141778 499.000194944 512.75 459 c 4
 561.896484375 423.256835938 598 348.428710938 598 254 c 5
76.2109375 374.122070312 m 0
 76.2109375 414 123.100792732 432.167358968 165.27885421 432.167358968 c 0
 249.407348514 432.167358968 293.626701618 373.979249619 295 288 c 1
 220 288 l 2
 126.957367049 288 83.3915037787 230 83.3915037787 174.000001556 c 0
 83.3915037787 121.64183372 123.262203778 71 198 71 c 0
 247.046364159 71 299 95.1647551294 299 143 c 2
 299 178 l 1
 326 178 l 1
 326 143 l 2
 326 97.0862774658 373.775105866 71 424 71 c 0
 520.489182971 71 561.893554688 167.485351562 561.893554688 273.217773438 c 1
 577.31640625 269.888671875 591.31386711 262.436035303 597.987383913 258.221926564 c 1
 597.987383913 126.285711076 547.007371766 -0.0251311659364 427.655553183 -0.0251311659364 c 0
 363.027670828 -0.0251311659364 334.630436238 28.5207489381 313 59 c 1
 283.406198924 21.686076905 250 0 199 0 c 0
 97.9838045205 0 45.8804869702 81.1902905721 45.8804869702 161.999997835 c 0
 45.8804869702 212 71.0486818679 264.197947883 125 288 c 1
 15 288 l 1
 15 315 l 1
 261 315 l 1
 258.164478188 357.532827182 228 391.267578125 198 391.267578125 c 0
 180.364257812 391.267578125 165.118202841 387.385986725 151 363 c 0
 140 344 126.646484375 339.263671875 113 339.263671875 c 0
 93 339.263671875 76.2109375 353 76.2109375 374.122070312 c 0
EndSplineSet
Layer: 2
Layer: 3
Ligature2: "'abvs' Above Base Substitutions in Sinhala lookup 2-1" si_Dda si_MatraIi
EndChar

StartChar: NameMe.10
Encoding: 65537 -1 28
Width: 894
VWidth: 1000
Flags: W
HStem: -1 72<115.441 265.558 362.772 526.09> -1 29<676.905 773.11> 17 26<748.146 788.775> 195 27<697.639 787> 291 25<145.793 262.114 362.861 501.37> 358 35<673.521 754.434> 395 36.5<148.714 235.691 394.052 504.635>
VStem: 31 38<119.848 232.056> 62 74.5<326.244 384.946> 263 30.1465<310 362.631> 301 27<112.711 182> 520 39<306.344 379.751> 571 37<118.439 237.102> 617 30<58.5464 155.33 242 326.823> 786 45<40.6339 194.498> 787.158 60.8425<40.9876 195 222 319.732>
LayerCount: 4
Back
Fore
SplineSet
440 0 m 4x9f7c
 375.333007812 0 332 31 313 82 c 5
 292 30 251 -1 183 -1 c 4
 88 -1 31 76 31 154 c 4x9f7c
 31 261 117 316 209 316 c 4
 222 316 250 314 263 310 c 5
 263 312 263 311.041992188 263 313 c 4
 263 358 231 395 194 395 c 4
 153 395 142 371 136.5 355 c 4
 129.951171875 335.948242188 119.87109375 323 98 323 c 4
 82 323 62 333.368164062 62 359 c 4x9efc
 62 406 112 431.5 167 431.5 c 4
 255 431.5 293.146484375 369 293.146484375 296 c 4
 293.146484375 292.721679688 293 288 293 282 c 5
 278 285 241 291 212 291 c 4
 143 291 69 255 69 175 c 4
 69 116.176757812 122 71 192 71 c 4
 247.764648438 71 301 101.782226562 301 152 c 6
 301 182 l 5
 328 182 l 5
 328 152 l 6
 328 96.326171875 389.229492188 71 451 71 c 4
 520 71 571 115 571 175 c 4
 571 255 508 291 432 291 c 4
 400 291 371 289 333 282 c 5
 332.814453125 285.706054688 332.716796875 287.374023438 332.716796875 291 c 4
 332.716796875 375 380.57421875 432 456 432 c 4
 510 432 559 408 559 350 c 4
 559 328.666992188 545 306 530 297 c 5
 577.333007812 273.666992188 608 221.08203125 608 166 c 4
 608 58 538 0 440 0 c 4x9f7c
362 310 m 5
 373 313 401 316 425 316 c 4
 459 316 483 313 505 306 c 5
 517 319 520 334 520 346 c 260
 520 379 486.477539062 393 450 393 c 4
 398 393 366.666992188 364.666992188 362 310 c 5
642 242 m 5
 617 242 l 5
 616.917621649 244.677296423 616.881835938 246.344723689 616.881835938 249 c 4
 616.881835938 329 653.008789062 393 727 393 c 4
 813.896484375 393 848 298 848 203 c 4x5e7d
 848 144 831 52.4369641473 831 23 c 4
 831 15.6666666667 831.333333333 9 832 3 c 5
 802 3 l 5
 799.333333333 12.3333333333 794.333333333 17 787 17 c 4x3e7e
 774.847100363 17 749 -1 715 -1 c 4x5e7e
 656 -1 617 49.2593268952 617 106 c 4
 617 153.333333333 639 186.333333333 683 205 c 4
 709 216.333333333 750 222 787 222 c 5
 787 312 760 358 717 358 c 4
 665.284851645 358 641.953125 308 641.953125 246 c 4
 641.953125 244.333000661 641.964012078 243.666249163 642 242 c 5
787 195 m 5
 772 195 736 194 707 185 c 4
 671.315429688 173.92578125 647 150.544921875 647 107 c 4
 647 64.650390625 675.819335938 28 717 28 c 4x5e7d
 743 28 770.259822214 43 780 43 c 4
 783.333333333 43 786.333333333 42 789 40 c 5
 787 53.3333333333 786 78.8333333333 786 116.5 c 4x3e7e
 786 147.879172619 787.157520208 168 787.157520208 186 c 4
 787.157520208 188.996388646 787.111328125 192.663085938 787 195 c 5
EndSplineSet
Layer: 2
Layer: 3
EndChar

StartChar: uni0D8D
Encoding: 10 3469 29
Width: 894
VWidth: 1000
Flags: W
HStem: -1 72<115.441 265.558 362.772 526.09> -1 29<676.905 773.11> 17 26<748.146 788.775> 195 27<697.639 787> 291 25<145.793 262.114 362.861 501.37> 358 35<673.521 754.434> 395 36.5<148.714 235.691 394.052 504.635>
VStem: 31 38<119.848 232.056> 62 74.5<326.244 384.946> 263 30.1465<310 362.631> 301 27<112.711 182> 520 39<306.344 379.751> 571 37<118.439 237.102> 617 30<58.5464 155.33 242 326.823> 786 45<40.6339 194.498> 787.158 60.8425<40.9876 195 222 319.732>
LayerCount: 4
Back
Fore
SplineSet
440 0 m 4x9f7c
 375.333007812 0 332 31 313 82 c 5
 292 30 251 -1 183 -1 c 4
 88 -1 31 76 31 154 c 4x9f7c
 31 261 117 316 209 316 c 4
 222 316 250 314 263 310 c 5
 263 312 263 311.041992188 263 313 c 4
 263 358 231 395 194 395 c 4
 153 395 142 371 136.5 355 c 4
 129.951171875 335.948242188 119.87109375 323 98 323 c 4
 82 323 62 333.368164062 62 359 c 4x9efc
 62 406 112 431.5 167 431.5 c 4
 255 431.5 293.146484375 369 293.146484375 296 c 4
 293.146484375 292.721679688 293 288 293 282 c 5
 278 285 241 291 212 291 c 4
 143 291 69 255 69 175 c 4
 69 116.176757812 122 71 192 71 c 4
 247.764648438 71 301 101.782226562 301 152 c 6
 301 182 l 5
 328 182 l 5
 328 152 l 6
 328 96.326171875 389.229492188 71 451 71 c 4
 520 71 571 115 571 175 c 4
 571 255 508 291 432 291 c 4
 400 291 371 289 333 282 c 5
 332.814453125 285.706054688 332.716796875 287.374023438 332.716796875 291 c 4
 332.716796875 375 380.57421875 432 456 432 c 4
 510 432 559 408 559 350 c 4
 559 328.666992188 545 306 530 297 c 5
 577.333007812 273.666992188 608 221.08203125 608 166 c 4
 608 58 538 0 440 0 c 4x9f7c
362 310 m 5
 373 313 401 316 425 316 c 4
 459 316 483 313 505 306 c 5
 517 319 520 334 520 346 c 260
 520 379 486.477539062 393 450 393 c 4
 398 393 366.666992188 364.666992188 362 310 c 5
642 242 m 5
 617 242 l 5
 616.917621649 244.677296423 616.881835938 246.344723689 616.881835938 249 c 4
 616.881835938 329 653.008789062 393 727 393 c 4
 813.896484375 393 848 298 848 203 c 4x5e7d
 848 144 831 52.4369641473 831 23 c 4
 831 15.6666666667 831.333333333 9 832 3 c 5
 802 3 l 5
 799.333333333 12.3333333333 794.333333333 17 787 17 c 4x3e7e
 774.847100363 17 749 -1 715 -1 c 4x5e7e
 656 -1 617 49.2593268952 617 106 c 4
 617 153.333333333 639 186.333333333 683 205 c 4
 709 216.333333333 750 222 787 222 c 5
 787 312 760 358 717 358 c 4
 665.284851645 358 641.953125 308 641.953125 246 c 4
 641.953125 244.333000661 641.964012078 243.666249163 642 242 c 5
787 195 m 5
 772 195 736 194 707 185 c 4
 671.315429688 173.92578125 647 150.544921875 647 107 c 4
 647 64.650390625 675.819335938 28 717 28 c 4x5e7d
 743 28 770.259822214 43 780 43 c 4
 783.333333333 43 786.333333333 42 789 40 c 5
 787 53.3333333333 786 78.8333333333 786 116.5 c 4x3e7e
 786 147.879172619 787.157520208 168 787.157520208 186 c 4
 787.157520208 188.996388646 787.111328125 192.663085938 787 195 c 5
EndSplineSet
Layer: 2
Layer: 3
EndChar

StartChar: uni0D8E
Encoding: 11 3470 30
Width: 1140
VWidth: 1000
Flags: W
HStem: -1 72<115.441 265.558 362.772 526.09> -1 29<676.905 773.11 922.905 1019.11> 17 26<748.146 788.775 994.146 1034.78> 195 27<697.639 787 943.639 1033> 291 25<145.793 262.114 362.861 501.37> 358 35<673.521 754.434 919.521 1000.43> 395 36.5<148.714 235.691 394.052 504.635>
VStem: 31 38<119.848 232.056> 62 74.5<326.244 384.946> 263 30.1465<310 362.631> 301 27<112.711 182> 520 39<306.344 379.751> 571 37<118.439 237.102> 617 30<58.5464 155.33 242 326.823> 786 45<40.6339 194.498> 787.158 60.8425<40.9876 195 222 319.732> 863 30<58.5465 155.33 242 326.823> 1032 45<40.6339 194.498> 1033.16 60.8428<40.9875 195 222 319.732>
LayerCount: 4
Back
Fore
SplineSet
888 242 m 1x5e7cc0
 863 242 l 1
 862.91796875 244.677734375 862.881835938 246.344726562 862.881835938 249 c 0
 862.881835938 329 899.008789062 393 973 393 c 0
 1059.89648438 393 1094 298 1094 203 c 0x5e7ca0
 1094 144 1077 52.4365234375 1077 23 c 0
 1077 15.6669921875 1077.33300781 9 1078 3 c 1
 1048 3 l 1
 1045.33300781 12.3330078125 1040.33300781 17 1033 17 c 0x3e7cc0
 1020.84667969 17 995 -1 961 -1 c 0
 902 -1 863 49.259765625 863 106 c 0
 863 153.333007812 885 186.333007812 929 205 c 0
 955 216.333007812 996 222 1033 222 c 1
 1033 312 1006 358 963 358 c 0
 911.28515625 358 887.953125 308 887.953125 246 c 0
 887.953125 244.333007812 887.963867188 243.666015625 888 242 c 1x5e7cc0
1033 195 m 1
 1018 195 982 194 953 185 c 0
 917.315429688 173.92578125 893 150.544921875 893 107 c 0
 893 64.650390625 921.819335938 28 963 28 c 0x5e7ca0
 989 28 1016.25976562 43 1026 43 c 0
 1029.33300781 43 1032.33300781 42 1035 40 c 1
 1033 53.3330078125 1032 78.8330078125 1032 116.5 c 0x3e7cc0
 1032 147.87890625 1033.15722656 168 1033.15722656 186 c 0
 1033.15722656 188.99609375 1033.11132812 192.663085938 1033 195 c 1
440 0 m 0
 375.333007812 0 332 31 313 82 c 1
 292 30 251 -1 183 -1 c 0
 88 -1 31 76 31 154 c 0x9f7c80
 31 261 117 316 209 316 c 0
 222 316 250 314 263 310 c 1
 263 312 263 311.041992188 263 313 c 0
 263 358 231 395 194 395 c 0
 153 395 142 371 136.5 355 c 0
 129.951171875 335.948242188 119.87109375 323 98 323 c 0
 82 323 62 333.368164062 62 359 c 0x9efc80
 62 406 112 431.5 167 431.5 c 0
 255 431.5 293.146484375 369 293.146484375 296 c 0
 293.146484375 292.721679688 293 288 293 282 c 1
 278 285 241 291 212 291 c 0
 143 291 69 255 69 175 c 0
 69 116.176757812 122 71 192 71 c 0
 247.764648438 71 301 101.782226562 301 152 c 2
 301 182 l 1
 328 182 l 1
 328 152 l 2
 328 96.326171875 389.229492188 71 451 71 c 0x9f7c80
 520 71 571 115 571 175 c 0
 571 255 508 291 432 291 c 0
 400 291 371 289 333 282 c 1
 332.814453125 285.706054688 332.716796875 287.374023438 332.716796875 291 c 0
 332.716796875 375 380.57421875 432 456 432 c 0
 510 432 559 408 559 350 c 0
 559 328.666992188 545 306 530 297 c 1
 577.333007812 273.666992188 608 221.08203125 608 166 c 0
 608 58 538 0 440 0 c 0
362 310 m 1
 373 313 401 316 425 316 c 0
 459 316 483 313 505 306 c 1
 517 319 520 334 520 346 c 256
 520 379 486.477539062 393 450 393 c 0
 398 393 366.666992188 364.666992188 362 310 c 1
642 242 m 1
 617 242 l 1
 616.917621649 244.677296423 616.881835938 246.344723689 616.881835938 249 c 0
 616.881835938 329 653.008789062 393 727 393 c 0
 813.896484375 393 848 298 848 203 c 0x5e7d80
 848 144 831 52.4369641473 831 23 c 0
 831 15.6666666667 831.333333333 9 832 3 c 1
 802 3 l 1
 799.333333333 12.3333333333 794.333333333 17 787 17 c 0x3e7e80
 774.847100363 17 749 -1 715 -1 c 0x5e7e80
 656 -1 617 49.2593268952 617 106 c 0
 617 153.333333333 639 186.333333333 683 205 c 0
 709 216.333333333 750 222 787 222 c 1
 787 312 760 358 717 358 c 0
 665.284851645 358 641.953125 308 641.953125 246 c 0
 641.953125 244.333000661 641.964012078 243.666249163 642 242 c 1
787 195 m 1
 772 195 736 194 707 185 c 0
 671.315429688 173.92578125 647 150.544921875 647 107 c 0
 647 64.650390625 675.819335938 28 717 28 c 0x5e7d80
 743 28 770.259822214 43 780 43 c 0
 783.333333333 43 786.333333333 42 789 40 c 1
 787 53.3333333333 786 78.8333333333 786 116.5 c 0x3e7e80
 786 147.879172619 787.157520208 168 787.157520208 186 c 0
 787.157520208 188.996388646 787.111328125 192.663085938 787 195 c 1
EndSplineSet
Layer: 2
Layer: 3
EndChar

StartChar: uni0D92
Encoding: 15 3474 31
Width: 595
VWidth: 1000
Flags: HW
HStem: 0 71<148.243 395.614> 277 25<16 263> 359 36<338.075 436.162> 395 36.5<150.639 234.669> 520 25<469.358 540.183>
VStem: 45 37<127.613 229.669> 263.086 32.0605<302 361.086> 283 30<424.683 549.228> 441 28<490 528 547.09 691> 513 32<186.191 352.059> 555 41<553.243 642.825>
LayerCount: 4
Back
Fore
SplineSet
469 648 m 9
 469 515 l 17
 475 512 491.229492188 509 502 509 c 0
 532 509 555 522 555 558 c 0
 555 614 490 631 469 648 c 9
441 447 m 25
 441 693 l 17
 497 646 596 650 596 557 c 0
 596 517 566 484 519 484 c 0
 495.293945312 484 478 489 469 492 c 9
 469 417 l 25
 441 447 l 25
513 261 m 0xde80
 513 317.666992188 496 358 471 394 c 1
 456.333007812 361.333007812 426 341 383 341 c 0
 319.844726562 341 283 396 283 462 c 0xed80
 283 512 298 548 325 579 c 1
 386 546 454.108202787 472.49835122 493 412 c 0
 529 356 545 309 545 239 c 0
 545 119 459 0 276 0 c 0
 155 0 45 46 45 165 c 0
 45 195.720703125 54.775390625 227.831054688 78 248 c 0
 94.126953125 262.004882812 113 273 139 278 c 1
 172.760742188 290.19921875 207.875 302 245 302 c 2
 257 302 l 1
 257.08203125 304.041015625 257.0859375 306.041015625 257.0859375 308 c 0
 257.0859375 347 231 389 194 389 c 0xde80
 155 389 144 365 138.5 349 c 0
 131.951171875 329.948242188 121.87109375 317 100 317 c 0
 84 317 64 327.368164062 64 353 c 0xee80
 64 400 114 425.5 169 425.5 c 0
 257 425.5 289.146484375 352 289.146484375 290 c 0
 289.146484375 286.721679688 289.100585938 280.387695312 289 277 c 1
 231 277 l 2
 186.559570312 277 147.1171875 264.814453125 122 249 c 0
 95 232 82 206.05078125 82 180 c 0
 82 94 189 71 279 71 c 0
 432 71 513 152 513 261 c 0xde80
129 277 m 2
 58 276 32 272.666992188 16 270 c 1
 16 302 l 1
 255 302 l 1
 285 277 l 1
 129 277 l 2
452 422 m 1
 422 468 372 514 334 542 c 1
 322 524 313 500.666992188 313 466 c 0
 313 416.666992188 333 377 390 377 c 0
 414 377 441.763671875 388.140625 452 422 c 1
EndSplineSet
Layer: 2
Layer: 3
EndChar

StartChar: uni0D95
Encoding: 18 3477 32
Width: 636
VWidth: 1000
Flags: HW
LayerCount: 4
Back
Fore
SplineSet
160 508 m 1
 193 514 232.674804688 519 279 519 c 0
 387 519 472 490 530 422 c 1
 497 537 400 590 284 590 c 0
 212 590 139 567 139 543 c 0
 139 531 163 526 163 515 c 0
 163 513 162 510 160 508 c 1
42 442 m 9
 42 473 l 17
 74 485 126 499 126 508 c 0
 126 520 98 524 98 546 c 0
 98 583 163 629 278 629 c 0
 486 629 560 490 572 356 c 1
 583 329 590 292 590 245 c 1
 552 250 l 17
 552.613870443 257.46875706 552.826146051 264.803810992 552.826146051 271.999991627 c 0
 552.826146051 410 443 493.75 282 493.75 c 4
 206 493.75 123 480 42 442 c 9
274 363 m 0
 274 337 295 316 321 316 c 0
 347 316 368 337 368 363 c 0
 368 389 347 410 321 410 c 0
 295 410 274 389 274 363 c 0
388 331 m 1
 382 318 358.65625 289 318 289 c 0
 271.278320312 289 245 324.079101562 245 360 c 256
 245 402 277 434 322 434 c 0
 381 434 418 389 418 330 c 0
 418 268 367 224 296 224 c 0
 225.25445084 224 172 267 172 339 c 0
 172 344.219726562 172.27544052 362.934877611 172.27544052 371.999999557 c 0
 172.27544052 392 168.197801988 406 145 406 c 0
 94 406 61 327 61 254 c 0
 61 149.666457941 116 70 199 70 c 0
 273 70 293 107.666992188 293 141 c 2
 293 167 l 1
 317 167 l 1
 317 140 l 2
 317 95.748046875 356 71 410 71 c 0
 505.558649722 71 554 181.873239616 554 286 c 1
 570 274 576 264 590 254 c 1
 590 126.500578052 543 0 406 0 c 0
 365 0 321 16 305 55 c 1
 283 15 246 0 196 0 c 0
 78 0 30 127 30 224 c 0
 30 332 74 431.5 148 431.5 c 0
 167.006835938 431.5 173 428 180 423 c 0
 190.609375 415.421875 198.873046875 401 198.873046875 371 c 0
 198.873046875 357 199 340.014648438 199 337 c 0
 199 284 240 253 295 253 c 0
 348 253 389 281 389 326 c 0
 389 327 389 329 388 331 c 1
EndSplineSet
Layer: 2
Layer: 3
EndChar

StartChar: uni0D9F
Encoding: 25 3487 33
Width: 749
VWidth: 1000
Flags: HW
LayerCount: 4
Back
Fore
SplineSet
350 408 m 1xaf80
 346.64453125 408.284179688 342.310546875 408.450195312 339 408.450195312 c 0
 253 408.450195312 186 332 186 230 c 0
 186 147 234.309570312 71 323 71 c 0
 382 71 435 98.6416015625 435 158 c 0
 435 196 415.453125 217 384 217 c 0
 376.666992188 217 367 215 360 210 c 1
 359 204 358 195.333007812 358 192 c 1
 333 192 l 1
 343.196289062 316.901367188 405 431.5 527 431.5 c 0x7780
 639 431.5 703 332 703 217 c 0
 703 95 617.052734375 -1 486 -1 c 0
 476 -1 465.666992188 -0.3330078125 455 1 c 1
 455 26 l 1
 463 25 471 24 479 24 c 0
 586 24 660 100 660 200 c 0
 660 301 601 371 510 371 c 0
 433.349609375 371 380 313 364 236 c 1
 372 240 380.333007812 241 387 241 c 0
 435 241 469 202 469 136 c 0
 469 56 412 -2 325 -2 c 0xaf80
 214 -2 151 96 151 207 c 0
 151 330 226 431.5 337 431.5 c 0
 340.953125 431.5 345.954101562 431.25 350 431 c 1
 350 408 l 1xaf80
337 431.5 m 5
 316 420.5 273 415 256 409 c 5
 120 409 56 342 56 218 c 4
 56 137.333007812 83 75.3330078125 135 30 c 5
 135 0 l 5
 68.5828449348 33.2085775326 27 120.069879655 27 221 c 4
 27 352.699751668 99.7561968728 433 239 433 c 4
 248 433 311 433 337 431.5 c 5
EndSplineSet
Layer: 2
Layer: 3
EndChar

StartChar: uni0DA4
Encoding: 30 3492 34
Width: 1024
VWidth: 1000
Flags: HW
LayerCount: 4
Back
Fore
SplineSet
951 293.5 m 1
 814 293.5 l 2
 726 293.5 680 256.5 680 172.5 c 0
 680 88.5 750 26.5 833 26.5 c 0
 879.077148438 26.5 916 45.5 956 91.5 c 1
 979 74.5 l 1
 948.459960938 38.8701171875 878 -28.5 878 -104.5 c 0
 878 -170.598632812 917.217773438 -195.6171875 981 -210.5 c 1
 981 -238.5 l 1
 967 -241.166992188 949 -242.5 927 -242.5 c 0
 856.43359375 -240.540039062 821 -199.518554688 821 -142.5 c 0
 821 -103.833007812 844.333007812 -53.1669921875 891 9.5 c 1
 856 -0.5 833.333007812 -1.5 806 -1.5 c 0
 675 -1.5 603 68.5 603 168.5 c 0
 603 273.5 676 316.5 795 316.5 c 2
 915 316.5 l 1
 905.276367188 362.685546875 853.25 395.5 809.25 395.5 c 0
 790.25 395.5 774.298828125 383.411132812 765.75 365.5 c 128
 755.25 343.5 739.051757812 335.5 724.25 335.5 c 0
 699.25 335.5 686.25 350.5 686.25 371.5 c 0
 686.25 407.783203125 726.25 432.5 781.25 432.5 c 0
 866.989257812 432.5 932.904296875 388.502929688 951 293.5 c 1
307 273 m 1
 289.666992188 258.333007812 270 234.666992188 254 212 c 0
 225.333007812 171.333007812 205.666992188 131.666992188 195 95 c 1
 201 98.3330078125 207.333007812 100 214 100 c 0
 243 100 267 71 324 71 c 0
 375.182617188 71 406 101.864257812 406 162 c 0
 406 164.208984375 406.041015625 161.3046875 406 163 c 1
 432 163 l 1
 431.963867188 161.6640625 432 163.330078125 432 162 c 0
 432 96.9267578125 459 71 517 71 c 0
 579.088867188 71 599 123 599 159 c 0
 599 242 525.87890625 291 423 291 c 0
 366.333007812 291 328 282 307 273 c 1
344 308 m 1
 368 314 399.666992188 316 427 316 c 0
 547 316 640 251 640 126 c 0
 640 67.84765625 607 -1 522 -1 c 0
 476 -1 442.333007812 20.3330078125 421 63 c 1
 403.666992188 21.6669921875 371.021484375 -1 329 -1 c 0
 242 -1 245 73 212 73 c 0
 189.674804688 73 175 51 172 11 c 1
 146 22 l 1
 153.696289062 91.26953125 199.452148438 184.165039062 234 232 c 0
 260 268 275 282 293 301 c 1
 305 314 318 330 318 352 c 0
 318 374 308.408203125 392 283 392 c 0
 269 392 247.478515625 384.287109375 241 363 c 0
 234 340 237.653320312 340.109375 231 323 c 0
 224 305 209 297 194 297 c 0
 160 297 154 328 154 340 c 0
 154 394.098632812 204.36328125 433 261 433 c 0
 310.711914062 433 345.079101562 402 345.079101562 356 c 0
 345.079101562 351.467773438 344.723632812 345.794921875 344 341 c 1
 372.357403847 362.046370158 409.339493752 388.188406944 480 412 c 0
 550.909946961 435.895651054 608.200195312 442 689.25 442 c 0
 715.791992188 442 783.740234375 439.388671875 827.5 427.25 c 1
 725.25 413.5 l 1
 714.280273438 414.815429688 693.461914062 415 683.25 415 c 0
 633.81640625 415 596.183440039 410.733531298 564 405 c 0
 480.979432402 390.209753149 419.010754317 364.724364206 344 308 c 1
293 428.25 m 1
 272 417.25 194 406.5 177 400.5 c 5
 102 382.5 56 319.267578125 56 218 c 0
 56 137.333007812 83 75.3330078125 135 30 c 1
 135 0 l 1
 68.5828449348 33.2085775326 27 120.069879655 27 221 c 0
 27 352.699751668 99.755859375 434.25 239 434.25 c 0
 248 434.25 271 434.25 293 428.25 c 1
EndSplineSet
Layer: 2
Layer: 3
EndChar

StartChar: uni0DA5
Encoding: 31 3493 35
Width: 842
VWidth: 1000
Flags: HW
LayerCount: 4
Back
Fore
SplineSet
769 294 m 5
 632 294 l 6
 544 294 498 257 498 173 c 4
 498 89 568 27 651 27 c 4
 697.077148438 27 734 46 774 92 c 5
 797 75 l 5
 766.459960938 39.3701171875 696 -28 696 -104 c 4
 696 -170.098632812 735.217773438 -195.1171875 799 -210 c 5
 799 -238 l 5
 785 -240.666992188 767 -242 745 -242 c 4
 674.43359375 -240.040039062 639 -199.018554688 639 -142 c 4
 639 -103.333007812 662.333007812 -52.6669921875 709 10 c 5
 674 0 651.333007812 -1 624 -1 c 4
 493 -1 421 69 421 169 c 4
 421 274 494 317 613 317 c 6
 733 317 l 5
 723.276367188 363.185546875 694 396 650 396 c 4
 631 396 615.048828125 383.911132812 606.5 366 c 132
 596 344 579.801757812 336 565 336 c 4
 540 336 527 351 527 372 c 4
 527 408.283203125 567 433 622 433 c 4
 707.739257812 433 750.904296875 389.002929688 769 294 c 5
674 426 m 5
 553 409.25 l 5
 547.39453125 409.405273438 543.216796875 409.5 537.5 409.5 c 4
 430.520985901 409.5 369.280935389 339.916498026 347 236 c 5
 355 240 363.333007812 241 370 241 c 4
 418 241 452 202 452 136 c 4
 452 56 395 -2 308 -2 c 4xaf80
 197 -2 134 96 134 207 c 4
 134 330 209 431.5 320 431.5 c 4
 323.953125 431.5 328.954101562 431.25 333 431 c 5
 333 408 l 5xaf80
 329.64453125 408.284179688 325.310546875 408.450195312 322 408.450195312 c 4
 236 408.450195312 169 332 169 230 c 4
 169 147 217.309570312 71 306 71 c 4
 365 71 418 98.6416015625 418 158 c 4
 418 196 398.453125 217 367 217 c 4
 359.666992188 217 349 214 344 210 c 5
 343 204 342 195.333007812 342 192 c 5
 315 192 l 5
 328.677595439 352.298149849 406.221009374 438 560 438 c 4x7780
 591 438 640.988111734 436.424769759 674 426 c 5
324 431.5 m 1
 320 431.5 231 406 231 406 c 1
 97 406 56 312.399347689 56 218 c 0
 56 137.333007812 83 75.3330078125 135 30 c 1
 135 0 l 1
 68.5828449348 33.2085775326 27 120.069879655 27 221 c 0
 27 352.699751668 99.7561968728 433 239 433 c 0
 248 433 301 433 324 431.5 c 1
EndSplineSet
Layer: 2
Layer: 3
EndChar

StartChar: uni0DAF
Encoding: 41 3503 36
Width: 456
VWidth: 1000
Flags: W
HStem: -238 28<365.998 409> -1 28<197.022 317.306> 294 23<175.601 343> 396 37<224.021 309.524>
VStem: 31 77<96.1054 251.314> 249 57<-169.811 -65.527>
LayerCount: 4
Back
Fore
SplineSet
379 294 m 5
 242 294 l 6
 154 294 108 257 108 173 c 4
 108 89 178 27 261 27 c 4
 307.077148438 27 344 46 384 92 c 5
 407 75 l 5
 376.460069993 39.3700816582 306 -28 306 -104 c 4
 306 -170.098346832 345.218242257 -195.11758986 409 -210 c 5
 409 -238 l 5
 395 -240.666666667 377 -242 355 -242 c 4
 284.433558686 -240.039821075 249 -199.018509689 249 -142 c 4
 249 -103.333333333 272.333333333 -52.6666666667 319 10 c 5
 284 0 261.333007812 -1 234 -1 c 4
 103 -1 31 69 31 169 c 4
 31 274 104 317 223 317 c 6
 343 317 l 5
 333.276719951 363.185580234 304 396 260 396 c 4
 241 396 225.048478374 383.911097545 216.5 366 c 4
 206 344 189.801757812 336 175 336 c 4
 150 336 137 351 137 372 c 4
 137 408.283203125 177 433 232 433 c 4
 317.739153659 433 360.904173939 389.003086822 379 294 c 5
EndSplineSet
Layer: 2
Layer: 3
EndChar

StartChar: uni0DB3
Encoding: 44 3507 37
Width: 526
VWidth: 1000
Flags: HW
HStem: -238 28<437.998 481> -1 28<269.022 389.306> 294 23<247.601 415> 396 37<296.021 381.524> 405 26.5<133.68 230.69>
VStem: 23 29<131.124 307.158> 103 77<96.1054 251.314> 321 57<-169.811 -65.527>
LayerCount: 4
Back
Fore
SplineSet
329 428.5 m 5
 313.325195312 418.376953125 265.65625 410.732421875 225 405.248046875 c 5
 208 404 191.801545132 402.374705107 172 397 c 4
 102 378 56 319.267578125 56 218 c 4
 56 137.333007812 83 75.3330078125 135 30 c 5
 135 0 l 5
 68.5828449348 33.2085775326 27 120.069879655 27 221 c 4
 27 352.699751668 98 435 255 435 c 4
 260 435 301 434 329 428.5 c 5
463 294 m 5
 326 294 l 6
 238 294 192 257 192 173 c 4
 192 89 262 27 345 27 c 4
 391.077148438 27 428 46 468 92 c 5
 491 75 l 5
 460.459960938 39.3701171875 390 -28 390 -104 c 4
 390 -170.098632812 429.217773438 -195.1171875 493 -210 c 5
 493 -238 l 5
 479 -240.666992188 461 -242 439 -242 c 4
 368.43359375 -240.040039062 333 -199.018554688 333 -142 c 4
 333 -103.333007812 356.333007812 -52.6669921875 403 10 c 5
 368 0 345.333007812 -1 318 -1 c 4
 187 -1 115 69 115 169 c 4
 115 274 188 317 307 317 c 6
 427 317 l 5
 417.276367188 363.185546875 368 394 330 394 c 4
 311 394 295.048828125 383.911132812 286.5 366 c 132
 276 344 259.801757812 336 245 336 c 4
 220 336 207 351 207 372 c 4
 207 408.283203125 239 431 294 431 c 4
 379.739257812 431 444.904296875 389.002929688 463 294 c 5
EndSplineSet
Layer: 2
Layer: 3
EndChar

StartChar: uni0DB5
Encoding: 46 3509 38
Width: 579
VWidth: 1000
Flags: W
HStem: 0 71<136.243 383.614> 284 25<141.954 249> 359 36<326.075 424.162> 395 36.5<138.639 222.736>
VStem: 33 37<127.613 235.09> 249.086 32.0605<309 365.396> 271 30<424.683 549.228> 501 32<186.191 352.059>
LayerCount: 4
Back
Fore
SplineSet
501 267 m 0xdd
 501 323.666992188 484 376 459 412 c 1
 444.333007812 379.333007812 414 359 371 359 c 0
 307.844726562 359 271 414 271 480 c 0xeb
 271 530 286 566 313 597 c 1
 374 564 444.96484375 492.2421875 481 430 c 0
 519.783203125 363.01171875 533 315 533 245 c 0
 533 117 447 0 264 0 c 0
 143 0 33 46 33 165 c 0
 33 268.952759133 116 309 229 309 c 2
 249 309 l 1
 249.08203125 311.041015625 249.0859375 313.041015625 249.0859375 315 c 0
 249.0859375 358 219 395 182 395 c 0xdd
 143 395 132 371 126.5 355 c 0
 119.951171875 335.948242188 109.87109375 323 88 323 c 0
 72 323 52 333.368164062 52 359 c 0xed
 52 406 102 431.5 157 431.5 c 0
 245 431.5 281.146484375 364 281.146484375 297 c 0
 281.146484375 293.721679688 281.100585938 287.387695312 281 284 c 1
 221 284 l 2
 128 284 70 245.663822637 70 180 c 0
 70 94 177 71 267 71 c 0
 420 71 501 148 501 267 c 0xdd
440 440 m 1
 410 486 360 532 322 560 c 1
 310 542 301 518.666992188 301 484 c 0
 301 434.666992188 321 395 378 395 c 0
 402 395 429.763671875 406.140625 440 440 c 1
EndSplineSet
Layer: 2
Layer: 3
EndChar

StartChar: uni0DB6
Encoding: 47 3510 39
Width: 619
VWidth: 1000
Flags: W
HStem: -2 66<309.425 422.349> -1 28.4902<117.41 183.004> 124.51 28.4902<117.031 183.658> 320 76<144.008 343.887> 561 24<203.09 369.817>
VStem: 33 31<92.3806 231.669> 198.51 30.4902<41.022 110.478> 273 31<71.9451 131.841> 388 35<195.731 277.807> 530 45<199.51 413.6>
LayerCount: 4
Back
Fore
SplineSet
101.490234375 76 m 4x7fc0
 101.490234375 49.5400390625 123.540039062 27.490234375 150 27.490234375 c 4
 176.459960938 27.490234375 198.509765625 49.5400390625 198.509765625 76 c 4
 198.509765625 102.459960938 176.459960938 124.509765625 150 124.509765625 c 4
 123.540039062 124.509765625 101.490234375 102.459960938 101.490234375 76 c 4x7fc0
77 91 m 5
 81 126 109.4375 153 150 153 c 4
 193 153 229 119 229 77 c 4
 229 29 190 -1 150 -1 c 4x7fc0
 68 -1 33 91.123046875 33 187 c 4
 33 313.6875 120.106831661 396 247 396 c 4
 338.787219745 396 423 344.764432331 423 257 c 4
 423 126 304 167 304 101 c 4
 304 76.3333333333 319.666666667 64 351 64 c 4
 461.83477875 64 530 202 530 313 c 4
 530 458 442 561 292 561 c 4
 198 561 132.666992188 530 94 470 c 5
 64 470 l 5
 98.6666666667 542 178.570940778 585 292 585 c 4
 470 585 575 465.142527885 575 284 c 4
 575 141.309689556 518.060138365 -2 381 -2 c 4xbfc0
 321.201842249 -2 273 34.5565970056 273 94 c 4
 273 186 388 156 388 237 c 4
 388 296 308.910429407 320 237 320 c 4
 146 320 64 267 64 162 c 4
 64 136 69 106 77 91 c 5
EndSplineSet
Layer: 2
Layer: 3
EndChar

StartChar: uni0DB7
Encoding: 48 3511 40
Width: 670
VWidth: 1000
Flags: W
HStem: -1.30371 27.5088<368 475.125> -0.762695 72.7627<133.333 308.726> 212.412 24.7578<287.316 335.044> 278 25.3525<6 171 194.421 227.408> 362 70.0098<371.177 505.218> 383.056 48.9775<124.131 200.376>
VStem: 48.9551 36.7949<120.972 220.401> 222 33<303 356.706> 255 22<188.742 197.852> 346.111 36.0518<111.65 206.799> 573.147 47.8711<113.64 289.228>
LayerCount: 4
Back
Fore
SplineSet
140 278 m 6x3260
 69 277 22 273.666992188 6 271 c 5
 6 303 l 5
 212 303 l 5
 171 278 l 5
 140 278 l 6x3260
277 182 m 5x76e0
 255 192 l 5
 264 317 345.086914062 432.009765625 446.301757812 432.009765625 c 4
 558.173828125 432.009765625 621.018554688 328.650390625 621.018554688 210.961914062 c 4
 621.018554688 92.0048828125 532 -1.3037109375 409 -1.3037109375 c 4
 395.685546875 -1.3037109375 381.993164062 -0.2666015625 368 2 c 5
 368 29 l 5
 380.328125 27.0869140625 392.353515625 26.205078125 404 26.205078125 c 4xbae0
 503 26.205078125 573.147460938 93.40625 573.147460938 192.821289062 c 4
 573.147460938 288.168945312 520.793945312 362 430 362 c 4
 356.666992188 362 309 317.666992188 287 229 c 5
 296.834960938 234.532226562 306.633789062 237.169921875 316 237.169921875 c 4
 354 237.169921875 382.163085938 199.139648438 382.163085938 145.349609375 c 4
 382.163085938 52.9931640625 311.500976562 -0.7626953125 217.033203125 -0.7626953125 c 4
 119.482421875 -0.7626953125 48.955078125 61.0615234375 48.955078125 155.11328125 c 4
 48.955078125 253 148 303.352539062 218 303.352539062 c 4
 221.958007812 303.352539062 217.958984375 303.223632812 222 303 c 5x7b60
 222 345.31640625 198 383.055664062 160.45703125 383.055664062 c 4
 139.504882812 383.055664062 127.797851562 370.856445312 122 355.692382812 c 4
 116 340 102.672851562 327.240234375 81.802734375 327.240234375 c 4
 62 327.240234375 49.0234375 341 49.0234375 364 c 4
 49.0234375 394.208007812 77.7021484375 432.033203125 134.455078125 432.033203125 c 4
 213.349609375 432.033203125 253.8046875 360.444335938 255 278 c 5
 243 280 233 280.020507812 229 280.020507812 c 4
 163 280.020507812 85.75 245.325195312 85.75 175.359375 c 4
 85.75 105.728515625 149.657226562 72 224 72 c 4
 290.436523438 72 346.111328125 100.48828125 346.111328125 164.323242188 c 4
 346.111328125 194.870117188 331 212.412109375 311 212.412109375 c 4
 297.517578125 212.412109375 283.75390625 203.010742188 277 182 c 5x76e0
EndSplineSet
Layer: 2
Layer: 3
EndChar

StartChar: uni0DB8
Encoding: 49 3512 41
Width: 631
VWidth: 1000
Flags: W
HStem: 0 71<185.574 416.495> 186 32<239.998 358.508> 271 32<277.35 348.512> 405 27<116.276 177.68 284.565 340.529> 560 26<218.916 379.469>
VStem: 33 35<186.442 342.807> 173 31<252.916 403.854> 233 31<316.523 387.058> 362 27<319.215 365.464> 401 30<260.243 364.543> 550 35<214.088 392.861>
LayerCount: 4
Back
Fore
SplineSet
264 352 m 0
 264 325 286 303 313 303 c 0
 340 303 362 325 362 352 c 0
 362 379 340 401 313 401 c 0
 286 401 264 379 264 352 c 0
110 469 m 1
 78 469 l 1
 127 544 209.294921875 586 302 586 c 0
 462 586 585 454 585 292 c 0
 585 110 475.091796875 0 310 0 c 0
 143 0 33 94 33 250 c 0
 33 339 79 432 156 432 c 0
 204.891601562 432 209 398 209 373 c 0
 209 346 204 338 204 302 c 0
 204 247 245 218 300 218 c 0
 360 218 401 255 401 314 c 0
 401 342 392 359 387 366 c 1
 389 356 389 351 389 343 c 0
 389 306 361 271 313 271 c 0
 262 271 233 315 233 351 c 0
 233 397 269.997395904 432 318 432 c 0
 387 432 431 382 431 306 c 0
 431 237 375 186 302 186 c 0
 242 186 173 216 173 295 c 0
 173 334 180 348 180 379 c 0
 180 391.165039062 175.568359375 405 154 405 c 0
 106 405 68 346 68 267 c 0
 68 134 172.7734375 71 308 71 c 0
 450.352539062 71 550 166 550 307 c 0
 550 443.715820312 444 560 303 560 c 0
 222 560 158 531 110 469 c 1
EndSplineSet
Layer: 2
Layer: 3
EndChar

StartChar: uni0DB9
Encoding: 50 3513 42
Width: 636
VWidth: 1000
Flags: HW
LayerCount: 4
Back
Fore
SplineSet
206.25 0 m 0
 88.25 0 30 116.782937559 30 226.75 c 0
 30 332.007246437 74 431.5 148 431.5 c 0
 167.006835938 431.5 173 428 180 423 c 0
 190.609375 415.421875 198.873046875 401 198.873046875 371 c 0
 198.873046875 357 199 340.014648438 199 337 c 0
 199 284 240 253 295 253 c 0
 348 253 389 281 389 326 c 4
 389 327 389 329 388 331 c 5
 382 318 358.65625 289 318 289 c 4
 271.278320312 289 245 324.079101562 245 360 c 260
 245 402 277 434 322 434 c 4
 381 434 418 389 418 330 c 4
 418 268 367 224 296 224 c 0
 225.25445084 224 172 267 172 339 c 0
 172 344.219726562 172.27544052 362.934877611 172.27544052 371.999999557 c 0
 172.27544052 392 168.197801988 406 145 406 c 0
 94 406 61 327 61 254 c 0
 61 158.921030212 108.25 72 191.25 72 c 0
 213.25 72 220.826171875 75.66796875 225.25 79 c 1
 223.25 87 222.25 101 222.25 108 c 0
 222.25 180 277.25 200 310.25 200 c 0
 343.25 200 398.25 180 398.25 108 c 0
 398.25 101 397.25 87 395.25 79 c 1
 399.673828125 75.66796875 407.25 72 429.25 72 c 0
 498.25 72 554 181.873239616 554 286 c 0
 554 433.479491635 458 556 298 556 c 0
 199 556 140 525 93 466 c 1
 62 466 l 1
 107 531 173 579 300 579 c 0
 488 579 590 431.114542606 590 254 c 0
 590 126.500578052 530.25 0 414.25 0 c 0
 390.25 0 371.25 4 350.25 17 c 1
 350.25 48 369.25 70 369.25 108 c 0
 369.25 142 345.690429688 171 310.25 171 c 0
 274.809570312 171 251.25 142 251.25 108 c 0
 251.25 70 270.25 48 270.25 17 c 1
 249.25 4 230.25 0 206.25 0 c 0
274 363 m 4
 274 337 295 316 321 316 c 4
 347 316 368 337 368 363 c 4
 368 389 347 410 321 410 c 4
 295 410 274 389 274 363 c 4
EndSplineSet
Layer: 2
Layer: 3
EndChar

StartChar: uni0DBA
Encoding: 51 3514 43
Width: 636
VWidth: 1000
Flags: W
HStem: -1 72<119.281 265.62 353.744 513.156> 300 25<350.56 489.446> 362 27<153.249 251> 397 36<380.932 505.202>
VStem: 30 34<138.314 273.596> 295 27<110.181 176> 321 29<319 362.406> 519 39<315.618 383.634> 555 37<119.108 245.666>
LayerCount: 4
Back
Fore
SplineSet
251 387 m 5xf880
 251 359 l 5
 240.333333333 361 229.666666667 362 219 362 c 4
 130.336145814 362 64 298 64 212 c 4
 64 126 118.286132812 71 193 71 c 4
 242 71 295 97 295 146 c 6
 295 176 l 5
 322 176 l 5
 322 147 l 6
 322 98.2716829231 378 71 435 71 c 4
 516.554344526 71 555 120 555 186 c 4
 555 272 494 300 408 300 c 4
 378 300 348.666666667 296.333333333 322 289 c 5xfc80
 321.333333333 296.333333333 321 303.333333333 321 310 c 4
 321 388.666666667 366.93359375 433 451 433 c 4
 511 433 558 409 558 357 c 4xfb
 558 338 548 312 521 303 c 5
 564.333333333 277 592 227.798828125 592 167 c 4
 592 71 528 -1 436 -1 c 4
 369.969703923 -1 327 25 307 71 c 5
 284.333333333 23 244 -1 186 -1 c 4
 85.4659984779 -1 30 82 30 185 c 4
 30 305 106.325380748 389 223 389 c 4
 233 389 242.333333333 388.333333333 251 387 c 5xf880
350 319 m 5xfb
 366 323 390 325 410 325 c 4
 446 325 475 321.333333333 497 314 c 5
 510 320 519 334 519 350 c 4
 519 381.860375463 486 397 451 397 c 4
 392.005859375 397 352.618461191 372.678454422 350 319 c 5xfb
EndSplineSet
Layer: 2
Layer: 3
EndChar

StartChar: uni0DBB
Encoding: 52 3515 44
Width: 528
VWidth: 1000
Flags: W
HStem: 0 73<147.727 330.785> 411 196<215.391 509.5>
VStem: 31 35<162.048 300.538> 430 52<169.286 322.293>
LayerCount: 4
Back
Fore
SplineSet
169 415 m 4
 226 440 324 462 411 526 c 4
 461.773406003 563.350551542 474 607 503 607 c 4
 516 607 526 600.333007812 526 589 c 4
 526 564 503 535 442 500 c 4
 405.055615481 478.802402325 335 446 291 434 c 5
 340 431.5 390.810650326 409.850717105 429.5 366.5 c 4
 465.350590935 326.33006076 482 281.003971989 482 225 c 4
 482 102 383.523302632 0 248 0 c 4
 123.953919804 0 31 89.1821923439 31 213 c 4
 31 322.52211473 93.8328089646 382.031933756 169 415 c 4
66 237 m 4
 66 143.671016059 131.981483069 73 240 73 c 4
 345 73 430 149 430 254 c 4
 430 356 355.594726562 411 264 411 c 4
 166.78125 411 66 339.359738008 66 237 c 4
EndSplineSet
Layer: 2
Layer: 3
EndChar

StartChar: uni0DBD
Encoding: 53 3517 45
Width: 670
VWidth: 1000
Flags: W
HStem: -154 43<267.592 477.856> 171 45<417.525 552.378> 282 26<265 368 395.747 518> 404 28<284.637 480.073>
VStem: 31 76<46.0613 252.742> 368 27.7472<245.763 282> 575 36<243.725 344.178> 594 30.3352<-2.16669 84>
LayerCount: 4
Back
Fore
SplineSet
265 308 m 5xfe
 518 308 l 5
 518 282 l 5
 396 282 l 5
 395.839051588 280.658763231 395.747210892 279.325013247 395.747210892 278.000001216 c 4
 395.747210892 242 438 216 486 216 c 4
 541 216 575 245 575 294 c 4xfe
 575 373 489 404 370 404 c 4
 220 404 107 299.162673918 107 161 c 4
 107 -6 220 -111 381 -111 c 4
 488 -111 594 -50 594 66 c 4
 594 72 592 80 590 84 c 5
 624 84 l 5
 624.248734182 79.2740505423 624.335204447 74.6070958657 624.335204447 70.0000108564 c 4xfd
 624.335204447 -72 499.652597213 -154 361 -154 c 4
 180 -154 31 -58 31 135 c 4
 31 322.923338698 169.392391422 432 364 432 c 4
 487.659863223 432 611 392.852912814 611 280 c 4
 611 210.441249513 553 171 485 171 c 4
 417 171 368 212 368 282 c 5
 265 282 l 5
 265 308 l 5xfe
EndSplineSet
Layer: 2
Layer: 3
EndChar

StartChar: uni0DC1
Encoding: 55 3521 46
Width: 631
VWidth: 1000
Flags: W
HStem: -3 30<407.268 469.559> -1 71<129.56 275.013> 24 29<467.137 506.996> 158 26<434.607 533.409> 218 24<240.349 291.781> 370 62<314.045 452.431> 408.463 23.5372<173.614 251>
VStem: 34 33<149.209 302.317> 208 25<192 210.763> 309 34<109.962 205.866> 367 31<34.4043 125.828> 534 48<64.2541 155.16 176 275.49>
LayerCount: 4
Back
Fore
SplineSet
251 408 m 5x5bf0
 246.640021914 408.302776256 242.304586527 408.462817593 238.000003267 408.462817593 c 4
 140 408.462817593 67 339.924804688 67 230 c 260
 67 146 112.190335299 70 202 70 c 4x5bf0
 254 70 309 100 309 157 c 4
 309 197 290.465150791 218 259 218 c 4
 253 218 245 217 237 211 c 5
 235 206 234 197 233 192 c 5
 208 192 l 5
 222 328 276 432 399 432 c 4
 523.00100806 432 582 312.364303026 582 196 c 4
 582 128.199579906 558.073707854 36.9960192483 529 1 c 5
 502 1 l 5
 505.333333333 5.66666666667 507 10 507 14 c 4
 507 20.6666666667 503.333333333 24 496 24 c 4x3df0
 475 24 465 -3 427 -3 c 4
 390.405730212 -3 367 36 367 75 c 4
 367 138.084780925 413 184 484 184 c 4
 501.333007812 184 523 180 534 176 c 5
 534 271.674666835 475.593344867 370 383 370 c 4x9df0
 307.183804487 370 252 314 240 238 c 5
 247 241 255.333333333 242 262 242 c 4
 310 242 343 208 343 138 c 4
 343 62 289 -1 198 -1 c 4
 90.9953272048 -1 34 92 34 206 c 4
 34 334 106.999015752 432 234 432 c 4
 238 432 248 431.5 251 431 c 5
 251 408 l 5x5bf0
519 42 m 5
 530.720886598 73.2556975936 534 119 534 147 c 5
 520 155 503 158 482 158 c 4
 432 158 398 125 398 79 c 4
 398 51 408 27 433 27 c 4x99f0
 458 27 480 53 500 53 c 4x39f0
 508 53 516 49 519 42 c 5
EndSplineSet
Layer: 2
Layer: 3
EndChar

StartChar: uni0DC2
Encoding: 56 3522 47
Width: 598
VWidth: 1000
Flags: W
HStem: 0 71<165.76 441.489> 135 26<220.313 382.536> 232 22<221.374 382.309> 301.718 25.2104<137.183 244.682 353.184 493.288> 395.274 38.3514<146.88 231.541> 404.638 28.4804<381.892 483.336>
VStem: 31.3314 37.6686<145.617 254.663> 55.3252 83.3285<332.747 389.37> 172 30<175.597 218.823> 244.682 30.1876<325.316 378.086> 321.143 32.0411<325 379.229> 402 30<176.082 218.961> 505.479 35.54<315.441 386.529> 540 34.0059<151.063 258.063>
LayerCount: 4
Back
Fore
SplineSet
438.844851469 433.118522656 m 4xf6f4
 505 433.118522656 541.018818118 392.966132064 541.018818118 354.00000109 c 4xf4f8
 541.018818118 334 532.547911667 316.666882281 514 303 c 5
 554.33230994 279.472819202 574.005875264 240.742748716 574.005875264 186.451529958 c 4
 574.005875264 55.5619188946 447.644682871 -7.1054273576e-15 307 0 c 4
 158.589562849 0 31.3313942639 45.9203100819 31.3313942639 183.554236057 c 4xf6f4
 31.3313942639 274.623686336 99.2296726839 326.928127469 206.999992832 326.928127469 c 4
 220 326.928127469 231.208483236 326.289067581 244 325 c 5
 244.46074454 328.824179686 244.682006201 332.490731105 244.682006201 336.000018199 c 4
 244.682006201 375 219.122578671 395.274253688 188.000000927 395.274253688 c 4
 155.970149562 395.274253688 143.560777761 378.802322884 138.653731877 360.000000482 c 4
 135 346 122.345703125 328.073242188 94 328.073242188 c 4
 75 328.073242188 55.3251953125 340 55.3251953125 365 c 4
 55.3251953125 409 103 433.625654084 158.189212207 433.625654084 c 4xf9f0
 230.547628845 433.625654084 274.869626667 401 274.869626667 334.000351519 c 4
 274.869626667 322.637138529 273.631835938 311.303710938 271 298 c 5
 253.180664062 300.375976562 218.23046875 301.717773438 217 301.717773438 c 4
 139.720703125 301.717773438 69 275.738098097 69 201 c 4
 69 106.583973361 193 71 307 71 c 4
 413.550560931 71 540 110 540 205 c 4
 540 277.999460492 472 303.612307156 394.000002487 303.612307156 c 4
 370.819078063 303.612307156 346.926878013 301.168523275 324 297 c 5
 322.072237276 307.92398877 321.143157328 318.266754681 321.143157328 327.99999265 c 4
 321.143157328 397 365.956884184 433.118522656 438.844851469 433.118522656 c 4xf6f4
489 315 m 5
 500.332281081 325.70270991 505.478854717 338.485512262 505.478854717 350.99999917 c 4
 505.478854717 380 479 404.638085784 432.00000156 404.638085784 c 4
 388.777760128 404.638085784 353.184269997 381 353.184269997 336 c 4
 353.184269997 332.227818093 353.463260313 328.864525744 354 325 c 5
 370.954790497 327.055126121 387.344972512 328.097600692 402.999995377 328.097600692 c 4
 436 328.097600692 464.459880481 323.7643284 489 315 c 5
501 289 m 5
 479 268 440 248 399 240 c 5
 418.333007812 231.333007812 432 216.333007812 432 197 c 4
 432 152 375 135 296 135 c 4
 240.326165766 135 172 149 172 198 c 4
 172 226 192 254 288 254 c 4
 311 254 358.093257182 255.452635905 389 261 c 4
 428 268 460 287 469 296 c 5
 501 289 l 5
298 232 m 4
 233 232 202 220 202 198 c 4
 202 175 234.333007812 161 299 161 c 4
 367 161 402 175 402 197 c 4
 402 221.67578125 368 232 298 232 c 4
EndSplineSet
Layer: 2
Layer: 3
EndChar

StartChar: uni0DC3
Encoding: 57 3523 48
Width: 677
VWidth: 1000
Flags: W
HStem: -1 72<135.441 285.558 382.772 546.09> 283 25<5 283 382 443.872> 291 25<382.668 525.345> 395 36.5<168.714 255.708 414.052 524.635>
VStem: 51 38<119.848 227.584> 82 74.5<326.244 384.946> 283.086 30.0605<308 359.774> 321 27<112.71 182> 540 39<306.344 379.751> 591 37<119.138 237.15>
LayerCount: 4
Back
Fore
SplineSet
460 0 m 4xbbc0
 395.333007812 0 352 31 333 82 c 5
 312 30 271 -1 203 -1 c 4
 108 -1 51 76 51 154 c 4xbbc0
 51 226 92 269 144 285 c 5
 177.760742188 297.19921875 231.875 308 269 308 c 6
 283 308 l 5
 283.08203125 310.041015625 283.0859375 309.041015625 283.0859375 311 c 4
 283.0859375 357 251 395 214 395 c 4
 173 395 162 371 156.5 355 c 4
 149.951171875 335.948242188 139.87109375 323 118 323 c 4
 102 323 82 333.368164062 82 359 c 4
 82 406 132 431.5 187 431.5 c 4
 275 431.5 313.146484375 369 313.146484375 296 c 4
 313.146484375 292.721679688 313.100585938 286.387695312 313 283 c 5
 216 283 l 6xd7c0
 163 283 89 248 89 175 c 4
 89 116.176395544 142 71 212 71 c 4
 267.764588955 71 321 101.781809699 321 152 c 6
 321 182 l 5
 348 182 l 5
 348 152 l 6
 348 96.3260473105 409.229844561 71 471 71 c 4
 540 71 591 114 591 182 c 4
 591 261 536 291 450 291 c 4
 418 291 391 289 353 282 c 5
 352.814453125 285.706054688 352.717070236 287.374324769 352.717070236 290.99999647 c 4
 352.717070236 375 400.57421875 432 476 432 c 4
 530 432 579 408 579 350 c 4
 579 328.666992188 565 306 550 297 c 5
 597.333333333 273.666666667 628 221.08203125 628 166 c 4
 628 58 558 0 460 0 c 4xbbc0
147 283 m 6xd3c0
 76 282 21 278.666992188 5 276 c 5
 5 308 l 5
 281 308 l 5
 309 283 l 5
 147 283 l 6xd3c0
382 310 m 5
 393 313 421 316 445 316 c 4xb3c0
 479 316 503 313 525 306 c 5
 537 319 540 334 540 346 c 260
 540 379 506.477539062 393 470 393 c 4
 418 393 386.666666667 364.666666667 382 310 c 5
EndSplineSet
Layer: 2
Layer: 3
EndChar

StartChar: si_Kh.halant
Encoding: 114 -1 49
Width: 630
VWidth: 1000
Flags: HW
LayerCount: 4
Back
Fore
SplineSet
160 508 m 1
 193 514 232.674804688 519 279 519 c 0
 387 519 469 490 527 422 c 1
 494 537 400 590 284 590 c 0
 212 590 139 567 139 543 c 0
 139 531 163 526 163 515 c 0
 163 513 162 510 160 508 c 1
42 442 m 9
 42 473 l 17
 74 485 126 499 126 508 c 0
 126 520 98 524 98 546 c 0
 98 583 163 629 278 629 c 0
 486 629 557 490 569 356 c 1
 575 338 582 301 582 267 c 1
 543 275 l 17
 543 283 542.826171875 279 542.826171875 283 c 0
 542.826171875 409 445 493.75 276 493.75 c 4
 200 493.75 123 480 42 442 c 9
92.740234375 72 m 0x9fe0
 92.740234375 48.3095703125 112.309570312 28.740234375 136 28.740234375 c 0
 159.690429688 28.740234375 179.259765625 48.3095703125 179.259765625 72 c 0
 179.259765625 95.6904296875 159.690429688 115.259765625 136 115.259765625 c 0
 112.309570312 115.259765625 92.740234375 95.6904296875 92.740234375 72 c 0x9fe0
72 101 m 1
 80 129 108 145 135 145 c 0x1fe0
 180.80859375 145 210 116 210 72 c 0
 210 37 180 -1 141 -1 c 0
 56 -1 32 108 32 183 c 0
 32 322 123.838867188 396 240 396 c 0
 333 396 413 343.14453125 413 258 c 0
 413 201 385 153 346 115 c 1
 349.333007812 115.666992188 352.333007812 116 355 116 c 0xafe0
 384 116 387 71 431 71 c 0
 483 71 543 187 543 280 c 1
 582 272 l 1
 582 139 516 0 416 0 c 0x4fe0
 352 0 348 54 321 54 c 256x2fe0
 308 54 282 34 240 -21 c 1
 204 -18 l 1
 217.333007812 -4.6669921875 246.0859375 34.025390625 288 84 c 0
 340 146 367 194 367 232 c 0
 367 286 328 320 236 320 c 0
 155.868164062 320 63 272 63 156 c 0
 63 144 66 118 72 101 c 1
EndSplineSet
Layer: 2
Layer: 3
Ligature2: "'abvs' Above Base Substitutions in Sinhala lookup 2-1" si_Kha si_Halant
EndChar

StartChar: si_Ca.halant
Encoding: 151 -1 50
Width: 621
VWidth: 1000
Flags: HW
LayerCount: 4
Back
Fore
SplineSet
160 508 m 1
 193 514 232.674804688 519 279 519 c 0
 387 519 479 485 527 422 c 1
 494 537 400 590 284 590 c 0
 212 590 139 567 139 543 c 0
 139 531 163 526 163 515 c 0
 163 513 162 510 160 508 c 1
42 442 m 9
 42 473 l 17
 74 485 126 499 126 508 c 0
 126 520 98 524 98 546 c 0
 98 583 163 629 278 629 c 0
 486 629 557 490 569 356 c 1
 572 343 577 301 577 267 c 1
 539 279 l 17
 539 287 538.826171875 294 538.826171875 298 c 0
 538.826171875 413 446 493.75 271 493.75 c 4
 195 493.75 123 480 42 442 c 9
319 277 m 1xfb80
 250 277 l 2
 205.559570312 277 166.1171875 264.814453125 141 249 c 0
 114 232 101 206.05078125 101 180 c 0
 101 94 208 71 298 71 c 0
 451 71 539 156 539 304 c 1
 577 274 l 1
 577 114 478 0 295 0 c 0
 174 0 64 46 64 165 c 0xfd80
 64 195.720703125 73.775390625 227.831054688 97 248 c 0
 113.126953125 262.004882812 132 273 158 278 c 1
 191.760742188 290.19921875 232.875 302 270 302 c 2
 287 302 l 1
 287.08203125 304.041015625 287.0859375 306.041015625 287.0859375 308 c 0
 287.0859375 362 254.125 395 215 395 c 0
 168.9453125 395 162.453125 371 157.5 355 c 0
 151.542373343 335.755174458 141.37109375 323 119.5 323 c 0
 103.5 323 83 333.868164062 83 359.5 c 0
 83 404.3125 133 431.5 188 431.5 c 0
 276 431.5 319.146484375 376 319.146484375 290 c 0
 319.146484375 286.721679688 319.100585938 280.387695312 319 277 c 1xfb80
148 277 m 2
 77 276 30 272.666992188 14 270 c 1
 14 302 l 1
 285 302 l 1
 315 277 l 1
 148 277 l 2
EndSplineSet
Layer: 2
Layer: 3
Ligature2: "'abvs' Above Base Substitutions in Sinhala lookup 2-1" si_Ca si_Halant
EndChar

StartChar: si_Cha.halant
Encoding: 159 -1 51
Width: 598
VWidth: 1000
Flags: HW
LayerCount: 4
Back
Fore
SplineSet
473 291 m 4xefe0
 516.536132812 270.959960938 549 228 549 168 c 4
 549 45 423.685369974 0 298 0 c 4
 160.148102377 0 33 44 33 170 c 4
 33 249.202148438 96 312 208 312 c 4
 226.110770276 312 219 312 227 311 c 5
 228.333007812 317.666992188 229 324.333007812 229 331 c 4
 229 362 214 391 177 391 c 4
 154.990234375 391 143.896484375 378.047851562 137 363 c 4
 126 339 118.029296875 322 91 322 c 4
 72 322 53 334.666992188 53 360 c 4
 53 408.774414062 100.8984375 432 148 432 c 4
 214.892578125 432 258 393.392578125 258 326 c 4
 258 314 256.666992188 301.333007812 254 288 c 5
 242 289 238 290 229 290 c 4
 110 290 70 233 70 186 c 4
 70 97 189.23046875 71 292 71 c 4
 398 71 514 97 514 186 c 4xf7d0
 514 239 470 289 355 289 c 4
 333 289 298 286 284 285 c 5
 282 292 279 308 279 319 c 4
 279 401 336 435 406 435 c 4
 478 435 532 392 532 297 c 4
 532 240 506 160 433 160 c 4
 373 160 348.514648438 223 348.514648438 293 c 4
 348.514648438 396.658203125 389.831054688 495.583984375 430 545.5 c 4
 462.834960938 586.301757812 505.044921875 617 541.75 617 c 4
 557.75 617 568 606 568 596 c 4
 568 555.893710905 519.950979925 589.361178467 451.75 516 c 4
 411.392136061 472.588593562 376.517578125 391 376.517578125 292 c 4
 376.517578125 245 388 187 435 187 c 4
 478 187 504 244 504 295 c 4
 504 378 464 410 402 410 c 4
 358 410 306 389 306 324 c 4
 306 319 306 314 307 310 c 5
 314 311 334 312.319335938 350 312.319335938 c 4
 388 312.319335938 433.868164062 309.013671875 473 291 c 4xefe0
326 712 m 9
 326 581 l 17
 332 578 349.229492188 575 360 575 c 0
 394 575 410 595 410 621 c 0
 410 677 347 695 326 712 c 9
300 366 m 25
 300 757 l 17
 356 710 447 706 447 624 c 0
 447 589 420 550 369 550 c 0
 352 550 335 553 326 556 c 9
 326 405 l 25
 300 366 l 25
EndSplineSet
Layer: 2
Layer: 3
Ligature2: "'abvs' Above Base Substitutions in Sinhala lookup 2-1" si_Cha si_Halant
EndChar

StartChar: si_Ja.halant
Encoding: 164 -1 52
Width: 598
VWidth: 1000
Flags: HW
LayerCount: 4
Back
Fore
SplineSet
415 407 m 4
 344 407 323 374 323 334 c 4
 323 326.666666667 324 318.333333333 326 309 c 5
 334 310 343 311 356 311 c 4
 447 311 549 283 549 168 c 4
 549 45 423.685369974 0 298 0 c 4
 160.148102377 0 33 44 33 170 c 4
 33 249.202148438 96 312 208 312 c 4
 226.110770276 312 227 312 235 311 c 5
 236.333333333 317.666666667 237 324.333333333 237 331 c 4
 237 362 220 391 183 391 c 4
 160.990234375 391 144.281900406 384.144213915 137.5 363 c 4
 130.223350491 340.313286161 117.529296875 322 90.5 322 c 4
 71.5 322 55 335.520874023 55 358.5 c 4
 55 405.784477234 106.3984375 432 153.5 432 c 4
 220.392578125 432 266 393.392270225 266 326 c 4
 266 314 264.666666667 301.333333333 262 288 c 5xefa0
 250 289 238 290 229 290 c 4
 110 290 70 233 70 186 c 4
 70 97 189.23046875 71 292 71 c 4
 398 71 514 97 514 186 c 4xefa0
 514 237 470 289 355 289 c 4
 333 289 314 286 300 285 c 5
 295.333333333 301 293 316.333333333 293 331 c 4
 293 409 350 434 419 434 c 4
 460 434 520 412 520 353 c 4xdfc0
 520 324.446289062 503 285 438 285 c 4
 384 285 363 332 363 375 c 4
 363 462 412.06640625 530.62890625 456 571 c 4
 493 605 524 617 544 617 c 4
 560 617 568 606 568 596 c 4
 568 569 498 561 449 511 c 4
 426.342773438 487.880859375 391 444 391 374 c 4
 391 339 407 311 440 311 c 4
 469 311 489 328.515699661 489 355 c 260
 489 387.990914009 459 407 415 407 c 4
326 712 m 9
 326 581 l 17
 332 578 349.229492188 575 360 575 c 0
 394 575 410 595 410 621 c 0
 410 677 347 695 326 712 c 9
300 366 m 25
 300 757 l 17
 356 710 447 706 447 624 c 0
 447 589 420 550 369 550 c 0
 352 550 335 553 326 556 c 9
 326 405 l 25
 300 366 l 25
EndSplineSet
Layer: 2
Layer: 3
Ligature2: "'abvs' Above Base Substitutions in Sinhala lookup 2-1" si_Ja si_Halant
EndChar

StartChar: uni0D86
Encoding: 3 3462 53
Width: 850
VWidth: 1000
Flags: W
HStem: -4 27<205.486 385.383> -1 37.4004<607.173 700.466> 200 29<388.393 447.237> 287 22<189.916 252> 365.6 37.4004<607.173 700.466> 393 40<196.956 288.512>
VStem: 33 80<87.6526 236.615> 316 31.023<309 357.673> 359 29<313 377.002> 384 4<207 235> 421.451 23.549<381.434 405.995> 464 62<238.559 338.87> 557 27<66.7321 132.32 269.68 335.268> 739 66<75.7744 326.226>
LayerCount: 4
Back
Fore
SplineSet
739 201 m 0x7b3c
 739 90.5400390625 712 36.400390625 653 36.400390625 c 0
 611.87109375 36.400390625 584 68.6904296875 584 117.169921875 c 0
 584 122.556640625 584.333007812 127.606445312 585 132.3203125 c 1
 558 132.3203125 l 1
 557.333007812 124.9140625 557 117.506835938 557 110.099609375 c 0
 557 41.271484375 600.587890625 -1 668 -1 c 0
 759 -1 805 72.73046875 805 201 c 0
 805 329.26953125 759 403 668 403 c 0
 600.587890625 403 557 360.728515625 557 291.900390625 c 0
 557 284.494140625 557.333007812 277.0859375 558 269.6796875 c 1
 585 269.6796875 l 1
 584.333007812 274.393554688 584 279.443359375 584 284.830078125 c 0
 584 333.309570312 611.87109375 365.599609375 653 365.599609375 c 0
 712 365.599609375 739 311.459960938 739 201 c 0x7b3c
428 200 m 0
 479.320433706 200 526 228.79640641 526 281 c 0
 526 354 445 369 445 403 c 0
 445 414 450 418 457 422 c 1
 438 418 l 0
 422 404 l 1
 421.681802112 401.93171373 421.450986646 399.934865834 421.450986646 398 c 0
 421.450986646 371 437.325961395 361.900561124 448 345 c 0
 460 326 464 311 464 287 c 0
 464 249 440.170365761 229 411 229 c 0
 403.666666667 229 393 230 384 235 c 9
 384 207 l 17x3b7c
 400 202 414.666666667 200 428 200 c 0
462 424 m 1
 439 435 l 1
 419 429.666666667 401.333333333 418.333333333 386 401 c 0
 368 379.666666667 359 350 359 313 c 0
 359 137 359 -39 359 -215 c 1x33bc
 388 -215 l 1x337c
 388 315 l 2x33bc
 388 352 392 393 462 424 c 1
523 51 m 1
 523 83 l 1
 480 50 410 23 297 23 c 0
 161 23 113 88 113 164 c 0
 113 200 130 287 252 287 c 2
 347 287 l 1
 347.014753113 288.003211652 347.022958637 289.003232324 347.022958637 289.999996282 c 0
 347.022958637 382 295 433 211 433 c 0
 154 433 106 410 106 369 c 0
 106 344.66015625 125 331 147 331 c 0
 172 331 183 347 188 358 c 0
 196.04296875 375.694335938 205 393 241 393 c 0
 287 393 314.512785982 352.872813538 316 309 c 1
 202 309 l 2
 94 309 33 248 33 160 c 0
 33 62 118 -4 282 -4 c 0xb73c
 386 -4 472 17 523 51 c 1
EndSplineSet
Layer: 2
Layer: 3
EndChar

StartChar: uni0D82
Encoding: 0 3458 54
Width: 364
VWidth: 1000
Flags: W
HStem: 24.6992 49.4189<107.787 238.213> 277.882 27.4189<120.459 225.541>
VStem: 29.8936 37.1104<119.59 232.338> 278.996 37.1104<119.59 232.338>
LayerCount: 4
Back
Fore
SplineSet
67.00390625 176 m 4
 67.00390625 119.72265625 114.44921875 74.1181640625 173 74.1181640625 c 4
 231.55078125 74.1181640625 278.99609375 119.72265625 278.99609375 176 c 4
 278.99609375 232.27734375 231.55078125 277.881835938 173 277.881835938 c 4
 114.44921875 277.881835938 67.00390625 232.27734375 67.00390625 176 c 4
29.8935546875 165 m 4
 29.8935546875 242.111328125 94.3466796875 305.30078125 173 305.30078125 c 4
 251.653320312 305.30078125 316.106445312 242.111328125 316.106445312 165 c 4
 316.106445312 87.888671875 251.653320312 24.69921875 173 24.69921875 c 4
 94.3466796875 24.69921875 29.8935546875 87.888671875 29.8935546875 165 c 4
EndSplineSet
Layer: 2
Layer: 3
EndChar

StartChar: uni0D83
Encoding: 1 3459 55
Width: 248
VWidth: 1000
Flags: W
HStem: 26 30.46<78.0276 151.972> 165.54 28.46<78.5056 151.494> 228 30.46<78.0276 151.972> 367.54 28.46<78.5056 151.494>
VStem: 31 29.46<74.0056 147.905 276.006 349.905> 169.54 29.46<74.0056 147.905 276.006 349.905>
LayerCount: 4
Back
Fore
SplineSet
60.4599609375 111 m 4
 60.4599609375 80.7001953125 84.7001953125 56.4599609375 115 56.4599609375 c 4
 145.299804688 56.4599609375 169.540039062 80.7001953125 169.540039062 111 c 4
 169.540039062 141.299804688 145.299804688 165.540039062 115 165.540039062 c 4
 84.7001953125 165.540039062 60.4599609375 141.299804688 60.4599609375 111 c 4
31 110 m 4
 31 156 69 194 115 194 c 4
 161 194 199 156 199 110 c 4
 199 64 161 26 115 26 c 4
 69 26 31 64 31 110 c 4
60.4599609375 313 m 4
 60.4599609375 282.700195312 84.7001953125 258.459960938 115 258.459960938 c 4
 145.299804688 258.459960938 169.540039062 282.700195312 169.540039062 313 c 4
 169.540039062 343.299804688 145.299804688 367.540039062 115 367.540039062 c 4
 84.7001953125 367.540039062 60.4599609375 343.299804688 60.4599609375 313 c 4
31 312 m 4
 31 358 69 396 115 396 c 4
 161 396 199 358 199 312 c 4
 199 266 161 228 115 228 c 4
 69 228 31 266 31 312 c 4
EndSplineSet
Layer: 2
Layer: 3
EndChar

StartChar: uni0D87
Encoding: 4 3463 56
Width: 878
VWidth: 1000
Flags: W
HStem: -147 54<743.088 828.766> -4 27<205.486 385.383> 200 29<388.393 447.237> 287 22<189.916 252> 313 26<547 755> 393 40<196.956 288.512>
VStem: 33 80<87.6526 236.615> 316 31.023<309 357.673> 359 29<313 377.002> 384 4<207 235> 421.451 23.549<381.434 405.995> 464 62<238.559 338.87> 628 69<-43.9571 133.56>
LayerCount: 4
Back
Fore
SplineSet
547 339 m 5xff38
 793 339 l 21
 792.333007812 337 791.333007812 331.666992188 790 323 c 5
 722 223 697 129 697 50 c 4
 697 -54 750 -93 808 -93 c 4
 820.666992188 -93 833.333007812 -91.3330078125 846 -88 c 5
 850 -106 l 5
 822.666992188 -136.666992188 792 -147 751 -147 c 4
 666 -147 628 -73 628 14 c 4
 628 133 702 254 755 313 c 5
 547 313 l 5
 547 339 l 5xff38
428 200 m 4
 479.320433706 200 526 228.79640641 526 281 c 4
 526 354 445 369 445 403 c 4
 445 414 450 418 457 422 c 5
 438 418 l 4
 422 404 l 5
 421.681802112 401.93171373 421.450986646 399.934865834 421.450986646 398 c 4
 421.450986646 371 437.325961395 361.900561124 448 345 c 4
 460 326 464 311 464 287 c 4
 464 249 440.170365761 229 411 229 c 4
 403.666666667 229 393 230 384 235 c 13
 384 207 l 21xff78
 400 202 414.666666667 200 428 200 c 4
462 424 m 5
 439 435 l 5
 419 429.666666667 401.333333333 418.333333333 386 401 c 4
 368 379.666666667 359 350 359 313 c 4
 359 137 359 -39 359 -215 c 5xffb8
 388 -215 l 5xff78
 388 315 l 6xffb8
 388 352 392 393 462 424 c 5
523 51 m 5
 523 83 l 5
 480 50 410 23 297 23 c 4
 161 23 113 88 113 164 c 4
 113 200 130 287 252 287 c 6
 347 287 l 5
 347.014753113 288.003211652 347.022958637 289.003232324 347.022958637 289.999996282 c 4
 347.022958637 382 295 433 211 433 c 4
 154 433 106 410 106 369 c 4
 106 344.66015625 125 331 147 331 c 4
 172 331 183 347 188 358 c 4
 196.04296875 375.694335938 205 393 241 393 c 4
 287 393 314.512785982 352.872813538 316 309 c 5
 202 309 l 6
 94 309 33 248 33 160 c 4
 33 62 118 -4 282 -4 c 4
 386 -4 472 17 523 51 c 5
EndSplineSet
Layer: 2
Layer: 3
EndChar

StartChar: uni0D88
Encoding: 5 3464 57
Width: 878
VWidth: 1000
Flags: W
HStem: -148 42<750.328 845.812> -4 27<205.486 385.383> 200 29<388.393 447.237 663 776> 287 22<189.916 252> 315 24<545 746> 393 40<196.956 288.512>
VStem: 33 80<87.6526 236.615> 316 31.023<309 357.673> 359 29<313 377.002> 384 4<207 235> 421.451 23.549<381.434 405.995> 464 62<238.559 338.87> 631 69<-60.4848 70.4827>
LayerCount: 4
Back
Fore
SplineSet
545 339 m 5xff38
 790 339 l 5
 790 317 l 5
 663 223 l 5
 813 223 l 5
 813 201 l 5
 767 168 700 96 700 13 c 4
 700 -74 758.188476562 -106 847 -106 c 5
 847 -131 l 5
 821.666992188 -142.333007812 795.333007812 -148 770 -148 c 4
 679.408203125 -148 631 -91.2392578125 631 -12 c 4
 631 78 710.630859375 155.419921875 776 199 c 5
 613 199 l 5
 613 218 l 5
 746 315 l 5
 545 315 l 5
 545 339 l 5xff38
428 200 m 4
 479.320433706 200 526 228.79640641 526 281 c 4
 526 354 445 369 445 403 c 4
 445 414 450 418 457 422 c 5
 438 418 l 4
 422 404 l 5
 421.681802112 401.93171373 421.450986646 399.934865834 421.450986646 398 c 4
 421.450986646 371 437.325961395 361.900561124 448 345 c 4
 460 326 464 311 464 287 c 4
 464 249 440.170365761 229 411 229 c 4
 403.666666667 229 393 230 384 235 c 13
 384 207 l 21xff78
 400 202 414.666666667 200 428 200 c 4
462 424 m 5
 439 435 l 5
 419 429.666666667 401.333333333 418.333333333 386 401 c 4
 368 379.666666667 359 350 359 313 c 4
 359 137 359 -39 359 -215 c 5xffb8
 388 -215 l 5xff78
 388 315 l 6xffb8
 388 352 392 393 462 424 c 5
523 51 m 5
 523 83 l 5
 480 50 410 23 297 23 c 4
 161 23 113 88 113 164 c 4
 113 200 130 287 252 287 c 6
 347 287 l 5
 347.014753113 288.003211652 347.022958637 289.003232324 347.022958637 289.999996282 c 4
 347.022958637 382 295 433 211 433 c 4
 154 433 106 410 106 369 c 4
 106 344.66015625 125 331 147 331 c 4
 172 331 183 347 188 358 c 4
 196.04296875 375.694335938 205 393 241 393 c 4
 287 393 314.512785982 352.872813538 316 309 c 5
 202 309 l 6
 94 309 33 248 33 160 c 4
 33 62 118 -4 282 -4 c 4
 386 -4 472 17 523 51 c 5
EndSplineSet
Layer: 2
Layer: 3
EndChar

StartChar: uni0D8C
Encoding: 9 3468 58
Width: 991
VWidth: 1000
Flags: W
HStem: -161 33<257.705 429.935> -1 28<746.935 827.978> 213 26<644.458 719.529> 271 25<219.062 298> 390 41.5<358.585 461.761> 408 25<759.844 831.767>
VStem: 32 77<8.6261 187.1> 574 29<3.92202 69> 583 29<270.879 390.938> 684 27<67.8803 158> 715.139 27.7227<338.242 392.31> 736 43<247.747 334.089> 873 70<92.9076 347.533>
LayerCount: 4
Back
Fore
SplineSet
655 429 m 5xf6d8
 620 429 l 5
 599 405 583 370.666992188 583 322 c 4
 583 262.448242188 622 213 685 213 c 4
 735.493164062 213 779 238.916015625 779 289 c 4xf6d8
 779 313 767 331.333007812 743 344 c 5
 742.86328125 346.384765625 742.861328125 348.71875 742.861328125 351 c 4
 742.861328125 390 764 408 798 408 c 4
 846 408 873 351.017578125 873 239 c 4
 873 101 850 27 791 27 c 4
 738.383789062 27 711 72.017578125 711 126 c 4
 711 136.666992188 712 147.333007812 714 158 c 5
 688 158 l 5
 685.333007812 145.333007812 684 133 684 121 c 4
 684 54.9697265625 721 -1 795 -1 c 4
 900 -1 943 102 943 221 c 4
 943 316.586914062 912 433 809 433 c 4
 743.307617188 433 715.138671875 399 715.138671875 350 c 4xf668
 715.138671875 345.20703125 715.43359375 343.20703125 716 338 c 5
 729.333007812 324 736 308.333007812 736 291 c 4
 736 262.458007812 718 239 684 239 c 4
 638.379882812 239 612 277.290039062 612 323 c 4
 612 375.666992188 633 411 655 429 c 5xf6d8
539 271 m 5
 539.048557478 272.675233006 539.074783684 274.341975608 539.074783684 275.999995706 c 4
 539.074783684 370 468.871700649 431.5 376 431.5 c 4
 313 431.5 267 410 267 365 c 4
 267 345.182366328 283 328 305 328 c 4
 330 328 339.454261497 342.04953147 347 354.5 c 4
 360.699662251 377.104442714 380.302185915 390 408 390 c 4
 460.752569308 390 504 346 507 296 c 5
 264 296 l 6
 121 296 32 210 32 99 c 4
 32 -62 177 -161 328 -161 c 4
 480 -161 603 -64 603 69 c 5
 574 69 l 5xfb48
 574 -40 468 -128 341 -128 c 4
 216 -128 109 -30 109 110 c 4
 109 203.63883956 174 271 298 271 c 6
 539 271 l 5
EndSplineSet
Layer: 2
Layer: 3
EndChar

StartChar: uni0D96
Encoding: 19 3478 59
Width: 1034
VWidth: 1000
Flags: W
HStem: -2 28<788.935 869.978> 0 70<131.394 272.429 339.136 475.002> 212 26<686.458 761.529> 224 29<238.559 353.314> 289 27<288.575 353.616> 406 25.5<112.437 168.956 285.651 355.829 800.354 874.612> 556 23<209.954 374.416>
VStem: 30 31<166.2 328.311> 172 27<290.656 402.998> 245 29<329.438 396.012> 293 24<103.887 167> 389 29<285.479 359.953> 554 36<182.11 372.076> 625 29<269.879 389.938> 726 27<66.8803 157> 757.139 27.7227<337.242 391.31> 778 43<246.747 333.089> 915 70<91.9076 346.533>
LayerCount: 4
Back
Fore
SplineSet
697 428 m 5xaffec0
 662 428 l 5
 641 404 625 369.666992188 625 321 c 4
 625 261.448242188 664 212 727 212 c 4
 777.493164062 212 821 237.916015625 821 288 c 4xaffec0
 821 312 809 330.333007812 785 343 c 5
 784.86328125 345.384765625 784.861328125 347.71875 784.861328125 350 c 4
 784.861328125 389 806 407 840 407 c 4
 888 407 915 350.017578125 915 238 c 4
 915 100 892 26 833 26 c 4
 780.383789062 26 753 71.017578125 753 125 c 4
 753 135.666992188 754 146.333007812 756 157 c 5
 730 157 l 5
 727.333007812 144.333007812 726 132 726 120 c 4
 726 53.9697265625 763 -2 837 -2 c 4
 942 -2 985 101 985 220 c 4
 985 315.586914062 954 432 851 432 c 4
 785.307617188 432 757.138671875 398 757.138671875 349 c 4xafff40
 757.138671875 344.20703125 757.43359375 342.20703125 758 337 c 5
 771.333007812 323 778 307.333007812 778 290 c 4
 778 261.458007812 760 238 726 238 c 4
 680.379882812 238 654 276.290039062 654 322 c 4
 654 374.666992188 675 410 697 428 c 5xaffec0
274 363 m 4
 274 337 295 316 321 316 c 4
 347 316 368 337 368 363 c 4
 368 389 347 410 321 410 c 4
 295 410 274 389 274 363 c 4
388 331 m 5
 382 318 358.65625 289 318 289 c 4
 271.278320312 289 245 324.079101562 245 360 c 260
 245 402 277 434 322 434 c 4
 381 434 418 389 418 330 c 4
 418 268 367 224 296 224 c 4
 225.25445084 224 172 267 172 339 c 4
 172 344.219726562 172.27544052 362.934877611 172.27544052 371.999999557 c 4
 172.27544052 392 168.197801988 406 145 406 c 4
 94 406 61 327 61 254 c 4
 61 149.666457941 116 70 199 70 c 4
 273 70 293 107.666992188 293 141 c 6
 293 167 l 5
 317 167 l 5
 317 140 l 6
 317 95.748046875 356 71 410 71 c 4
 505.558649722 71 554 181.873239616 554 286 c 4
 554 433.479491635 458 556 298 556 c 4
 199 556 140 525 93 466 c 5
 62 466 l 5
 107 531 173 579 300 579 c 4
 488 579 590 431.114542606 590 254 c 4
 590 126.500578052 543 0 406 0 c 4
 365 0 321 16 305 55 c 5
 283 15 246 0 196 0 c 4
 78 0 30 127 30 224 c 4
 30 332 74 431.5 148 431.5 c 4
 167.006835938 431.5 173 428 180 423 c 4
 190.609375 415.421875 198.873046875 401 198.873046875 371 c 4
 198.873046875 357 199 340.014648438 199 337 c 4
 199 284 240 253 295 253 c 4x5ffe40
 348 253 389 281 389 326 c 4
 389 327 389 329 388 331 c 5
EndSplineSet
Layer: 2
Layer: 3
EndChar

StartChar: uni0D9E
Encoding: 24 3486 60
Width: 617
VWidth: 1000
Flags: HW
LayerCount: 4
Back
Fore
SplineSet
87.990234375 346.602539062 m 0
 87.990234375 319.533203125 111.912109375 297.5 141.5 297.5 c 0
 171.087890625 297.5 195.009765625 319.533203125 195.009765625 346.602539062 c 0
 195.009765625 373.671875 171.087890625 395.705078125 141.5 395.705078125 c 0
 111.912109375 395.705078125 87.990234375 373.671875 87.990234375 346.602539062 c 0
51 140.25 m 0
 51 212.25 108.784179688 257.5 179 257.5 c 0
 215 257.5 244.5 250.75 279.5 250.75 c 0
 325.5 250.75 343.25 273.75 343.25 309.75 c 0
 343.25 381.358398438 266.830078125 411.211914062 213.75 411.211914062 c 0
 199.41881304 411.211914062 189.790910587 410.17143243 181.75 409 c 1
 200.75 399 222.5 379.75522422 222.5 345.25 c 0
 222.5 309.180664062 189.25 271.75 141.25 271.75 c 0
 100.252929688 271.75 60.5 302.727191925 60.5 345.75 c 0
 60.5 401.989155545 119.234549455 434 207.5 434 c 0
 310.5 434 372 378.705702066 372 306.25 c 0
 372 265.25 347.614257812 223.5 280.25 223.5 c 0
 238.93359375 223.5 224 230.5 181 230.5 c 0
 131.791992188 230.5 89 204.25 89 156.25 c 0
 89 104.25 129.615234375 71 186 71 c 0
 235.067382812 71 284 96.162109375 284 144 c 2
 284 177 l 1
 311 177 l 1
 311 144 l 2
 311 97.7841796875 361.8359375 70 412 70 c 0
 492 70 535 160 535 282 c 0
 535 439 424.647460938 558 278 558 c 0
 198.666992188 558 132 528 78 468 c 1
 46 468 l 1
 105.333007812 544 183.666992188 582 281 582 c 0
 440.94921875 582 570 445 570 260 c 0
 570 114 516 0 416 0 c 0
 354.286132812 0 329.342773438 21.388671875 298 59 c 1
 267.333007812 20.3330078125 233 0 188 0 c 0
 106.568359375 0 51 60.353515625 51 140.25 c 0
EndSplineSet
Layer: 2
Layer: 3
EndChar

StartChar: uni0DA3
Encoding: 29 3491 61
Width: 1087
VWidth: 1000
Flags: HW
HStem: -1 72<139.59 257.82 329.334 448.361 572.38 711.882 794.172 930.893> 73 27<70.1748 107.875> 288 25<214.989 383.323> 392 41<120.163 188.978> 406 28<369.383 605.673> 556 24<662.732 822.531>
VStem: 21 26<18.9674 55.9456> 29 77<300.927 381.512> 194.895 30.1055<346 383.641> 281 26<106.78 163> 474 43<135.558 242> 483 32<96 248> 740 28<107.926 196> 1005 34<177.901 367.249>
LayerCount: 4
Back
Fore
SplineSet
182 273 m 5
 164.666992188 258.333007812 145 234.666992188 129 212 c 4
 100.333007812 171.333007812 80.6666666667 131.666666667 70 95 c 5
 76 98.3333333333 82.3333333333 100 89 100 c 4
 118 100 142 71 199 71 c 4
 250.182680149 71 281 101.864211954 281 162 c 4
 281 164.208984375 281.041015625 161.3046875 281 163 c 5
 307 163 l 5
 306.963867188 161.6640625 307 163.330078125 307 162 c 4
 307 96.92631064 334 71 392 71 c 4
 454.088867188 71 474 123 474 159 c 4
 474 242 400.87890625 291 298 291 c 4
 241.333007812 291 203 282 182 273 c 5
671 398 m 5
 671 373 l 5
 667.651367188 373.2890625 664.31640625 373.436523438 661 373.436523438 c 4
 582 373.436523438 517 301 517 212 c 4
 517 135.557617188 564.567382812 71 638 71 c 4
 688.911132812 71 740 92 740 156 c 6
 740 196 l 5
 768 196 l 5
 768 156 l 6
 768 92 817.830078125 71 867 71 c 4
 962.709960938 71 1005 181 1005 284 c 4
 1005 442 890.908203125 556 744 556 c 4
 663.333007812 556 599.666992188 527.333007812 547 468 c 5
 515 468 l 5
 571.666992188 542.666992188 649.666992188 580 749 580 c 4
 912 580 1039 446 1039 261 c 4
 1039 139 997.875976562 0 872 0 c 4
 822.666992188 0 783 19.6669921875 753 59 c 5
 722.333007812 20.3330078125 684.671875 0 640 0 c 4
 538 0 483 96 483 195 c 4
 483 288 536.248046875 363.668945312 602 387 c 4
 622.666992188 394.333007812 645.666992188 398 671 398 c 5
219 308 m 5
 243 314 274.666992188 316 302 316 c 4
 422 316 515 251 515 126 c 4
 515 67.8472233203 482 -1 397 -1 c 4
 351 -1 317.333333333 20.3333333333 296 63 c 5
 278.666666667 21.6666666667 246.021148364 -1 204 -1 c 4
 117 -1 120 73 87 73 c 4
 64.6748046875 73 50 51 47 11 c 5
 21 22 l 5
 28.6966338402 91.2697045622 74.4524773728 184.16496867 109 232 c 4
 135 268 150 282 168 301 c 5
 180 314 193 330 193 352 c 4
 193 374 183.407917035 392 158 392 c 4
 144 392 122.478515625 384.287109375 116 363 c 4
 109 340 112.653628896 340.109331446 106 323 c 4
 99 305 84 297 69 297 c 4
 35 297 29 328 29 340 c 4
 29 394.098632812 79.3632281498 433 136 433 c 4
 185.711963719 433 220.079101562 402 220.079101562 356 c 4
 220.079101562 351.467773438 219.723632812 345.794921875 219 341 c 5
 279.982820511 397.272717953 371 434 475 434 c 4
 575 434 642 414 671 398 c 5
 614 390 l 5
 570 402 518 406 474 406 c 4
 342 406 266.999323864 350.053699149 219 308 c 5
EndSplineSet
Layer: 2
Layer: 3
EndChar

StartChar: uni0DA6
Encoding: 32 3494 62
Width: 699
VWidth: 1000
Flags: HW
HStem: 0 71<250.45 534.664> 289 22<251.212 337.589 424.798 533.118> 391 41<188.503 325.986> 406 28<506.232 573.598>
VStem: 27 29<126.656 304.889> 134 37<135.01 237.733> 338 29<311.179 373.541> 394 30<309.327 378.087> 460 29<323.776 392.145> 590 31<321.26 389.971> 615 35<134.382 236.345>
LayerCount: 4
Back
Fore
SplineSet
516 407 m 0
 445 407 424 374 424 334 c 0
 424 326.666992188 425 318.333007812 427 309 c 1
 435 310 444 311 457 311 c 0
 548 311 650 283 650 168 c 0
 650 45 524.685546875 0 399 0 c 0
 261.1484375 0 134 44 134 170 c 0
 134 249.202148438 197 312 309 312 c 0
 327.110351562 312 328 312 336 311 c 1
 337.333007812 317.666992188 338 324.333007812 338 331 c 0
 338 362 321 391 284 391 c 0
 261.990234375 391 245.896484375 378.047851562 239 363 c 0
 228 339 219.029296875 322 192 322 c 0
 173 322 156 335.666992188 156 361 c 0
 156 409.774414062 207.8984375 432 255 432 c 0
 321.892578125 432 367 393.392578125 367 326 c 0
 367 314 365.666992188 301.333007812 363 288 c 1xefa0
 351 289 339 290 330 290 c 0
 211 290 171 233 171 186 c 0
 171 97 290.23046875 71 393 71 c 0
 499 71 615 97 615 186 c 0xefa0
 615 237 571 289 456 289 c 0
 434 289 415 286 401 285 c 1
 396.333007812 301 394 316.333007812 394 331 c 0
 394 409 451 434 520 434 c 0
 561 434 621 412 621 353 c 0xdfc0
 621 324.446289062 604 285 539 285 c 0
 485 285 464 332 464 375 c 0
 464 462 513.06640625 530.62890625 557 571 c 0
 594 605 625 617 645 617 c 0
 661 617 669 606 669 596 c 0
 669 569 599 561 550 511 c 0
 527.342773438 487.880859375 492 444 492 374 c 0
 492 339 508 311 541 311 c 0
 570 311 590 328.515625 590 355 c 256
 590 387.991210938 560 407 516 407 c 0
293 427 m 5
 272 416 194 406 177 400 c 5
 102 382 56 319.267578125 56 218 c 4
 56 137.333007812 83 75.3330078125 135 30 c 5
 135 0 l 5
 68.5828449348 33.2085775326 27 120.069879655 27 221 c 4
 27 352.699751668 99.7561968728 433 239 433 c 4
 248 433 271 433 293 427 c 5
EndSplineSet
Layer: 2
Layer: 3
EndChar

StartChar: uni0DA8
Encoding: 34 3496 63
Width: 614
VWidth: 1000
Flags: W
HStem: 0 71<122.38 262.731 344.172 488.494> 367 36<148.927 221 371.075 469.162>
VStem: 33 34<139.882 280.816> 290 28<107.926 196> 316 30<432.683 557.228> 555 34<156.734 337.26>
LayerCount: 4
Back
Fore
SplineSet
589 232 m 4xec
 589 130 547.875544195 0 422 0 c 4
 372.666666667 0 333 19.6666666667 303 59 c 5
 272.333333333 20.3333333333 234.671641514 0 190 0 c 4
 88 0 33 96 33 195 c 4
 33 288 86.2482372121 363.668729333 152 387 c 4
 172.666666667 394.333333333 195.666666667 398 221 398 c 5
 221 373 l 5
 217.651266367 373.288683934 214.316413559 373.436185075 211.000002588 373.436185075 c 4
 132 373.436185075 67 301 67 212 c 4
 67 135.557617188 114.567764155 71 188 71 c 4
 238.911494873 71 290 92 290 156 c 6
 290 196 l 5
 318 196 l 5
 318 156 l 6xf4
 318 92 367.829957552 71 417 71 c 4
 512.709679823 71 555 158 555 247 c 4
 555 318 525 388 504 420 c 5
 489.333007812 387.333007812 459 367 416 367 c 4
 352.844726562 367 316 422 316 488 c 4
 316 538 331 574 358 605 c 5
 419 572 489.96484375 500.2421875 526 438 c 4
 564.783203125 371.01171875 589 307 589 232 c 4xec
485 448 m 5
 455 494 405 540 367 568 c 5
 355 550 346 526.666992188 346 492 c 4xec
 346 442.666992188 366 403 423 403 c 4
 447 403 474.763671875 414.140625 485 448 c 5
EndSplineSet
Layer: 2
Layer: 3
EndChar

StartChar: uni0DB0
Encoding: 42 3504 64
Width: 638
VWidth: 1000
Flags: W
HStem: 0 71<122.38 262.731 344.172 480.893> 373.436 24.5638<158.417 221> 556 24<212.732 372.531>
VStem: 33 34<139.882 280.816> 290 28<107.926 196> 555 34<177.901 367.249>
LayerCount: 4
Back
Fore
SplineSet
221 398 m 5
 221 373 l 5
 217.651266367 373.288683934 214.316413559 373.436185075 211.000002588 373.436185075 c 4
 132 373.436185075 67 301 67 212 c 4
 67 135.557617188 114.567764155 71 188 71 c 4
 238.911494873 71 290 92 290 156 c 6
 290 196 l 5
 318 196 l 5
 318 156 l 6
 318 92 367.829957552 71 417 71 c 4
 512.709679823 71 555 181 555 284 c 4
 555 442 440.908203125 556 294 556 c 4
 213.333007812 556 149.666992188 527.333007812 97 468 c 5
 65 468 l 5
 121.666666667 542.666666667 199.666666667 580 299 580 c 4
 462 580 589 446 589 261 c 4
 589 139 547.875544195 0 422 0 c 4
 372.666666667 0 333 19.6666666667 303 59 c 5
 272.333333333 20.3333333333 234.671641514 0 190 0 c 4
 88 0 33 96 33 195 c 4
 33 288 86.2482372121 363.668729333 152 387 c 4
 172.666666667 394.333333333 195.666666667 398 221 398 c 5
EndSplineSet
Layer: 2
Layer: 3
EndChar

StartChar: uni0DC5
Encoding: 59 3525 65
Width: 636
VWidth: 1000
Flags: W
HStem: -153 45<255.641 458.601> 43 61<244.188 438.082> 271 26<161.023 192> 404 28<208.331 301.322 400.121 493.264>
VStem: 31 65<38.7321 209.889> 126 31<202.028 348.394> 333 31<330 370.719> 542 34<297 355.409> 591 27<17.5532 74>
LayerCount: 4
Back
Fore
SplineSet
157 276 m 4
 157 362 203 404 259 404 c 4
 302 404 333 366 333 330 c 5
 364 330 l 5
 364 366 398 403 444 403 c 4
 510 403 542 352 542 297 c 5
 179 297 l 6
 80 297 31 191.989158132 31 114 c 4
 31 -57 168 -153 343 -153 c 4
 472 -153 618 -68 618 74 c 5
 591 74 l 5
 588.079610022 -29.6738442335 486 -108 373 -108 c 4
 224 -108 96 -11.8141645762 96 142 c 4
 96 234.039928557 150 271 192 271 c 6
 576 271 l 5
 576 362 532 432 445 432 c 4
 409 432 367 415 349 377 c 5
 333 415 296 432 260 432 c 4
 187.046491464 432 126 373 126 274 c 4
 126 138 217.771521071 43 334 43 c 4
 437 43 502 91 526 170 c 5
 497 170 l 5
 471 129.333333333 416 104 334 104 c 4
 242.826942967 104 157 164 157 276 c 4
EndSplineSet
Layer: 2
Layer: 3
EndChar

StartChar: uni0DC6
Encoding: 60 3526 66
Width: 607
VWidth: 1000
Flags: W
HStem: -1 27<138.468 220 372 453.532> 360 71<119.6 250.995 341.005 472.4>
VStem: 33 35<109.247 291.126> 280 32<263 322.993> 524 35<109.247 291.126>
CounterMasks: 1 38
LayerCount: 4
Back
Fore
SplineSet
296 359 m 5
 280 398 246 431 186 431 c 4
 78 431 33 316 33 212 c 4
 33 110 80.8892185394 -1 182 -1 c 4
 194 -1 206.666666667 1.33333333333 220 6 c 5
 220 32 l 5
 209.333333333 28 198.333333333 26 187 26 c 4
 116 26 68 99 68 196 c 4
 68 282 98 360 184 360 c 4
 236 360 280 334 280 263 c 6
 280 222 l 5
 312 222 l 5
 312 263 l 6
 312 334 356 360 408 360 c 4
 494 360 524 282 524 196 c 4
 524 99 476 26 405 26 c 4
 393.666992188 26 382.666992188 28 372 32 c 5
 372 6 l 5
 385.333007812 1.3330078125 398 -1 410 -1 c 4
 511.110351562 -1 559 110 559 212 c 4
 559 316 514 431 406 431 c 4
 346 431 312 398 296 359 c 5
EndSplineSet
Layer: 2
Layer: 3
EndChar

StartChar: uni0DCA
Encoding: 61 3530 67
Width: 2
VWidth: 1000
Flags: W
HStem: 468 28<-112.437 -41.0176>
VStem: -140 27<348 478 498.094 638> -27 37<506.784 588.61>
LayerCount: 4
Back
Fore
SplineSet
-140 348 m 5
 -140 681 l 5
 -86 639 10 634 10 542 c 4
 10 498 -24.8083679498 468 -68 468 c 4
 -82.6666666667 468 -97.6666666667 471.333333333 -113 478 c 5
 -113 331 l 5
 -140 348 l 5
-113 638 m 5
 -113 503 l 5
 -104.333333333 498.333333333 -93.3333333333 496 -80 496 c 4
 -42 496 -27 521 -27 545 c 4
 -27 587 -66 607 -113 638 c 5
EndSplineSet
Layer: 2
Layer: 3
EndChar

StartChar: uni0DCF
Encoding: 62 3535 68
Width: 312
VWidth: 1000
Flags: W
HStem: -1 37.4004<70.4693 165.014> 365.6 37.4004<73.5399 165.466>
VStem: 22 27<65.913 132.32 269.68 333.182> 204 66<75.8758 326.226>
LayerCount: 4
Back
Fore
SplineSet
204 201 m 4
 204 90.5400390625 176.99766472 36.9253264439 118 36.400390625 c 4
 73 36 49 68.6904296875 49 117.169921875 c 4
 49 122.556640625 49.3330078125 127.606445312 50 132.3203125 c 5
 23 132.3203125 l 5
 22.3330078125 124.9140625 22 117.506835938 22 110.099609375 c 4
 22 41.271484375 65.587890625 -1 133 -1 c 4
 224 -1 270 72.73046875 270 201 c 4
 270 329.26953125 224 403 133 403 c 4
 74 403 22 360.728515625 22 291.900390625 c 4
 22 284.494140625 22.3330078125 277.0859375 23 269.6796875 c 5
 50 269.6796875 l 5
 49.3330078125 274.393554688 49 279.443359375 49 284.830078125 c 4
 49 333.309570312 80 365.599609375 118 365.599609375 c 4
 177 365.599609375 204 311.459960938 204 201 c 4
EndSplineSet
Layer: 2
Layer: 3
EndChar

StartChar: uni0DD0
Encoding: 63 3536 69
Width: 334
VWidth: 1000
Flags: W
HStem: -147 54<199.088 284.766> 313 26<3 211>
VStem: 84 69<-43.9571 133.56>
LayerCount: 4
Back
Fore
SplineSet
3 339 m 5
 249 339 l 21
 248.333333333 337 247.333333333 331.666666667 246 323 c 5
 178 223 153 129 153 50 c 4
 153 -54 206 -93 264 -93 c 4
 276.666666667 -93 289.333333333 -91.3333333333 302 -88 c 5
 306 -106 l 5
 278.666666667 -136.666666667 248 -147 207 -147 c 4
 122 -147 84 -73 84 14 c 4
 84 133 158 254 211 313 c 5
 3 313 l 5
 3 339 l 5
EndSplineSet
Layer: 2
Layer: 3
EndChar

StartChar: uni0DD1
Encoding: 64 3537 70
Width: 336
VWidth: 1000
Flags: W
HStem: -148 42<209.328 304.812> 199 24<122 235> 315 24<4 205>
VStem: 90 69<-60.4849 70.4828>
LayerCount: 4
Back
Fore
SplineSet
4 339 m 5
 249 339 l 5
 249 317 l 5
 122 223 l 5
 272 223 l 5
 272 201 l 5
 226 168 159 96 159 13 c 4
 159 -74 217.188687962 -106 306 -106 c 5
 306 -131 l 5
 280.666992188 -142.333007812 254.333333333 -148 229 -148 c 4
 138.408193748 -148 90 -91.2396990465 90 -12 c 4
 90 78 169.63042168 155.42028112 235 199 c 5
 72 199 l 5
 72 218 l 5
 205 315 l 5
 4 315 l 5
 4 339 l 5
EndSplineSet
Layer: 2
Layer: 3
EndChar

StartChar: uni0DD2
Encoding: 65 3538 71
Width: 2
VWidth: 1000
Flags: W
HStem: 405 21<-453.357 -402 -224 -172.643> 598 73<-444.417 -181.583>
VStem: -545 34<464.237 550.975> -115 34<464.237 550.975>
LayerCount: 4
Back
Fore
SplineSet
-313 671 m 4
 -432.37890625 671 -545 626.291015625 -545 518 c 4
 -545 443.45703125 -478.857421875 408.07421875 -402 405 c 5
 -402 426 l 5
 -455.67578125 428.825195312 -511 454 -511 509 c 4
 -511 580.088867188 -401.908203125 598 -313 598 c 4
 -224.091796875 598 -115 580.088867188 -115 509 c 4
 -115 454 -170.32421875 428.825195312 -224 426 c 5
 -224 405 l 5
 -147.142578125 408.07421875 -81 443.45703125 -81 518 c 4
 -81 626.291015625 -193.62109375 671 -313 671 c 4
EndSplineSet
Layer: 2
Layer: 3
EndChar

StartChar: uni0DD3
Encoding: 66 3539 72
Width: 2
VWidth: 1000
Flags: W
HStem: 406 20<-513.853 -494.491> 429 29<-226.503 -140.494> 600 71<-475.054 -233.941>
VStem: -587 37<450.146 545.588> -282 32<478.576 549.455> -118 35<476.905 551.6>
LayerCount: 4
Back
Fore
SplineSet
-250 514 m 4
 -250 483 -220 458 -184 458 c 4
 -148 458 -118 483 -118 514 c 4
 -118 545 -148 570 -184 570 c 4
 -220 570 -250 545 -250 514 c 4
-497 406 m 5
 -550.245580402 410.73294048 -587 456 -587 517 c 4
 -587 624.2109375 -463.053882536 671 -336 671 c 260
 -219.285943513 671 -83 627.398935547 -83 524 c 4
 -83 468.768116676 -127.72265625 429 -184 429 c 4
 -242 429 -282 470 -282 515 c 4
 -282 560 -250 582 -231 591 c 5
 -242 594 -281 600 -335 600 c 4
 -429.163908941 600 -550 578 -550 499 c 4
 -550 460.333333333 -528 435 -490 426 c 5
 -497 406 l 5
EndSplineSet
Layer: 2
Layer: 3
EndChar

StartChar: uni0DD4
Encoding: 67 3540 73
Width: 2
VWidth: 1000
Flags: W
HStem: -235 36<-542.361 -89> -81 30<-535.881 -447.208>
VStem: -594 35<-182.052 -100.106> -89 33<-199 128>
LayerCount: 4
Back
Fore
SplineSet
-56 219 m 5
 -56 -235 l 5
 -482 -235 l 6
 -549 -235 -594 -203 -594 -149 c 4
 -594 -90 -549.819451749 -51 -495 -51 c 4
 -451 -51 -418.333007812 -68 -399 -110 c 5
 -429 -122 l 5
 -438 -99 -458 -81 -491 -81 c 4
 -526.629882812 -81 -559 -103 -559 -143 c 4
 -559 -182 -530 -199 -479 -199 c 6
 -89 -199 l 5
 -89 128 l 5
 -56 219 l 5
EndSplineSet
Layer: 2
Layer: 3
EndChar

StartChar: uni0DD6
Encoding: 68 3542 74
Width: 2
VWidth: 1000
Flags: HW
HStem: -236 45<-534.199 -388.469> -144 27<-271.266 -153.77> -66 26<-523.924 -435.962>
VStem: -585 34<-167.861 -86.8198> -88 30<-171 149> -80 22<-232 -212.795>
LayerCount: 4
Back
Fore
SplineSet
-58 202 m 5
 -58 -241 l 5
 -81 -241 l 5
 -96 -205 -139 -154 -207 -154 c 4
 -298 -154 -373 -247 -471 -247 c 4
 -526 -247 -582 -216 -582 -148 c 4
 -582 -90 -533 -50 -480 -50 c 4
 -438 -50 -405.666992188 -65 -383 -101 c 5
 -413 -112 l 5
 -425 -93 -446 -78 -475 -78 c 4
 -514 -78 -546 -102 -546 -139 c 4
 -546 -176.366210938 -515 -201 -472 -201 c 4
 -388 -201 -305 -127 -210 -127 c 4
 -167 -127 -118 -146 -91 -178 c 5
 -91 142 l 5
 -58 202 l 5
EndSplineSet
Layer: 2
Layer: 3
EndChar

StartChar: uni0DD8
Encoding: 69 3544 75
Width: 313
VWidth: 1000
Flags: W
HStem: -1 29<92.9054 189.11> 17 26<164.146 204.775> 195 27<113.639 203> 358 35<89.521 170.434>
VStem: 33 30<58.5465 155.33 242 326.823> 202 45<40.6339 194.498> 203.157 60.8428<40.9875 195 222 319.732>
LayerCount: 4
Back
Fore
SplineSet
58 242 m 5xbc
 33 242 l 5
 32.91796875 244.677734375 32.8818359375 246.344726562 32.8818359375 249 c 4
 32.8818359375 329 69.0087890625 393 143 393 c 4
 229.896484375 393 264 298 264 203 c 4xba
 264 144 247 52.4365234375 247 23 c 4
 247 15.6669921875 247.333007812 9 248 3 c 5
 218 3 l 5
 215.333007812 12.3330078125 210.333007812 17 203 17 c 4x7c
 190.846679688 17 165 -1 131 -1 c 4
 72 -1 33 49.259765625 33 106 c 4
 33 153.333007812 55 186.333007812 99 205 c 4
 125 216.333007812 166 222 203 222 c 5
 203 312 176 358 133 358 c 4
 81.28515625 358 57.953125 308 57.953125 246 c 4
 57.953125 244.333007812 57.9638671875 243.666015625 58 242 c 5xbc
203 195 m 5
 188 195 152 194 123 185 c 4
 87.3154296875 173.92578125 63 150.544921875 63 107 c 4
 63 64.650390625 91.8193359375 28 133 28 c 4xba
 159 28 186.259765625 43 196 43 c 4
 199.333007812 43 202.333007812 42 205 40 c 5
 203 53.3330078125 202 78.8330078125 202 116.5 c 4x7c
 202 147.87890625 203.157226562 168 203.157226562 186 c 4
 203.157226562 188.99609375 203.111328125 192.663085938 203 195 c 5
EndSplineSet
Layer: 2
Layer: 3
EndChar

StartChar: uni0DD9
Encoding: 70 3545 76
Width: 603
VWidth: 1000
Flags: W
HStem: 0 71<174.247 384.499> 166 32.0752<250.697 331.406> 291.925 30.0752<251.427 359.623> 404 28<212.386 387.228>
VStem: 33 43<160.46 298.691> 203 33<212.636 278.097> 346 33<212.74 278.078> 455 36<135.737 238.828> 555 29<206 253.41>
LayerCount: 4
Back
Fore
SplineSet
236 245 m 4
 236 219.497070312 261 198.075195312 291 198.075195312 c 4
 321 198.075195312 346 219.497070312 346 245 c 4
 346 270.502929688 321 291.924804688 291 291.924804688 c 4
 261 291.924804688 236 270.502929688 236 245 c 4
584 206 m 5
 555 206 l 5
 537 324 430 404 301 404 c 4
 187.17578125 404 76 340 76 238 c 4
 76 142 163.286132812 71 269 71 c 4
 358 71 455 104.917256131 455 189 c 4
 455 243.911166832 408.951991217 277.675811197 360 287 c 5
 372.666666667 273 379 256 379 240 c 4
 379 192 335 166 292 166 c 4
 246 166 203 198 203 242 c 260
 203 289.587990978 248 322 304 322 c 4
 406 322 491 268 491 168 c 4
 491 68 412 0 269 0 c 4
 134 0 33 83.6284822101 33 212 c 4
 33 346.856925545 160.549331826 432 301 432 c 4
 448.707025307 432 571.822206459 339.955728948 584 206 c 5
EndSplineSet
Layer: 2
Layer: 3
EndChar

StartChar: uni0DDF
Encoding: 76 3551 77
Width: 441
VWidth: 1000
Flags: W
HStem: -2 28<196.935 277.978> 212 26<94.458 169.529> 407 25<209.844 281.767>
VStem: 33 29<269.879 389.938> 134 27<66.8803 157> 165.139 27.7229<337.242 391.31> 186 43<246.747 333.089> 323 70<91.9076 346.533>
LayerCount: 4
Back
Fore
SplineSet
105 428 m 5xfb
 70 428 l 5
 49 404 33 369.666666667 33 321 c 4
 33 261.448089092 72 212 135 212 c 4
 185.493164062 212 229 237.916216467 229 288 c 4xfb
 229 312 217 330.333333333 193 343 c 5
 192.863719061 345.384916441 192.861596777 347.718695153 192.861596777 349.999997723 c 4
 192.861596777 389 214 407 248 407 c 4
 296 407 323 350.01785572 323 238 c 4
 323 100 300 26 241 26 c 4
 188.383377864 26 161 71.0175803871 161 125 c 4
 161 135.666666667 162 146.333333333 164 157 c 5
 138 157 l 5
 135.333333333 144.333333333 134 132 134 120 c 4
 134 53.9697691033 171 -2 245 -2 c 4
 350 -2 393 101 393 220 c 4
 393 315.586702165 362 432 259 432 c 4
 193.307617188 432 165.138671875 398 165.138671875 349 c 4xfd
 165.138671875 344.20703125 165.43405583 342.206686368 166 337 c 5
 179.333333333 323 186 307.333333333 186 290 c 4
 186 261.458054261 168 238 134 238 c 4
 88.3798828125 238 62 276.28960624 62 322 c 4
 62 374.666666667 83 410 105 428 c 5xfb
EndSplineSet
Layer: 2
Layer: 3
EndChar

StartChar: uni0DF3
Encoding: 77 3571 78
Width: 441
VWidth: 1000
Flags: W
HStem: -2 28<196.935 277.978> 212 26<94.458 169.529> 407 25<209.844 281.767>
VStem: 33 29<269.879 389.938> 134 27<66.8803 157> 165.139 27.7229<337.242 391.31> 186 43<246.747 333.089> 323 70<91.9076 346.533>
LayerCount: 4
Back
Fore
SplineSet
105 428 m 5xfb
 70 428 l 5
 49 404 33 369.666666667 33 321 c 4
 33 261.448089092 72 212 135 212 c 4
 185.493164062 212 229 237.916216467 229 288 c 4xfb
 229 312 217 330.333333333 193 343 c 5
 192.863719061 345.384916441 192.861596777 347.718695153 192.861596777 349.999997723 c 4
 192.861596777 389 214 407 248 407 c 4
 296 407 323 350.01785572 323 238 c 4
 323 100 300 26 241 26 c 4
 188.383377864 26 161 71.0175803871 161 125 c 4
 161 135.666666667 162 146.333333333 164 157 c 5
 138 157 l 5
 135.333333333 144.333333333 134 132 134 120 c 4
 134 53.9697691033 171 -2 245 -2 c 4
 350 -2 393 101 393 220 c 4
 393 315.586702165 362 432 259 432 c 4
 193.307617188 432 165.138671875 398 165.138671875 349 c 4xfd
 165.138671875 344.20703125 165.43405583 342.206686368 166 337 c 5
 179.333333333 323 186 307.333333333 186 290 c 4
 186 261.458054261 168 238 134 238 c 4
 88.3798828125 238 62 276.28960624 62 322 c 4
 62 374.666666667 83 410 105 428 c 5xfb
EndSplineSet
Layer: 2
Layer: 3
EndChar

StartChar: uni0DF2
Encoding: 78 3570 79
Width: 571
VWidth: 1000
Flags: W
HStem: -1 29<92.9054 189.11 351.905 448.11> 17 26<164.146 204.775 423.146 463.775> 195 27<113.639 203 372.639 462> 358 35<89.521 170.434 348.521 429.434>
VStem: 33 30<58.5465 155.33 242 326.823> 202 45<40.6339 194.498> 203.157 60.8428<40.9875 195 222 319.732> 292 30<58.5465 155.33 242 326.823> 461 45<40.6339 194.498> 462.157 60.8428<40.9875 195 222 319.732>
LayerCount: 4
Back
Fore
SplineSet
317 242 m 1xb980
 292 242 l 1
 291.91796875 244.677734375 291.881835938 246.344726562 291.881835938 249 c 0
 291.881835938 329 328.008789062 393 402 393 c 0
 488.896484375 393 523 298 523 203 c 0xb940
 523 144 506 52.4365234375 506 23 c 0
 506 15.6669921875 506.333007812 9 507 3 c 1
 477 3 l 1
 474.333007812 12.3330078125 469.333007812 17 462 17 c 0x7980
 449.846679688 17 424 -1 390 -1 c 0
 331 -1 292 49.259765625 292 106 c 0
 292 153.333007812 314 186.333007812 358 205 c 0
 384 216.333007812 425 222 462 222 c 1
 462 312 435 358 392 358 c 0
 340.28515625 358 316.953125 308 316.953125 246 c 0
 316.953125 244.333007812 316.963867188 243.666015625 317 242 c 1xb980
462 195 m 1
 447 195 411 194 382 185 c 0
 346.315429688 173.92578125 322 150.544921875 322 107 c 0
 322 64.650390625 350.819335938 28 392 28 c 0xb940
 418 28 445.259765625 43 455 43 c 0
 458.333007812 43 461.333007812 42 464 40 c 1
 462 53.3330078125 461 78.8330078125 461 116.5 c 0x7980
 461 147.87890625 462.157226562 168 462.157226562 186 c 0
 462.157226562 188.99609375 462.111328125 192.663085938 462 195 c 1
58 242 m 1
 33 242 l 1
 32.91796875 244.677734375 32.8818359375 246.344726562 32.8818359375 249 c 0
 32.8818359375 329 69.0087890625 393 143 393 c 0
 229.896484375 393 264 298 264 203 c 0xbb
 264 144 247 52.4365234375 247 23 c 0
 247 15.6669921875 247.333007812 9 248 3 c 1
 218 3 l 1
 215.333007812 12.3330078125 210.333007812 17 203 17 c 0x7d
 190.846679688 17 165 -1 131 -1 c 0
 72 -1 33 49.259765625 33 106 c 0
 33 153.333007812 55 186.333007812 99 205 c 0
 125 216.333007812 166 222 203 222 c 1
 203 312 176 358 133 358 c 0
 81.28515625 358 57.953125 308 57.953125 246 c 0
 57.953125 244.333007812 57.9638671875 243.666015625 58 242 c 1
203 195 m 1
 188 195 152 194 123 185 c 0
 87.3154296875 173.92578125 63 150.544921875 63 107 c 0
 63 64.650390625 91.8193359375 28 133 28 c 0xbb
 159 28 186.259765625 43 196 43 c 0
 199.333007812 43 202.333007812 42 205 40 c 1
 203 53.3330078125 202 78.8330078125 202 116.5 c 0x7d
 202 147.87890625 203.157226562 168 203.157226562 186 c 0
 203.157226562 188.99609375 203.111328125 192.663085938 203 195 c 1
EndSplineSet
Layer: 2
Layer: 3
EndChar

StartChar: uni0D93
Encoding: 16 3475 80
Width: 1178
VWidth: 1000
Flags: W
HStem: 0 71<174.247 384.499 733.243 980.614> 166 32.0752<250.697 331.406> 277 25<601 848> 291.925 30.0752<251.427 359.623> 359 36<923.075 1021.16> 395 36.5<735.639 819.669> 404 28<212.386 387.228>
VStem: 33 43<160.46 298.691> 203 33<212.636 278.097> 346 33<212.74 278.078> 455 36<135.737 238.828> 555 29<206 253.41> 630 37<127.613 229.669> 848.086 32.0605<302 361.086> 868 30<424.683 549.228> 1098 32<186.191 352.059>
LayerCount: 4
Back
Fore
SplineSet
1098 267 m 4xe5fd
 1098 323.666992188 1081 376 1056 412 c 5
 1041.33300781 379.333007812 1011 359 968 359 c 4
 904.844726562 359 868 414 868 480 c 4xe9fb
 868 530 883 566 910 597 c 5
 971 564 1041.96484375 492.2421875 1078 430 c 4
 1116.78320312 363.01171875 1130 315 1130 245 c 4
 1130 117 1044 0 861 0 c 4
 740 0 630 46 630 165 c 4
 630 195.720703125 639.775390625 227.831054688 663 248 c 4
 679.126953125 262.004882812 698 273 724 278 c 5
 757.760742188 290.19921875 798.875 302 836 302 c 6
 848 302 l 5
 848.08203125 304.041015625 848.0859375 306.041015625 848.0859375 308 c 4
 848.0859375 356 816 395 779 395 c 4xe5fd
 740 395 729 371 723.5 355 c 4
 716.951171875 335.948242188 706.87109375 323 685 323 c 4
 669 323 649 333.368164062 649 359 c 4xc9fd
 649 406 699 431.5 754 431.5 c 4
 842 431.5 880.146484375 363 880.146484375 290 c 4
 880.146484375 286.721679688 880.100585938 280.387695312 880 277 c 5
 816 277 l 6
 771.559570312 277 732.1171875 264.814453125 707 249 c 4
 680 232 667 206.05078125 667 180 c 4
 667 94 774 71 864 71 c 4
 1017 71 1098 148 1098 267 c 4xe5fd
714 277 m 6
 643 276 617 272.666992188 601 270 c 5
 601 302 l 5
 846 302 l 5
 876 277 l 5
 714 277 l 6
1037 440 m 5
 1007 486 957 532 919 560 c 5
 907 542 898 518.666992188 898 484 c 4
 898 434.666992188 918 395 975 395 c 4
 999 395 1026.76367188 406.140625 1037 440 c 5
236 245 m 4
 236 219.497070312 261 198.075195312 291 198.075195312 c 4
 321 198.075195312 346 219.497070312 346 245 c 4
 346 270.502929688 321 291.924804688 291 291.924804688 c 4xd1f9
 261 291.924804688 236 270.502929688 236 245 c 4
584 206 m 5
 555 206 l 5
 537 324 430 404 301 404 c 4
 187.17578125 404 76 340 76 238 c 4
 76 142 163.286132812 71 269 71 c 4
 358 71 455 104.917256131 455 189 c 4
 455 243.911166832 408.951991217 277.675811197 360 287 c 5
 372.666666667 273 379 256 379 240 c 4
 379 192 335 166 292 166 c 4
 246 166 203 198 203 242 c 260
 203 289.587990978 248 322 304 322 c 4
 406 322 491 268 491 168 c 4
 491 68 412 0 269 0 c 4
 134 0 33 83.6284822101 33 212 c 4
 33 346.856925545 160.549331826 432 301 432 c 4xd3f9
 448.707025307 432 571.822206459 339.955728948 584 206 c 5
EndSplineSet
Layer: 2
Layer: 3
EndChar

StartChar: si_MatraU.alt
Encoding: 85 -1 82
Width: 2
VWidth: 1000
Flags: HW
LayerCount: 4
Back
Fore
SplineSet
-37 -36 m 5
 -34.6455078125 -45.416015625 -34.5654296875 -60.2900390625 -34.5654296875 -69.5 c 4
 -34.5654296875 -122.145507812 -78.298828125 -191.5 -179 -191.5 c 4
 -246.73828125 -191.5 -314 -149.233398438 -314 -80 c 4
 -314 -30 -285.143184174 5.07406131771 -245 20.75 c 5
 -236 0.75 l 5
 -258.686523438 -11.890625 -276 -34 -276 -63 c 4
 -276 -109.283203125 -225.952148438 -132 -174.5 -132 c 4
 -113.5 -132 -67.5576171875 -93.734375 -67.5576171875 -45 c 4
 -67.5576171875 -42.0390625 -67.8310546875 -39.0380859375 -68.25 -36 c 5
 -37 -36 l 5
EndSplineSet
Layer: 2
Layer: 3
EndChar

StartChar: si_MatraUu.alt
Encoding: 86 -1 83
Width: 746
VWidth: 1000
Flags: HW
LayerCount: 4
Back
Fore
SplineSet
-43.0537109375 -59 m 5
 -39.462890625 -71.1181640625 -38.75 -82.8330078125 -38.75 -94 c 4
 -38.75 -161 -90.0537109375 -205 -172.053710938 -205 c 4
 -230.053710938 -205 -294.053710938 -187.465820312 -294.053710938 -129 c 4
 -294.053710938 -93.3486328125 -262.709960938 -71.125 -230.053710938 -67 c 5
 -285.053710938 -39 l 5
 -198.053710938 -14 l 5
 -234.053710938 0 l 5
 -234.053710938 21 l 5
 -139.553710938 -14.5 l 5
 -226.053710938 -43 l 5
 -166.053710938 -75.5 l 5
 -194.053710938 -82.5 -254.053710938 -84.57421875 -254.053710938 -115 c 4
 -254.053710938 -146 -212.129882812 -155 -170.053710938 -155 c 4
 -116.053710938 -155 -70.3251953125 -131 -70.3251953125 -82 c 4
 -70.3251953125 -77 -70.8603515625 -69.38671875 -76.0537109375 -59 c 5
 -43.0537109375 -59 l 5
EndSplineSet
Layer: 2
Layer: 3
EndChar

StartChar: si_Reph
Encoding: 95 -1 85
Width: 2
VWidth: 1000
Flags: HW
LayerCount: 4
Back
Fore
SplineSet
-357.9140625 516 m 4
 -357.9140625 495.446289062 -339.31640625 478.806640625 -317 478.806640625 c 4
 -294.68359375 478.806640625 -276.0859375 495.446289062 -276.0859375 516 c 4
 -276.0859375 536.553710938 -294.68359375 553.193359375 -317 553.193359375 c 4
 -339.31640625 553.193359375 -357.9140625 536.553710938 -357.9140625 516 c 4
-364.5 475.25 m 5
 -372.5 481.25 -385 496 -385 517 c 4
 -385 552 -353.646484375 577 -318 577 c 4
 -277 577 -249 550 -249 515 c 4
 -249 476 -284 450 -342 450 c 4
 -401 450 -460 479 -460 535 c 4
 -460 599 -401.879882812 636 -320 636 c 4
 -243 636 -179 593 -179 522 c 4
 -179 498 -187.333333333 476.333333333 -204 457 c 5
 -237.75 457 l 5
 -224.580297313 469.386911903 -209.25 493.734375 -209.25 521 c 260
 -209.25 578.241402626 -260 608.75 -321 608.75 c 4
 -373.778320312 608.75 -428.75 587.555664062 -428.75 535 c 4
 -428.75 495.924804688 -387.696696228 477.21557371 -364.5 475.25 c 5
EndSplineSet
Layer: 2
Layer: 3
EndChar

StartChar: si_Rakar
Encoding: 101 -1 86
Width: 2
VWidth: 1000
Flags: HW
LayerCount: 4
Back
Fore
SplineSet
-572 -44 m 5
 -536.666666667 -119.333333333 -466.333333333 -157 -361 -157 c 4
 -218 -157 -89 -90 -89 50 c 4
 -89 71 -94 93 -101 102 c 5
 -90 133 l 5
 -72 106.333333333 -63 74.6666666667 -63 38 c 4
 -63 -123.729769303 -201 -219 -345 -219 c 4
 -478 -219 -561.666666667 -153.333333333 -599 -44 c 5
 -572 -44 l 5
EndSplineSet
Layer: 2
Layer: 3
EndChar

StartChar: si_Yanse
Encoding: 103 -1 87
Width: 544
VWidth: 1000
Flags: HW
LayerCount: 4
Back
Fore
SplineSet
35 422 m 1
 48 429 69.3333333333 432 86 432 c 0
 162.26461908 432 216 360 216 273 c 0
 216 214 204.333333333 163.333333333 167 108 c 1
 206.333333333 83.3333333333 251.666666667 71 303 71 c 0
 382.143299561 71 456 114 456 193 c 0
 456 254.063262098 405 280 344 280 c 0
 312 280 249 286.868076152 249 352 c 0
 249 402 295.176757812 432 356 432 c 0
 415 432 461 400 461 341 c 0
 461 334.333333333 460.333333333 327.666666667 459 321 c 1
 428 321 l 1
 429.333333333 327 430 333 430 339 c 0
 430 382 398 406 355 406 c 0
 318.638671875 406 279 390 279 353 c 0
 279 315.962890625 308 306 347 306 c 0
 424 306 497 265.807617188 497 164 c 0
 497 66 409 0 322 0 c 0
 244.379882812 0 195 21 147 83 c 1
 115.985348228 47.9399588663 71.9292388107 14.8888713799 29 1 c 1
 12 21 l 1
 104 60 187 141 187 268 c 0
 187 338.166015625 149.042225734 406 84 406 c 0
 68.6666666667 406 50 402 35 395 c 1
 35 422 l 1
EndSplineSet
Layer: 2
Layer: 3
EndChar

StartChar: si_Ka.halant
Encoding: 104 -1 88
Width: 746
VWidth: 1000
Flags: HW
LayerCount: 4
Back
Fore
SplineSet
106 323 m 0xb5f0
 99 305 84 297 69 297 c 0
 35 297 29 328 29 340 c 0
 29 394.098632812 79.3632281498 433 136 433 c 0xb5f0
 185.711963719 433 220.079101562 402 220.079101562 356 c 0
 220.079101562 351.467773438 219.723632812 345.794921875 219 341 c 1
 281 401 366 434 453 434 c 0
 603 434 701.000000002 328 701 192 c 0
 700.999999999 109.999777824 659 -1 556 -1 c 0
 540 -1 518 2 506 11 c 1
 506 38 l 1
 516 31 533 26 557 26 c 0x79f0
 607 26 649 80 649 153 c 0
 649 285 534.341514142 368 400 368 c 0
 326.666666667 368 266 348 219 308 c 1
 243 314 274.666992188 316 302 316 c 0
 422 316 515 251 515 126 c 0
 515 67.8472233203 482 -1 397 -1 c 0
 351 -1 317.333333333 20.3333333333 296 63 c 1
 278.666666667 21.6666666667 246.021148364 -1 204 -1 c 0
 117 -1 120 73 87 73 c 0
 64.6748046875 73 50 51 47 11 c 1
 21 22 l 1xbaf0
 28.6966338402 91.2697045622 74.4524773728 184.16496867 109 232 c 0
 135 268 150 282 168 301 c 1
 180 314 193 330 193 352 c 0
 193 374 183.407917035 392 158 392 c 0
 144 392 122.478515625 384.287109375 116 363 c 0
 109 340 112.653628896 340.109331446 106 323 c 0xb5f0
182 273 m 1
 164.666992188 258.333007812 145 234.666992188 129 212 c 0
 100.333007812 171.333007812 80.6666666667 131.666666667 70 95 c 1
 76 98.3333333333 82.3333333333 100 89 100 c 0
 118 100 142 71 199 71 c 0
 250.182680149 71 281 101.864211954 281 162 c 0
 281 164.208984375 281.041015625 161.3046875 281 163 c 1
 307 163 l 1
 306.963867188 161.6640625 307 163.330078125 307 162 c 0
 307 96.92631064 334 71 392 71 c 0
 454.088867188 71 474 123 474 159 c 0
 474 242 400.87890625 291 298 291 c 0
 241.333007812 291 203 282 182 273 c 1
551 347 m 5
 551 680 l 5
 605 638 701 633 701 541 c 4
 701 497 666.19140625 467 623 467 c 4
 608.333007812 467 593.333007812 470.333007812 578 477 c 5
 578 330 l 5
 551 347 l 5
578 637 m 5
 578 502 l 5
 586.666992188 497.333007812 597.666992188 495 611 495 c 4
 649 495 664 520 664 544 c 4
 664 586 625 606 578 637 c 5
EndSplineSet
Layer: 2
Layer: 3
EndChar

StartChar: si_KI
Encoding: 105 -1 89
Width: 746
VWidth: 1000
Flags: HW
LayerCount: 4
Back
Fore
SplineSet
106 323 m 0xb5f0
 99 305 84 297 69 297 c 0
 35 297 29 328 29 340 c 0
 29 394.098632812 79.3632281498 433 136 433 c 0xb5f0
 185.711963719 433 220.079101562 402 220.079101562 356 c 0
 220.079101562 351.467773438 219.723632812 345.794921875 219 341 c 1
 281 401 366 434 453 434 c 0
 603 434 701.000000002 328 701 192 c 0
 700.999999999 109.999777824 659 -1 556 -1 c 0
 540 -1 518 2 506 11 c 1
 506 38 l 1
 516 31 533 26 557 26 c 0x79f0
 607 26 649 80 649 153 c 0
 649 285 534.341514142 368 400 368 c 0
 326.666666667 368 266 348 219 308 c 1
 243 314 274.666992188 316 302 316 c 0
 422 316 515 251 515 126 c 0
 515 67.8472233203 482 -1 397 -1 c 0
 351 -1 317.333333333 20.3333333333 296 63 c 1
 278.666666667 21.6666666667 246.021148364 -1 204 -1 c 0
 117 -1 120 73 87 73 c 0
 64.6748046875 73 50 51 47 11 c 1
 21 22 l 1xbaf0
 28.6966338402 91.2697045622 74.4524773728 184.16496867 109 232 c 0
 135 268 150 282 168 301 c 1
 180 314 193 330 193 352 c 0
 193 374 183.407917035 392 158 392 c 0
 144 392 122.478515625 384.287109375 116 363 c 0
 109 340 112.653628896 340.109331446 106 323 c 0xb5f0
182 273 m 1
 164.666992188 258.333007812 145 234.666992188 129 212 c 0
 100.333007812 171.333007812 80.6666666667 131.666666667 70 95 c 1
 76 98.3333333333 82.3333333333 100 89 100 c 0
 118 100 142 71 199 71 c 0
 250.182680149 71 281 101.864211954 281 162 c 0
 281 164.208984375 281.041015625 161.3046875 281 163 c 1
 307 163 l 1
 306.963867188 161.6640625 307 163.330078125 307 162 c 0
 307 96.92631064 334 71 392 71 c 0
 454.088867188 71 474 123 474 159 c 0
 474 242 400.87890625 291 298 291 c 0
 241.333007812 291 203 282 182 273 c 1
610 383 m 5
 578 403 l 5
 618 405 656 440 656 486 c 4
 656 574 555 598 473 598 c 4
 336 598 244 527.63671875 244 404 c 4
 244 389.333007812 245.666992188 376.333007812 249 365 c 5
 225 343 l 5
 220.903461411 360.75166722 218 389.836914062 218 421 c 4
 218 590 330 671 473 671 c 4
 603 671 688 610 688 505 c 4
 688 444 658 402 610 383 c 5
EndSplineSet
Layer: 2
Layer: 3
EndChar

StartChar: si_KIi
Encoding: 106 -1 90
Width: 746
VWidth: 1000
Flags: HW
LayerCount: 4
Back
Fore
SplineSet
106 323 m 0xb5f0
 99 305 84 297 69 297 c 0
 35 297 29 328 29 340 c 0
 29 394.098632812 79.3632281498 433 136 433 c 0xb5f0
 185.711963719 433 220.079101562 402 220.079101562 356 c 0
 220.079101562 351.467773438 219.723632812 345.794921875 219 341 c 1
 281 401 366 434 453 434 c 0
 603 434 701.000000002 328 701 192 c 0
 700.999999999 109.999777824 659 -1 556 -1 c 0
 540 -1 518 2 506 11 c 1
 506 38 l 1
 516 31 533 26 557 26 c 0x79f0
 607 26 649 80 649 153 c 0
 649 285 534.341514142 368 400 368 c 0
 326.666666667 368 266 348 219 308 c 1
 243 314 274.666992188 316 302 316 c 0
 422 316 515 251 515 126 c 0
 515 67.8472233203 482 -1 397 -1 c 0
 351 -1 317.333333333 20.3333333333 296 63 c 1
 278.666666667 21.6666666667 246.021148364 -1 204 -1 c 0
 117 -1 120 73 87 73 c 0
 64.6748046875 73 50 51 47 11 c 1
 21 22 l 1xbaf0
 28.6966338402 91.2697045622 74.4524773728 184.16496867 109 232 c 0
 135 268 150 282 168 301 c 1
 180 314 193 330 193 352 c 0
 193 374 183.407917035 392 158 392 c 0
 144 392 122.478515625 384.287109375 116 363 c 0
 109 340 112.653628896 340.109331446 106 323 c 0xb5f0
182 273 m 1
 164.666992188 258.333007812 145 234.666992188 129 212 c 0
 100.333007812 171.333007812 80.6666666667 131.666666667 70 95 c 1
 76 98.3333333333 82.3333333333 100 89 100 c 0
 118 100 142 71 199 71 c 0
 250.182680149 71 281 101.864211954 281 162 c 0
 281 164.208984375 281.041015625 161.3046875 281 163 c 1
 307 163 l 1
 306.963867188 161.6640625 307 163.330078125 307 162 c 0
 307 96.92631064 334 71 392 71 c 0
 454.088867188 71 474 123 474 159 c 0
 474 242 400.87890625 291 298 291 c 0
 241.333007812 291 203 282 182 273 c 1
531.110351562 476 m 4
 531.110351562 444.0703125 558.428710938 417.290039062 591 417.290039062 c 4
 623.571289062 417.290039062 650.889648438 444.0703125 650.889648438 476 c 4
 650.889648438 507.9296875 623.571289062 534.709960938 591 534.709960938 c 4
 558.428710938 534.709960938 531.110351562 507.9296875 531.110351562 476 c 4
593 388 m 4
 535 388 500 433 500 477 c 4
 500 529 541 566 591 566 c 4
 596.334960938 566 608 565 620 561.896484375 c 5
 581 590 519.944893777 598 473 598 c 4
 336 598 244 527.63671875 244 404 c 4
 244 389.333007812 245.666992188 376.333007812 249 365 c 5
 225 343 l 5
 220.903461411 360.75166722 218 389.836914062 218 421 c 4
 218 590 330 671 473 671 c 4
 603 671 689 600 689 495 c 4
 689 444 651 388 593 388 c 4
EndSplineSet
Layer: 2
Layer: 3
EndChar

StartChar: si_KU
Encoding: 107 -1 91
Width: 746
VWidth: 1000
Flags: HW
LayerCount: 4
Back
Fore
SplineSet
481.5 -63 m 0
 481.5 -108.417173069 532.047851562 -132 583.5 -132 c 0
 644.5 -132 691.692382812 -93.734375 691.692382812 -45 c 0
 691.692382812 -42.0390625 691.418945312 -39.0380859375 691 -36 c 1
 721 -36 l 1
 723.354492188 -45.416015625 723.434570312 -60.2900390625 723.434570312 -69.5 c 0
 723.434570312 -122.145507812 679.701171875 -191.5 579 -191.5 c 0
 515.709960938 -191.5 444 -149.233398438 444 -80 c 0
 444 -30.5 474 9 517 21 c 1
 523 -6 l 1
 501 -14 481.5 -34 481.5 -63 c 0
106 323 m 0xb5f0
 99 305 84 297 69 297 c 0
 35 297 29 328 29 340 c 0
 29 394.098632812 79.3632281498 433 136 433 c 0xb5f0
 185.711963719 433 220.079101562 402 220.079101562 356 c 0
 220.079101562 351.467773438 219.723632812 345.794921875 219 341 c 1
 281 401 366 434 453 434 c 0
 603 434 701 328 701 192 c 0
 701 112 656 0 565 0 c 0
 547 0 530 -3 520 -7 c 1
 512 19 l 1
 521 24 545 27 556 27 c 0x79f0
 607 27 649 74 649 153 c 0
 649 285 534.341514142 368 400 368 c 0
 326.666666667 368 266 348 219 308 c 1
 243 314 274.666992188 316 302 316 c 0
 422 316 515 251 515 126 c 0
 515 67.8472233203 482 -1 397 -1 c 0
 351 -1 317.333333333 20.3333333333 296 63 c 1
 278.666666667 21.6666666667 246.021148364 -1 204 -1 c 0
 117 -1 120 73 87 73 c 0
 64.6748046875 73 50 51 47 11 c 1
 21 22 l 1xbaf0
 28.6966338402 91.2697045622 74.4524773728 184.16496867 109 232 c 0
 135 268 150 282 168 301 c 1
 180 314 193 330 193 352 c 0
 193 374 183.407917035 392 158 392 c 0
 144 392 122.478515625 384.287109375 116 363 c 0
 109 340 112.653628896 340.109331446 106 323 c 0xb5f0
182 273 m 1
 164.666992188 258.333007812 145 234.666992188 129 212 c 0
 100.333007812 171.333007812 80.6666666667 131.666666667 70 95 c 1
 76 98.3333333333 82.3333333333 100 89 100 c 0
 118 100 142 71 199 71 c 0
 250.182680149 71 281 101.864211954 281 162 c 0
 281 164.208984375 281.041015625 161.3046875 281 163 c 1
 307 163 l 1
 306.963867188 161.6640625 307 163.330078125 307 162 c 0
 307 96.92631064 334 71 392 71 c 0
 454.088867188 71 474 123 474 159 c 0
 474 242 400.87890625 291 298 291 c 0
 241.333007812 291 203 282 182 273 c 1
EndSplineSet
Layer: 2
Layer: 3
EndChar

StartChar: si_KUu
Encoding: 108 -1 92
Width: 746
VWidth: 1000
Flags: HW
LayerCount: 4
Back
Fore
SplineSet
106 323 m 0xb5f0
 99 305 84 297 69 297 c 0
 35 297 29 328 29 340 c 0
 29 394.098632812 79.3632281498 433 136 433 c 0xb5f0
 185.711963719 433 220.079101562 402 220.079101562 356 c 0
 220.079101562 351.467773438 219.723632812 345.794921875 219 341 c 1
 281 401 366 434 453 434 c 0
 603 434 701.000000002 328 701 192 c 0
 700.999999999 109.999777824 659 -1 556 -1 c 0
 540 -1 518 2 506 11 c 1
 506 38 l 1
 516 31 533 26 557 26 c 0x79f0
 607 26 649 80 649 153 c 0
 649 285 534.341514142 368 400 368 c 0
 326.666666667 368 266 348 219 308 c 1
 243 314 274.666992188 316 302 316 c 0
 422 316 515 251 515 126 c 0
 515 67.8472233203 482 -1 397 -1 c 0
 351 -1 317.333333333 20.3333333333 296 63 c 1
 278.666666667 21.6666666667 246.021148364 -1 204 -1 c 0
 117 -1 120 73 87 73 c 0
 64.6748046875 73 50 51 47 11 c 1
 21 22 l 1xbaf0
 28.6966338402 91.2697045622 74.4524773728 184.16496867 109 232 c 0
 135 268 150 282 168 301 c 1
 180 314 193 330 193 352 c 0
 193 374 183.407917035 392 158 392 c 0
 144 392 122.478515625 384.287109375 116 363 c 0
 109 340 112.653628896 340.109331446 106 323 c 0xb5f0
182 273 m 1
 164.666992188 258.333007812 145 234.666992188 129 212 c 0
 100.333007812 171.333007812 80.6666666667 131.666666667 70 95 c 1
 76 98.3333333333 82.3333333333 100 89 100 c 0
 118 100 142 71 199 71 c 0
 250.182680149 71 281 101.864211954 281 162 c 0
 281 164.208984375 281.041015625 161.3046875 281 163 c 1
 307 163 l 1
 306.963867188 161.6640625 307 163.330078125 307 162 c 0
 307 96.92631064 334 71 392 71 c 0
 454.088867188 71 474 123 474 159 c 0
 474 242 400.87890625 291 298 291 c 0
 241.333007812 291 203 282 182 273 c 1
697 -59 m 1
 700.590820312 -71.1181640625 701.303710938 -82.8330078125 701.303710938 -94 c 0
 701.303710938 -161 650 -205 568 -205 c 0
 510 -205 446 -187.465820312 446 -129 c 0
 446 -93.3486328125 477.34375 -71.125 510 -67 c 1
 455 -39 l 1
 542 -14 l 1
 506 0 l 1
 506 21 l 5
 600.5 -14.5 l 1
 514 -43 l 1
 574 -75.5 l 1
 546 -82.5 486 -84.5746765137 486 -115 c 0
 486 -146 527.923828125 -155 570 -155 c 0
 624 -155 669.728515625 -131 669.728515625 -82 c 0
 669.728515625 -77 669.193359375 -69.38671875 664 -59 c 1
 697 -59 l 1
EndSplineSet
Layer: 2
Layer: 3
EndChar

StartChar: si_Ka.reph
Encoding: 109 -1 93
Width: 746
VWidth: 1000
Flags: HW
LayerCount: 4
Back
Fore
SplineSet
390.0859375 491 m 4
 390.0859375 470.446289062 408.68359375 453.806640625 431 453.806640625 c 4
 453.31640625 453.806640625 471.9140625 470.446289062 471.9140625 491 c 4
 471.9140625 511.553710938 453.31640625 528.193359375 431 528.193359375 c 4
 408.68359375 528.193359375 390.0859375 511.553710938 390.0859375 491 c 4
383.5 450.25 m 5
 375.5 456.25 363 471 363 492 c 4
 363 527 394.353515625 552 430 552 c 4
 471 552 499 525 499 490 c 4
 499 451 464 425 406 425 c 4
 347 425 288 454 288 510 c 4
 288 574 346.120117188 611 428 611 c 4
 505 611 569 568 569 497 c 4
 569 473 560.666992188 451.333007812 544 432 c 5
 510.25 432 l 5
 523.419921875 444.38671875 538.75 468.734375 538.75 496 c 260
 538.75 553.241210938 488 583.75 427 583.75 c 4
 374.221679688 583.75 319.25 562.555664062 319.25 510 c 4
 319.25 470.924804688 360.303710938 452.215820312 383.5 450.25 c 5
106 323 m 0xb5f0
 99 305 84 297 69 297 c 0
 35 297 29 328 29 340 c 0
 29 394.098632812 79.3632281498 433 136 433 c 0xb5f0
 185.711963719 433 220.079101562 402 220.079101562 356 c 0
 220.079101562 351.467773438 219.723632812 345.794921875 219 341 c 1
 281 401 366 434 453 434 c 0
 603 434 701.000000002 328 701 192 c 0
 700.999999999 109.999777824 659 -1 556 -1 c 0
 540 -1 518 2 506 11 c 1
 506 38 l 1
 516 31 533 26 557 26 c 0x79f0
 607 26 649 80 649 153 c 0
 649 285 534.341514142 368 400 368 c 0
 326.666666667 368 266 348 219 308 c 1
 243 314 274.666992188 316 302 316 c 0
 422 316 515 251 515 126 c 0
 515 67.8472233203 482 -1 397 -1 c 0
 351 -1 317.333333333 20.3333333333 296 63 c 1
 278.666666667 21.6666666667 246.021148364 -1 204 -1 c 0
 117 -1 120 73 87 73 c 0
 64.6748046875 73 50 51 47 11 c 1
 21 22 l 1xbaf0
 28.6966338402 91.2697045622 74.4524773728 184.16496867 109 232 c 0
 135 268 150 282 168 301 c 1
 180 314 193 330 193 352 c 0
 193 374 183.407917035 392 158 392 c 0
 144 392 122.478515625 384.287109375 116 363 c 0
 109 340 112.653628896 340.109331446 106 323 c 0xb5f0
182 273 m 1
 164.666992188 258.333007812 145 234.666992188 129 212 c 0
 100.333007812 171.333007812 80.6666666667 131.666666667 70 95 c 1
 76 98.3333333333 82.3333333333 100 89 100 c 0
 118 100 142 71 199 71 c 0
 250.182680149 71 281 101.864211954 281 162 c 0
 281 164.208984375 281.041015625 161.3046875 281 163 c 1
 307 163 l 1
 306.963867188 161.6640625 307 163.330078125 307 162 c 0
 307 96.92631064 334 71 392 71 c 0
 454.088867188 71 474 123 474 159 c 0
 474 242 400.87890625 291 298 291 c 0
 241.333007812 291 203 282 182 273 c 1
EndSplineSet
Layer: 2
Layer: 3
EndChar

StartChar: si_KU.reph
Encoding: 110 -1 94
Width: 997
VWidth: 1000
Flags: HW
LayerCount: 4
Back
Fore
SplineSet
390.0859375 491 m 4
 390.0859375 470.446289062 408.68359375 453.806640625 431 453.806640625 c 4
 453.31640625 453.806640625 471.9140625 470.446289062 471.9140625 491 c 4
 471.9140625 511.553710938 453.31640625 528.193359375 431 528.193359375 c 4
 408.68359375 528.193359375 390.0859375 511.553710938 390.0859375 491 c 4
383.5 450.25 m 5
 375.5 456.25 363 471 363 492 c 4
 363 527 394.353515625 552 430 552 c 4
 471 552 499 525 499 490 c 4
 499 451 464 425 406 425 c 4
 347 425 288 454 288 510 c 4
 288 574 346.120117188 611 428 611 c 4
 505 611 569 568 569 497 c 4
 569 473 560.666992188 451.333007812 544 432 c 5
 510.25 432 l 5
 523.419921875 444.38671875 538.75 468.734375 538.75 496 c 260
 538.75 553.241210938 488 583.75 427 583.75 c 4
 374.221679688 583.75 319.25 562.555664062 319.25 510 c 4
 319.25 470.924804688 360.303710938 452.215820312 383.5 450.25 c 5
889 201 m 0
 889 90.5400390625 861.998046875 36.92578125 803 36.400390625 c 0
 758 36 734 68.6904296875 734 117.169921875 c 0
 734 122.556640625 734.333007812 127.606445312 735 132.3203125 c 1
 708 132.3203125 l 1
 707.333007812 124.9140625 707 117.506835938 707 110.099609375 c 0
 707 41.271484375 750.587890625 -1 818 -1 c 0
 909 -1 955 72.73046875 955 201 c 0
 955 329.26953125 909 403 818 403 c 0
 759 403 707 360.728515625 707 291.900390625 c 0
 707 284.494140625 707.333007812 277.0859375 708 269.6796875 c 1
 735 269.6796875 l 1
 734.333007812 274.393554688 734 279.443359375 734 284.830078125 c 0
 734 333.309570312 765 365.599609375 803 365.599609375 c 0
 862 365.599609375 889 311.459960938 889 201 c 0
106 323 m 0xb5f0
 99 305 84 297 69 297 c 0
 35 297 29 328 29 340 c 0
 29 394.098632812 79.3632281498 433 136 433 c 0xb5f0
 185.711963719 433 220.079101562 402 220.079101562 356 c 0
 220.079101562 351.467773438 219.723632812 345.794921875 219 341 c 1
 281 401 366 434 453 434 c 0
 603 434 701.000000002 328 701 192 c 0
 700.999999999 109.999777824 659 -1 556 -1 c 0
 540 -1 518 2 506 11 c 1
 506 38 l 1
 516 31 533 26 557 26 c 0x79f0
 607 26 649 80 649 153 c 0
 649 285 534.341514142 368 400 368 c 0
 326.666666667 368 266 348 219 308 c 1
 243 314 274.666992188 316 302 316 c 0
 422 316 515 251 515 126 c 0
 515 67.8472233203 482 -1 397 -1 c 0
 351 -1 317.333333333 20.3333333333 296 63 c 1
 278.666666667 21.6666666667 246.021148364 -1 204 -1 c 0
 117 -1 120 73 87 73 c 0
 64.6748046875 73 50 51 47 11 c 1
 21 22 l 1xbaf0
 28.6966338402 91.2697045622 74.4524773728 184.16496867 109 232 c 0
 135 268 150 282 168 301 c 1
 180 314 193 330 193 352 c 0
 193 374 183.407917035 392 158 392 c 0
 144 392 122.478515625 384.287109375 116 363 c 0
 109 340 112.653628896 340.109331446 106 323 c 0xb5f0
182 273 m 1
 164.666992188 258.333007812 145 234.666992188 129 212 c 0
 100.333007812 171.333007812 80.6666666667 131.666666667 70 95 c 1
 76 98.3333333333 82.3333333333 100 89 100 c 0
 118 100 142 71 199 71 c 0
 250.182680149 71 281 101.864211954 281 162 c 0
 281 164.208984375 281.041015625 161.3046875 281 163 c 1
 307 163 l 1
 306.963867188 161.6640625 307 163.330078125 307 162 c 0
 307 96.92631064 334 71 392 71 c 0
 454.088867188 71 474 123 474 159 c 0
 474 242 400.87890625 291 298 291 c 0
 241.333007812 291 203 282 182 273 c 1
EndSplineSet
Layer: 2
Layer: 3
EndChar

StartChar: si_Ka.Rakar
Encoding: 111 -1 95
Width: 746
VWidth: 1000
Flags: HW
LayerCount: 4
Back
Fore
SplineSet
141 -44 m 5
 176.333007812 -119.333007812 263.666992188 -157 369 -157 c 4
 512 -157 660 -90 660 50 c 4
 660 71 655 93 648 102 c 5
 659 133 l 5
 677 106.333007812 686 74.6669921875 686 38 c 4
 686 -123.729492188 536 -219 385 -219 c 4
 244 -219 151.333007812 -153.333007812 114 -44 c 5
 141 -44 l 5
106 323 m 0xb5f0
 99 305 84 297 69 297 c 0
 35 297 29 328 29 340 c 0
 29 394.098632812 79.3632281498 433 136 433 c 0xb5f0
 185.711963719 433 220.079101562 402 220.079101562 356 c 0
 220.079101562 351.467773438 219.723632812 345.794921875 219 341 c 1
 281 401 366 434 453 434 c 0
 603 434 701.000000002 328 701 192 c 0
 700.999999999 109.999777824 659 -1 556 -1 c 0
 540 -1 518 2 506 11 c 1
 506 38 l 1
 516 31 533 26 557 26 c 0x79f0
 607 26 649 80 649 153 c 0
 649 285 534.341514142 368 400 368 c 0
 326.666666667 368 266 348 219 308 c 1
 243 314 274.666992188 316 302 316 c 0
 422 316 515 251 515 126 c 0
 515 67.8472233203 482 -1 397 -1 c 0
 351 -1 317.333333333 20.3333333333 296 63 c 1
 278.666666667 21.6666666667 246.021148364 -1 204 -1 c 0
 117 -1 120 73 87 73 c 0
 64.6748046875 73 50 51 47 11 c 1
 21 22 l 1xbaf0
 28.6966338402 91.2697045622 74.4524773728 184.16496867 109 232 c 0
 135 268 150 282 168 301 c 1
 180 314 193 330 193 352 c 0
 193 374 183.407917035 392 158 392 c 0
 144 392 122.478515625 384.287109375 116 363 c 0
 109 340 112.653628896 340.109331446 106 323 c 0xb5f0
182 273 m 1
 164.666992188 258.333007812 145 234.666992188 129 212 c 0
 100.333007812 171.333007812 80.6666666667 131.666666667 70 95 c 1
 76 98.3333333333 82.3333333333 100 89 100 c 0
 118 100 142 71 199 71 c 0
 250.182680149 71 281 101.864211954 281 162 c 0
 281 164.208984375 281.041015625 161.3046875 281 163 c 1
 307 163 l 1
 306.963867188 161.6640625 307 163.330078125 307 162 c 0
 307 96.92631064 334 71 392 71 c 0
 454.088867188 71 474 123 474 159 c 0
 474 242 400.87890625 291 298 291 c 0
 241.333007812 291 203 282 182 273 c 1
EndSplineSet
Layer: 2
Layer: 3
EndChar

StartChar: si_KI.Rakar
Encoding: 112 -1 96
Width: 746
VWidth: 1000
Flags: HW
LayerCount: 4
Back
Fore
SplineSet
610 383 m 5
 578 403 l 5
 618 405 656 440 656 486 c 4
 656 574 555 598 473 598 c 4
 336 598 244 527.63671875 244 404 c 4
 244 389.333007812 245.666992188 376.333007812 249 365 c 5
 225 343 l 5
 220.903461411 360.75166722 218 389.836914062 218 421 c 4
 218 590 330 671 473 671 c 4
 603 671 688 610 688 505 c 4
 688 444 658 402 610 383 c 5
141 -44 m 5
 176.333007812 -119.333007812 263.666992188 -157 369 -157 c 4
 512 -157 660 -90 660 50 c 4
 660 71 655 93 648 102 c 5
 659 133 l 5
 677 106.333007812 686 74.6669921875 686 38 c 4
 686 -123.729492188 536 -219 385 -219 c 4
 244 -219 151.333007812 -153.333007812 114 -44 c 5
 141 -44 l 5
106 323 m 4xb5f0
 99 305 84 297 69 297 c 4
 35 297 29 328 29 340 c 4
 29 394.098632812 79.3632281498 433 136 433 c 4xb5f0
 185.711963719 433 220.079101562 402 220.079101562 356 c 4
 220.079101562 351.467773438 219.723632812 345.794921875 219 341 c 5
 281 401 366 434 453 434 c 4
 603 434 701.000000002 328 701 192 c 4
 700.999999999 109.999777824 659 -1 556 -1 c 4
 540 -1 518 2 506 11 c 5
 506 38 l 5
 516 31 533 26 557 26 c 4x79f0
 607 26 649 80 649 153 c 4
 649 285 534.341514142 368 400 368 c 4
 326.666666667 368 266 348 219 308 c 5
 243 314 274.666992188 316 302 316 c 4
 422 316 515 251 515 126 c 4
 515 67.8472233203 482 -1 397 -1 c 4
 351 -1 317.333333333 20.3333333333 296 63 c 5
 278.666666667 21.6666666667 246.021148364 -1 204 -1 c 4
 117 -1 120 73 87 73 c 4
 64.6748046875 73 50 51 47 11 c 5
 21 22 l 5xbaf0
 28.6966338402 91.2697045622 74.4524773728 184.16496867 109 232 c 4
 135 268 150 282 168 301 c 5
 180 314 193 330 193 352 c 4
 193 374 183.407917035 392 158 392 c 4
 144 392 122.478515625 384.287109375 116 363 c 4
 109 340 112.653628896 340.109331446 106 323 c 4xb5f0
182 273 m 5
 164.666992188 258.333007812 145 234.666992188 129 212 c 4
 100.333007812 171.333007812 80.6666666667 131.666666667 70 95 c 5
 76 98.3333333333 82.3333333333 100 89 100 c 4
 118 100 142 71 199 71 c 4
 250.182680149 71 281 101.864211954 281 162 c 4
 281 164.208984375 281.041015625 161.3046875 281 163 c 5
 307 163 l 5
 306.963867188 161.6640625 307 163.330078125 307 162 c 4
 307 96.92631064 334 71 392 71 c 4
 454.088867188 71 474 123 474 159 c 4
 474 242 400.87890625 291 298 291 c 4
 241.333007812 291 203 282 182 273 c 5
EndSplineSet
Layer: 2
Layer: 3
EndChar

